{
copyright = "Copyright (c) 2012-2015, Omnibus-Type (www.omnibus-type.com omnibus.type@gmail.com)";
customParameters = (
{
name = licenseURL;
value = "http://scripts.sil.org/OFL";
},
{
name = description;
value = "Archivo Narrow was designed to be used simultaneously in print and digital platforms. The technical and aesthetic characteristics of the font are both crafted for high performance typography.";
},
{
name = trademark;
value = Archivo;
},
{
name = license;
value = "This Font Software is licensed under the SIL Open Font License, Version 1.1. This license is available with a FAQ at: http://scripts.sil.org/OFL";
},
{
name = openTypeOS2VendorID;
value = OMNI;
},
{
name = fsType;
value = (
);
},
{
name = "Family Alignment Zones";
value = (
"{686, 12}",
"{526, 12}",
"{0, -12}",
);
}
);
date = "2015-02-05 02:37:04 +0000";
designer = "Hector Gatti";
familyName = "Archivo Narrow";
fontMaster = (
{
alignmentZones = (
"{723, 8}",
"{686, 12}",
"{526, 12}",
"{0, -12}",
"{-182, 9}"
);
ascender = 723;
capHeight = 686;
customParameters = (
{
name = typoAscender;
value = "957";
},
{
name = typoDescender;
value = "-303";
},
{
name = typoLineGap;
value = "0";
},
{
name = winAscent;
value = "957";
},
{
name = winDescent;
value = "303";
},
{
name = hheaAscender;
value = "957";
},
{
name = hheaDescender;
value = "-303";
},
{
name = hheaLineGap;
value = "0";
}
);
descender = "-182";
horizontalStems = (
81,
73,
84
);
id = UUID0;
italicAngle = 8;
verticalStems = (
85,
90
);
xHeight = 526;
}
);
glyphs = (
{
color = (31,255,0,1);
glyphname = A;
lastChange = "2015-02-05 02:37:04 +0000";
layers = (
{
anchors = (
{
name = ogonek;
position = "{512, 0}";
},
{
name = top;
position = "{336, 686}";
}
);
background = {
paths = (
{
closed = 1;
nodes = (
"391 686 LINE",
"278 686 LINE",
"-36 0 LINE",
"51 0 LINE",
"119 151 LINE",
"395 151 LINE",
"421 0 LINE",
"512 0 LINE"
);
},
{
closed = 1;
nodes = (
"381 235 LINE",
"157 235 LINE",
"294 538 LINE SMOOTH",
"304 560 OFFCURVE",
"322 614 OFFCURVE",
"322 614 CURVE",
"326 614 LINE",
"326 614 OFFCURVE",
"327 561 OFFCURVE",
"331 538 CURVE SMOOTH"
);
}
);
};
layerId = UUID0;
name = "Regular Italic";
paths = (
{
closed = 1;
nodes = (
"421 0 LINE",
"512 0 LINE",
"391 686 LINE",
"278 686 LINE",
"-36 0 LINE",
"51 0 LINE",
"120 153 LINE",
"395 153 LINE"
);
},
{
closed = 1;
nodes = (
"294 538 LINE SMOOTH",
"304 560 OFFCURVE",
"322 614 OFFCURVE",
"322 614 CURVE",
"326 614 LINE",
"326 614 OFFCURVE",
"327 561 OFFCURVE",
"331 538 CURVE SMOOTH",
"382 233 LINE",
"156 233 LINE"
);
}
);
width = 547;
}
);
unicode = 0041;
},
{
color = (31,255,0,1);
glyphname = Aacute;
lastChange = "2015-02-05 02:37:04 +0000";
layers = (
{
background = {
paths = (
{
closed = 1;
nodes = (
"391 686 LINE",
"278 686 LINE",
"-36 0 LINE",
"51 0 LINE",
"119 151 LINE",
"395 151 LINE",
"421 0 LINE",
"512 0 LINE"
);
},
{
closed = 1;
nodes = (
"326 614 LINE",
"326 614 OFFCURVE",
"327 561 OFFCURVE",
"331 538 CURVE SMOOTH",
"381 235 LINE",
"157 235 LINE",
"294 538 LINE SMOOTH",
"304 560 OFFCURVE",
"322 614 OFFCURVE",
"322 614 CURVE"
);
}
);
};
layerId = UUID0;
name = "Regular Italic";
paths = (
{
closed = 1;
nodes = (
"469 883 LINE",
"378 883 LINE",
"292 751 LINE",
"362 751 LINE",
"470 880 LINE"
);
},
{
closed = 1;
nodes = (
"421 0 LINE",
"512 0 LINE",
"391 686 LINE",
"278 686 LINE",
"-36 0 LINE",
"51 0 LINE",
"120 153 LINE",
"395 153 LINE"
);
},
{
closed = 1;
nodes = (
"294 538 LINE SMOOTH",
"304 560 OFFCURVE",
"322 614 OFFCURVE",
"322 614 CURVE",
"326 614 LINE",
"326 614 OFFCURVE",
"327 561 OFFCURVE",
"331 538 CURVE SMOOTH",
"382 233 LINE",
"156 233 LINE"
);
}
);
width = 547;
}
);
unicode = 00C1;
},
{
color = (31,255,0,1);
glyphname = Abreve;
lastChange = "2015-02-05 02:37:04 +0000";
layers = (
{
background = {
paths = (
{
closed = 1;
nodes = (
"391 686 LINE",
"278 686 LINE",
"-36 0 LINE",
"51 0 LINE",
"119 151 LINE",
"395 151 LINE",
"421 0 LINE",
"512 0 LINE"
);
},
{
closed = 1;
nodes = (
"326 614 LINE",
"326 614 OFFCURVE",
"327 561 OFFCURVE",
"331 538 CURVE SMOOTH",
"381 235 LINE",
"157 235 LINE",
"294 538 LINE SMOOTH",
"304 560 OFFCURVE",
"322 614 OFFCURVE",
"322 614 CURVE"
);
}
);
};
layerId = UUID0;
name = "Regular Italic";
paths = (
{
closed = 1;
nodes = (
"423 883 LINE",
"419 869 OFFCURVE",
"393 850 OFFCURVE",
"359 850 CURVE SMOOTH",
"326 850 OFFCURVE",
"305 869 OFFCURVE",
"304 883 CURVE",
"240 883 LINE",
"239 880 OFFCURVE",
"239 877 OFFCURVE",
"239 874 CURVE SMOOTH",
"239 831 OFFCURVE",
"281 786 OFFCURVE",
"355 786 CURVE SMOOTH",
"429 786 OFFCURVE",
"481 838 OFFCURVE",
"487 883 CURVE"
);
},
{
closed = 1;
nodes = (
"421 0 LINE",
"512 0 LINE",
"391 686 LINE",
"278 686 LINE",
"-36 0 LINE",
"51 0 LINE",
"120 153 LINE",
"395 153 LINE"
);
},
{
closed = 1;
nodes = (
"294 538 LINE SMOOTH",
"304 560 OFFCURVE",
"322 614 OFFCURVE",
"322 614 CURVE",
"326 614 LINE",
"326 614 OFFCURVE",
"327 561 OFFCURVE",
"331 538 CURVE SMOOTH",
"382 233 LINE",
"156 233 LINE"
);
}
);
width = 547;
}
);
unicode = 0102;
},
{
color = (31,255,0,1);
glyphname = Acircumflex;
lastChange = "2015-02-05 02:37:04 +0000";
layers = (
{
background = {
paths = (
{
closed = 1;
nodes = (
"391 686 LINE",
"278 686 LINE",
"-36 0 LINE",
"51 0 LINE",
"119 151 LINE",
"395 151 LINE",
"421 0 LINE",
"512 0 LINE"
);
},
{
closed = 1;
nodes = (
"326 614 LINE",
"326 614 OFFCURVE",
"327 561 OFFCURVE",
"331 538 CURVE SMOOTH",
"381 235 LINE",
"157 235 LINE",
"294 538 LINE SMOOTH",
"304 560 OFFCURVE",
"322 614 OFFCURVE",
"322 614 CURVE"
);
}
);
};
layerId = UUID0;
name = "Regular Italic";
paths = (
{
closed = 1;
nodes = (
"399 883 LINE",
"321 883 LINE",
"216 748 LINE",
"299 748 LINE",
"355 827 LINE",
"388 748 LINE",
"465 748 LINE"
);
},
{
closed = 1;
nodes = (
"421 0 LINE",
"512 0 LINE",
"391 686 LINE",
"278 686 LINE",
"-36 0 LINE",
"51 0 LINE",
"120 153 LINE",
"395 153 LINE"
);
},
{
closed = 1;
nodes = (
"294 538 LINE SMOOTH",
"304 560 OFFCURVE",
"322 614 OFFCURVE",
"322 614 CURVE",
"326 614 LINE",
"326 614 OFFCURVE",
"327 561 OFFCURVE",
"331 538 CURVE SMOOTH",
"382 233 LINE",
"156 233 LINE"
);
}
);
width = 547;
}
);
unicode = 00C2;
},
{
color = (31,255,0,1);
glyphname = Adieresis;
lastChange = "2015-02-05 02:37:04 +0000";
layers = (
{
background = {
paths = (
{
closed = 1;
nodes = (
"391 686 LINE",
"278 686 LINE",
"-36 0 LINE",
"51 0 LINE",
"119 151 LINE",
"395 151 LINE",
"421 0 LINE",
"512 0 LINE"
);
},
{
closed = 1;
nodes = (
"326 614 LINE",
"326 614 OFFCURVE",
"327 561 OFFCURVE",
"331 538 CURVE SMOOTH",
"381 235 LINE",
"157 235 LINE",
"294 538 LINE SMOOTH",
"304 560 OFFCURVE",
"322 614 OFFCURVE",
"322 614 CURVE"
);
}
);
};
layerId = UUID0;
name = "Regular Italic";
paths = (
{
closed = 1;
nodes = (
"483 883 LINE",
"396 883 LINE",
"383 788 LINE",
"470 788 LINE"
);
},
{
closed = 1;
nodes = (
"333 883 LINE",
"247 883 LINE",
"233 788 LINE",
"320 788 LINE"
);
},
{
closed = 1;
nodes = (
"421 0 LINE",
"512 0 LINE",
"391 686 LINE",
"278 686 LINE",
"-36 0 LINE",
"51 0 LINE",
"120 153 LINE",
"395 153 LINE"
);
},
{
closed = 1;
nodes = (
"294 538 LINE SMOOTH",
"304 560 OFFCURVE",
"322 614 OFFCURVE",
"322 614 CURVE",
"326 614 LINE",
"326 614 OFFCURVE",
"327 561 OFFCURVE",
"331 538 CURVE SMOOTH",
"382 233 LINE",
"156 233 LINE"
);
}
);
width = 547;
}
);
unicode = 00C4;
},
{
color = (31,255,0,1);
glyphname = Agrave;
lastChange = "2015-02-05 02:37:04 +0000";
layers = (
{
background = {
paths = (
{
closed = 1;
nodes = (
"391 686 LINE",
"278 686 LINE",
"-36 0 LINE",
"51 0 LINE",
"119 151 LINE",
"395 151 LINE",
"421 0 LINE",
"512 0 LINE"
);
},
{
closed = 1;
nodes = (
"326 614 LINE",
"326 614 OFFCURVE",
"327 561 OFFCURVE",
"331 538 CURVE SMOOTH",
"381 235 LINE",
"157 235 LINE",
"294 538 LINE SMOOTH",
"304 560 OFFCURVE",
"322 614 OFFCURVE",
"322 614 CURVE"
);
}
);
};
layerId = UUID0;
name = "Regular Italic";
paths = (
{
closed = 1;
nodes = (
"337 883 LINE",
"248 883 LINE",
"246 880 LINE",
"335 751 LINE",
"405 751 LINE"
);
},
{
closed = 1;
nodes = (
"421 0 LINE",
"512 0 LINE",
"391 686 LINE",
"278 686 LINE",
"-36 0 LINE",
"51 0 LINE",
"120 153 LINE",
"395 153 LINE"
);
},
{
closed = 1;
nodes = (
"294 538 LINE SMOOTH",
"304 560 OFFCURVE",
"322 614 OFFCURVE",
"322 614 CURVE",
"326 614 LINE",
"326 614 OFFCURVE",
"327 561 OFFCURVE",
"331 538 CURVE SMOOTH",
"382 233 LINE",
"156 233 LINE"
);
}
);
width = 547;
}
);
unicode = 00C0;
},
{
color = (31,255,0,1);
glyphname = Amacron;
lastChange = "2015-02-05 02:37:04 +0000";
layers = (
{
background = {
paths = (
{
closed = 1;
nodes = (
"391 686 LINE",
"278 686 LINE",
"-36 0 LINE",
"51 0 LINE",
"119 151 LINE",
"395 151 LINE",
"421 0 LINE",
"512 0 LINE"
);
},
{
closed = 1;
nodes = (
"326 614 LINE",
"326 614 OFFCURVE",
"327 561 OFFCURVE",
"331 538 CURVE SMOOTH",
"381 235 LINE",
"157 235 LINE",
"294 538 LINE SMOOTH",
"304 560 OFFCURVE",
"322 614 OFFCURVE",
"322 614 CURVE"
);
}
);
};
layerId = UUID0;
name = "Regular Italic";
paths = (
{
closed = 1;
nodes = (
"478 831 LINE",
"228 831 LINE",
"217 759 LINE",
"467 759 LINE"
);
},
{
closed = 1;
nodes = (
"421 0 LINE",
"512 0 LINE",
"391 686 LINE",
"278 686 LINE",
"-36 0 LINE",
"51 0 LINE",
"120 153 LINE",
"395 153 LINE"
);
},
{
closed = 1;
nodes = (
"294 538 LINE SMOOTH",
"304 560 OFFCURVE",
"322 614 OFFCURVE",
"322 614 CURVE",
"326 614 LINE",
"326 614 OFFCURVE",
"327 561 OFFCURVE",
"331 538 CURVE SMOOTH",
"382 233 LINE",
"156 233 LINE"
);
}
);
width = 547;
}
);
unicode = 0100;
},
{
color = (31,255,0,1);
glyphname = Aogonek;
lastChange = "2015-02-05 02:37:04 +0000";
layers = (
{
background = {
paths = (
{
closed = 1;
nodes = (
"421 0 LINE",
"512 0 LINE",
"391 686 LINE",
"278 686 LINE",
"-36 0 LINE",
"51 0 LINE",
"120 153 LINE",
"395 153 LINE"
);
},
{
closed = 1;
nodes = (
"294 538 LINE SMOOTH",
"304 560 OFFCURVE",
"322 614 OFFCURVE",
"322 614 CURVE",
"326 614 LINE",
"326 614 OFFCURVE",
"327 561 OFFCURVE",
"331 538 CURVE SMOOTH",
"382 233 LINE",
"156 233 LINE"
);
}
);
};
layerId = UUID0;
name = "Regular Italic";
paths = (
{
closed = 1;
nodes = (
"542 -125 LINE",
"509 -125 LINE SMOOTH",
"481 -125 OFFCURVE",
"471 -106 OFFCURVE",
"471 -83 CURVE SMOOTH",
"471 -50 OFFCURVE",
"495 -17 OFFCURVE",
"512 0 CURVE",
"391 686 LINE",
"278 686 LINE",
"-36 0 LINE",
"51 0 LINE",
"120 153 LINE",
"395 153 LINE",
"421 0 LINE",
"447 0 LINE",
"418 -26 OFFCURVE",
"389 -59 OFFCURVE",
"389 -111 CURVE SMOOTH",
"389 -172 OFFCURVE",
"430 -190 OFFCURVE",
"471 -190 CURVE SMOOTH",
"491 -190 OFFCURVE",
"512 -185 OFFCURVE",
"534 -176 CURVE"
);
},
{
closed = 1;
nodes = (
"382 233 LINE",
"156 233 LINE",
"294 538 LINE SMOOTH",
"304 560 OFFCURVE",
"322 614 OFFCURVE",
"322 614 CURVE",
"326 614 LINE",
"326 614 OFFCURVE",
"327 561 OFFCURVE",
"331 538 CURVE SMOOTH"
);
}
);
width = 547;
}
);
unicode = 0104;
},
{
color = (31,255,0,1);
glyphname = Aring;
lastChange = "2015-02-05 02:37:04 +0000";
layers = (
{
background = {
paths = (
{
closed = 1;
nodes = (
"391 686 LINE",
"278 686 LINE",
"-36 0 LINE",
"51 0 LINE",
"119 151 LINE",
"395 151 LINE",
"421 0 LINE",
"512 0 LINE"
);
},
{
closed = 1;
nodes = (
"326 614 LINE",
"326 614 OFFCURVE",
"327 561 OFFCURVE",
"331 538 CURVE SMOOTH",
"381 235 LINE",
"157 235 LINE",
"294 538 LINE SMOOTH",
"304 560 OFFCURVE",
"322 614 OFFCURVE",
"322 614 CURVE"
);
}
);
};
layerId = UUID0;
name = "Regular Italic";
paths = (
{
closed = 1;
nodes = (
"308 897 OFFCURVE",
"259 857 OFFCURVE",
"259 799 CURVE SMOOTH",
"259 750 OFFCURVE",
"296 715 OFFCURVE",
"346 715 CURVE SMOOTH",
"397 715 OFFCURVE",
"444 758 OFFCURVE",
"444 813 CURVE SMOOTH",
"444 861 OFFCURVE",
"408 897 OFFCURVE",
"358 897 CURVE SMOOTH"
);
},
{
closed = 1;
nodes = (
"381 857 OFFCURVE",
"400 835 OFFCURVE",
"400 810 CURVE SMOOTH",
"400 778 OFFCURVE",
"376 755 OFFCURVE",
"349 755 CURVE SMOOTH",
"322 755 OFFCURVE",
"304 777 OFFCURVE",
"304 802 CURVE SMOOTH",
"304 834 OFFCURVE",
"327 857 OFFCURVE",
"355 857 CURVE SMOOTH"
);
},
{
closed = 1;
nodes = (
"421 0 LINE",
"512 0 LINE",
"391 686 LINE",
"278 686 LINE",
"-36 0 LINE",
"51 0 LINE",
"120 153 LINE",
"395 153 LINE"
);
},
{
closed = 1;
nodes = (
"294 538 LINE SMOOTH",
"304 560 OFFCURVE",
"322 614 OFFCURVE",
"322 614 CURVE",
"326 614 LINE",
"326 614 OFFCURVE",
"327 561 OFFCURVE",
"331 538 CURVE SMOOTH",
"382 233 LINE",
"156 233 LINE"
);
}
);
width = 547;
}
);
unicode = 00C5;
},
{
color = (31,255,0,1);
glyphname = Aringacute;
lastChange = "2015-02-05 02:37:04 +0000";
layers = (
{
background = {
paths = (
{
closed = 1;
nodes = (
"421 0 LINE",
"512 0 LINE",
"391 686 LINE",
"278 686 LINE",
"-36 0 LINE",
"51 0 LINE",
"120 153 LINE",
"395 153 LINE"
);
},
{
closed = 1;
nodes = (
"294 538 LINE SMOOTH",
"304 560 OFFCURVE",
"322 614 OFFCURVE",
"322 614 CURVE",
"326 614 LINE",
"326 614 OFFCURVE",
"327 561 OFFCURVE",
"331 538 CURVE SMOOTH",
"382 233 LINE",
"156 233 LINE"
);
}
);
};
layerId = UUID0;
name = "Regular Italic";
paths = (
{
closed = 1;
nodes = (
"408 848 LINE",
"500 954 LINE",
"499 957 LINE",
"409 957 LINE",
"338 848 LINE"
);
},
{
closed = 1;
nodes = (
"512 0 LINE",
"395 665 LINE",
"415 682 OFFCURVE",
"428 708 OFFCURVE",
"428 737 CURVE SMOOTH",
"428 785 OFFCURVE",
"392 821 OFFCURVE",
"342 821 CURVE SMOOTH",
"292 821 OFFCURVE",
"243 781 OFFCURVE",
"243 723 CURVE SMOOTH",
"243 699 OFFCURVE",
"252 678 OFFCURVE",
"268 663 CURVE",
"-36 0 LINE",
"51 0 LINE",
"120 153 LINE",
"395 153 LINE",
"421 0 LINE"
);
},
{
closed = 1;
nodes = (
"365 781 OFFCURVE",
"384 759 OFFCURVE",
"384 734 CURVE SMOOTH",
"384 702 OFFCURVE",
"360 679 OFFCURVE",
"333 679 CURVE SMOOTH",
"306 679 OFFCURVE",
"288 701 OFFCURVE",
"288 726 CURVE SMOOTH",
"288 758 OFFCURVE",
"311 781 OFFCURVE",
"339 781 CURVE SMOOTH"
);
},
{
closed = 1;
nodes = (
"382 233 LINE",
"156 233 LINE",
"294 538 LINE SMOOTH",
"304 560 OFFCURVE",
"322 614 OFFCURVE",
"322 614 CURVE",
"326 614 LINE",
"326 614 OFFCURVE",
"327 561 OFFCURVE",
"331 538 CURVE SMOOTH"
);
}
);
width = 547;
}
);
unicode = 01FA;
},
{
color = (31,255,0,1);
glyphname = Atilde;
lastChange = "2015-02-05 02:37:04 +0000";
layers = (
{
background = {
paths = (
{
closed = 1;
nodes = (
"391 686 LINE",
"278 686 LINE",
"-36 0 LINE",
"51 0 LINE",
"119 151 LINE",
"395 151 LINE",
"421 0 LINE",
"512 0 LINE"
);
},
{
closed = 1;
nodes = (
"326 614 LINE",
"326 614 OFFCURVE",
"327 561 OFFCURVE",
"331 538 CURVE SMOOTH",
"381 235 LINE",
"157 235 LINE",
"294 538 LINE SMOOTH",
"304 560 OFFCURVE",
"322 614 OFFCURVE",
"322 614 CURVE"
);
}
);
};
layerId = UUID0;
name = "Regular Italic";
paths = (
{
closed = 1;
nodes = (
"449 883 LINE",
"443 860 OFFCURVE",
"428 852 OFFCURVE",
"410 852 CURVE SMOOTH",
"370 852 OFFCURVE",
"341 883 OFFCURVE",
"296 883 CURVE SMOOTH",
"238 883 OFFCURVE",
"208 825 OFFCURVE",
"201 779 CURVE",
"258 779 LINE",
"264 802 OFFCURVE",
"279 810 OFFCURVE",
"297 810 CURVE SMOOTH",
"337 810 OFFCURVE",
"366 779 OFFCURVE",
"411 779 CURVE SMOOTH",
"469 779 OFFCURVE",
"500 837 OFFCURVE",
"507 883 CURVE"
);
},
{
closed = 1;
nodes = (
"421 0 LINE",
"512 0 LINE",
"391 686 LINE",
"278 686 LINE",
"-36 0 LINE",
"51 0 LINE",
"120 153 LINE",
"395 153 LINE"
);
},
{
closed = 1;
nodes = (
"294 538 LINE SMOOTH",
"304 560 OFFCURVE",
"322 614 OFFCURVE",
"322 614 CURVE",
"326 614 LINE",
"326 614 OFFCURVE",
"327 561 OFFCURVE",
"331 538 CURVE SMOOTH",
"382 233 LINE",
"156 233 LINE"
);
}
);
width = 547;
}
);
unicode = 00C3;
},
{
color = (31,255,0,1);
glyphname = AE;
lastChange = "2015-02-05 02:37:04 +0000";
layers = (
{
anchors = (
{
name = top;
position = "{400, 686}";
}
);
background = {
paths = (
{
closed = 1;
nodes = (
"833 686 LINE",
"331 686 LINE",
"-43 0 LINE",
"49 0 LINE",
"127 151 LINE",
"398 151 LINE",
"410 0 LINE",
"755 0 LINE",
"743 84 LINE",
"494 84 LINE",
"475 309 LINE",
"740 309 LINE",
"752 393 LINE",
"468 393 LINE",
"451 602 LINE",
"808 602 LINE"
);
},
{
closed = 1;
nodes = (
"363 602 LINE",
"363 602 OFFCURVE",
"365 549 OFFCURVE",
"367 526 CURVE SMOOTH",
"391 235 LINE",
"171 235 LINE",
"323 526 LINE SMOOTH",
"335 549 OFFCURVE",
"359 602 OFFCURVE",
"359 602 CURVE"
);
}
);
};
layerId = UUID0;
name = "Regular Italic";
paths = (
{
closed = 1;
nodes = (
"495 80 LINE",
"475 311 LINE",
"733 311 LINE",
"744 391 LINE",
"469 391 LINE",
"451 606 LINE",
"818 606 LINE",
"830 686 LINE",
"331 686 LINE",
"-43 0 LINE",
"49 0 LINE",
"128 153 LINE",
"397 153 LINE",
"410 0 LINE",
"739 0 LINE",
"751 80 LINE"
);
},
{
closed = 1;
nodes = (
"323 526 LINE SMOOTH",
"335 549 OFFCURVE",
"359 602 OFFCURVE",
"359 602 CURVE",
"363 602 LINE",
"363 602 OFFCURVE",
"365 549 OFFCURVE",
"367 526 CURVE SMOOTH",
"391 233 LINE",
"170 233 LINE"
);
}
);
width = 820;
}
);
unicode = 00C6;
},
{
color = (31,255,0,1);
glyphname = AEacute;
lastChange = "2015-02-05 02:37:04 +0000";
layers = (
{
background = {
paths = (
{
closed = 1;
nodes = (
"833 686 LINE",
"331 686 LINE",
"-43 0 LINE",
"49 0 LINE",
"127 151 LINE",
"398 151 LINE",
"410 0 LINE",
"755 0 LINE",
"743 84 LINE",
"494 84 LINE",
"475 309 LINE",
"740 309 LINE",
"752 393 LINE",
"468 393 LINE",
"451 602 LINE",
"808 602 LINE"
);
},
{
closed = 1;
nodes = (
"363 602 LINE",
"363 602 OFFCURVE",
"365 549 OFFCURVE",
"367 526 CURVE SMOOTH",
"391 235 LINE",
"171 235 LINE",
"323 526 LINE SMOOTH",
"335 549 OFFCURVE",
"359 602 OFFCURVE",
"359 602 CURVE"
);
}
);
};
layerId = UUID0;
name = "Regular Italic";
paths = (
{
closed = 1;
nodes = (
"533 883 LINE",
"442 883 LINE",
"356 751 LINE",
"426 751 LINE",
"534 880 LINE"
);
},
{
closed = 1;
nodes = (
"495 80 LINE",
"475 311 LINE",
"733 311 LINE",
"744 391 LINE",
"469 391 LINE",
"451 606 LINE",
"818 606 LINE",
"830 686 LINE",
"331 686 LINE",
"-43 0 LINE",
"49 0 LINE",
"128 153 LINE",
"397 153 LINE",
"410 0 LINE",
"739 0 LINE",
"751 80 LINE"
);
},
{
closed = 1;
nodes = (
"323 526 LINE SMOOTH",
"335 549 OFFCURVE",
"359 602 OFFCURVE",
"359 602 CURVE",
"363 602 LINE",
"363 602 OFFCURVE",
"365 549 OFFCURVE",
"367 526 CURVE SMOOTH",
"391 233 LINE",
"170 233 LINE"
);
}
);
width = 820;
}
);
unicode = 01FC;
},
{
color = (31,255,0,1);
glyphname = B;
lastChange = "2015-02-05 02:37:04 +0000";
layers = (
{
background = {
paths = (
{
closed = 1;
nodes = (
"131 686 LINE",
"34 0 LINE",
"284 0 LINE SMOOTH",
"396 0 OFFCURVE",
"505 78 OFFCURVE",
"505 206 CURVE SMOOTH",
"505 282 OFFCURVE",
"463 336 OFFCURVE",
"406 356 CURVE",
"407 360 LINE",
"475 382 OFFCURVE",
"536 446 OFFCURVE",
"536 535 CURVE SMOOTH",
"536 626 OFFCURVE",
"470 686 OFFCURVE",
"371 686 CURVE SMOOTH"
);
},
{
closed = 1;
nodes = (
"310 309 LINE SMOOTH",
"376 309 OFFCURVE",
"414 263 OFFCURVE",
"414 205 CURVE SMOOTH",
"414 129 OFFCURVE",
"352 84 OFFCURVE",
"284 84 CURVE SMOOTH",
"134 84 LINE",
"166 309 LINE"
);
},
{
closed = 1;
nodes = (
"349 602 LINE SMOOTH",
"405 602 OFFCURVE",
"440 570 OFFCURVE",
"440 510 CURVE SMOOTH",
"440 447 OFFCURVE",
"391 393 OFFCURVE",
"314 393 CURVE SMOOTH",
"178 393 LINE",
"207 602 LINE"
);
}
);
};
layerId = UUID0;
name = "Regular Italic";
paths = (
{
closed = 1;
nodes = (
"34 0 LINE",
"293 0 LINE SMOOTH",
"400 0 OFFCURVE",
"506 77 OFFCURVE",
"506 206 CURVE SMOOTH",
"506 282 OFFCURVE",
"465 336 OFFCURVE",
"407 356 CURVE",
"408 360 LINE",
"476 383 OFFCURVE",
"537 451 OFFCURVE",
"537 541 CURVE SMOOTH",
"537 629 OFFCURVE",
"471 686 OFFCURVE",
"372 686 CURVE SMOOTH",
"131 686 LINE"
);
},
{
closed = 1;
nodes = (
"311 311 LINE SMOOTH",
"377 311 OFFCURVE",
"415 263 OFFCURVE",
"415 206 CURVE SMOOTH",
"415 125 OFFCURVE",
"355 80 OFFCURVE",
"293 80 CURVE SMOOTH",
"134 80 LINE",
"166 311 LINE"
);
},
{
closed = 1;
nodes = (
"340 606 LINE SMOOTH",
"402 606 OFFCURVE",
"442 578 OFFCURVE",
"442 518 CURVE SMOOTH",
"442 453 OFFCURVE",
"392 391 OFFCURVE",
"314 391 CURVE SMOOTH",
"177 391 LINE",
"207 606 LINE"
);
}
);
width = 547;
}
);
unicode = 0042;
},
{
glyphname = C;
lastChange = "2015-02-05 02:37:04 +0000";
layers = (
{
anchors = (
{
name = bottom;
position = "{256, 0}";
},
{
name = top;
position = "{351, 686}";
}
);
layerId = UUID0;
name = "Regular Italic";
paths = (
{
closed = 1;
nodes = (
"117 698 OFFCURVE",
"51 421 OFFCURVE",
"51 241 CURVE SMOOTH",
"51 67 OFFCURVE",
"142 -12 OFFCURVE",
"285 -12 CURVE SMOOTH",
"437 -12 OFFCURVE",
"523 106 OFFCURVE",
"541 242 CURVE",
"454 242 LINE",
"440 151 OFFCURVE",
"384 70 OFFCURVE",
"282 70 CURVE SMOOTH",
"191 70 OFFCURVE",
"141 133 OFFCURVE",
"141 246 CURVE SMOOTH",
"141 320 OFFCURVE",
"164 617 OFFCURVE",
"352 617 CURVE SMOOTH",
"438 617 OFFCURVE",
"479 563 OFFCURVE",
"479 459 CURVE SMOOTH",
"479 437 LINE",
"570 437 LINE",
"570 453 LINE SMOOTH",
"570 620 OFFCURVE",
"495 698 OFFCURVE",
"353 698 CURVE SMOOTH"
);
}
);
width = 592;
}
);
unicode = 0043;
},
{
glyphname = Cacute;
lastChange = "2015-02-05 02:37:04 +0000";
layers = (
{
layerId = UUID0;
name = "Regular Italic";
paths = (
{
closed = 1;
nodes = (
"117 698 OFFCURVE",
"51 421 OFFCURVE",
"51 241 CURVE SMOOTH",
"51 67 OFFCURVE",
"142 -12 OFFCURVE",
"285 -12 CURVE SMOOTH",
"437 -12 OFFCURVE",
"523 106 OFFCURVE",
"541 242 CURVE",
"454 242 LINE",
"440 151 OFFCURVE",
"384 70 OFFCURVE",
"282 70 CURVE SMOOTH",
"191 70 OFFCURVE",
"141 133 OFFCURVE",
"141 246 CURVE SMOOTH",
"141 320 OFFCURVE",
"164 617 OFFCURVE",
"352 617 CURVE SMOOTH",
"438 617 OFFCURVE",
"479 563 OFFCURVE",
"479 459 CURVE SMOOTH",
"479 437 LINE",
"570 437 LINE",
"570 453 LINE SMOOTH",
"570 620 OFFCURVE",
"495 698 OFFCURVE",
"353 698 CURVE SMOOTH"
);
},
{
closed = 1;
nodes = (
"484 883 LINE",
"394 883 LINE",
"308 751 LINE",
"377 751 LINE",
"485 880 LINE"
);
}
);
width = 592;
}
);
unicode = 0106;
},
{
glyphname = Ccaron;
lastChange = "2015-02-05 02:37:04 +0000";
layers = (
{
layerId = UUID0;
name = "Regular Italic";
paths = (
{
closed = 1;
nodes = (
"117 698 OFFCURVE",
"51 421 OFFCURVE",
"51 241 CURVE SMOOTH",
"51 67 OFFCURVE",
"142 -12 OFFCURVE",
"285 -12 CURVE SMOOTH",
"437 -12 OFFCURVE",
"523 106 OFFCURVE",
"541 242 CURVE",
"454 242 LINE",
"440 151 OFFCURVE",
"384 70 OFFCURVE",
"282 70 CURVE SMOOTH",
"191 70 OFFCURVE",
"141 133 OFFCURVE",
"141 246 CURVE SMOOTH",
"141 320 OFFCURVE",
"164 617 OFFCURVE",
"352 617 CURVE SMOOTH",
"438 617 OFFCURVE",
"479 563 OFFCURVE",
"479 459 CURVE SMOOTH",
"479 437 LINE",
"570 437 LINE",
"570 453 LINE SMOOTH",
"570 620 OFFCURVE",
"495 698 OFFCURVE",
"353 698 CURVE SMOOTH"
);
},
{
closed = 1;
nodes = (
"501 883 LINE",
"418 883 LINE",
"366 804 LINE",
"333 883 LINE",
"253 883 LINE",
"319 748 LINE",
"396 748 LINE"
);
}
);
width = 592;
}
);
unicode = 010C;
},
{
glyphname = Ccedilla;
lastChange = "2015-02-05 02:37:04 +0000";
layers = (
{
layerId = UUID0;
name = "Regular Italic";
paths = (
{
closed = 1;
nodes = (
"479 437 LINE",
"570 437 LINE",
"570 453 LINE SMOOTH",
"570 620 OFFCURVE",
"495 698 OFFCURVE",
"353 698 CURVE SMOOTH",
"117 698 OFFCURVE",
"51 421 OFFCURVE",
"51 241 CURVE SMOOTH",
"51 92 OFFCURVE",
"118 13 OFFCURVE",
"226 -7 CURVE",
"206 -77 LINE",
"239 -77 LINE SMOOTH",
"261 -77 OFFCURVE",
"270 -83 OFFCURVE",
"270 -95 CURVE SMOOTH",
"270 -119 OFFCURVE",
"253 -125 OFFCURVE",
"229 -125 CURVE SMOOTH",
"153 -125 LINE",
"146 -174 LINE",
"169 -179 OFFCURVE",
"202 -182 OFFCURVE",
"229 -182 CURVE SMOOTH",
"271 -182 OFFCURVE",
"346 -167 OFFCURVE",
"346 -90 CURVE SMOOTH",
"346 -53 OFFCURVE",
"312 -39 OFFCURVE",
"272 -36 CURVE",
"280 -12 LINE",
"285 -12 LINE SMOOTH",
"437 -12 OFFCURVE",
"523 106 OFFCURVE",
"541 242 CURVE",
"454 242 LINE",
"440 151 OFFCURVE",
"384 70 OFFCURVE",
"282 70 CURVE SMOOTH",
"191 70 OFFCURVE",
"141 133 OFFCURVE",
"141 246 CURVE SMOOTH",
"141 320 OFFCURVE",
"164 617 OFFCURVE",
"352 617 CURVE SMOOTH",
"438 617 OFFCURVE",
"479 563 OFFCURVE",
"479 459 CURVE SMOOTH"
);
}
);
width = 592;
}
);
unicode = 00C7;
},
{
glyphname = Ccircumflex;
lastChange = "2015-02-05 02:37:04 +0000";
layers = (
{
layerId = UUID0;
name = "Regular Italic";
paths = (
{
closed = 1;
nodes = (
"117 698 OFFCURVE",
"51 421 OFFCURVE",
"51 241 CURVE SMOOTH",
"51 67 OFFCURVE",
"142 -12 OFFCURVE",
"285 -12 CURVE SMOOTH",
"437 -12 OFFCURVE",
"523 106 OFFCURVE",
"541 242 CURVE",
"454 242 LINE",
"440 151 OFFCURVE",
"384 70 OFFCURVE",
"282 70 CURVE SMOOTH",
"191 70 OFFCURVE",
"141 133 OFFCURVE",
"141 246 CURVE SMOOTH",
"141 320 OFFCURVE",
"164 617 OFFCURVE",
"352 617 CURVE SMOOTH",
"438 617 OFFCURVE",
"479 563 OFFCURVE",
"479 459 CURVE SMOOTH",
"479 437 LINE",
"570 437 LINE",
"570 453 LINE SMOOTH",
"570 620 OFFCURVE",
"495 698 OFFCURVE",
"353 698 CURVE SMOOTH"
);
},
{
closed = 1;
nodes = (
"415 883 LINE",
"336 883 LINE",
"231 748 LINE",
"314 748 LINE",
"371 827 LINE",
"403 748 LINE",
"480 748 LINE"
);
}
);
width = 592;
}
);
unicode = 0108;
},
{
glyphname = Cdotaccent;
lastChange = "2015-02-05 02:37:04 +0000";
layers = (
{
layerId = UUID0;
name = "Regular Italic";
paths = (
{
closed = 1;
nodes = (
"117 698 OFFCURVE",
"51 421 OFFCURVE",
"51 241 CURVE SMOOTH",
"51 67 OFFCURVE",
"142 -12 OFFCURVE",
"285 -12 CURVE SMOOTH",
"437 -12 OFFCURVE",
"523 106 OFFCURVE",
"541 242 CURVE",
"454 242 LINE",
"440 151 OFFCURVE",
"384 70 OFFCURVE",
"282 70 CURVE SMOOTH",
"191 70 OFFCURVE",
"141 133 OFFCURVE",
"141 246 CURVE SMOOTH",
"141 320 OFFCURVE",
"164 617 OFFCURVE",
"352 617 CURVE SMOOTH",
"438 617 OFFCURVE",
"479 563 OFFCURVE",
"479 459 CURVE SMOOTH",
"479 437 LINE",
"570 437 LINE",
"570 453 LINE SMOOTH",
"570 620 OFFCURVE",
"495 698 OFFCURVE",
"353 698 CURVE SMOOTH"
);
},
{
closed = 1;
nodes = (
"422 883 LINE",
"335 883 LINE",
"322 788 LINE",
"409 788 LINE"
);
}
);
width = 592;
}
);
unicode = 010A;
},
{
color = (31,255,0,1);
glyphname = D;
lastChange = "2015-02-05 02:37:04 +0000";
layers = (
{
anchors = (
{
name = center;
position = "{276, 343}";
},
{
name = top;
position = "{324, 686}";
}
);
background = {
paths = (
{
closed = 1;
nodes = (
"131 686 LINE",
"34 0 LINE",
"247 0 LINE SMOOTH",
"480 0 OFFCURVE",
"563 242 OFFCURVE",
"563 431 CURVE SMOOTH",
"563 600 OFFCURVE",
"479 686 OFFCURVE",
"334 686 CURVE SMOOTH"
);
},
{
closed = 1;
nodes = (
"324 602 LINE SMOOTH",
"417 602 OFFCURVE",
"472 544 OFFCURVE",
"472 429 CURVE SMOOTH",
"472 287 OFFCURVE",
"425 84 OFFCURVE",
"251 84 CURVE SMOOTH",
"134 84 LINE",
"207 602 LINE"
);
}
);
};
layerId = UUID0;
name = "Regular Italic";
paths = (
{
closed = 1;
nodes = (
"265 0 LINE SMOOTH",
"484 0 OFFCURVE",
"563 251 OFFCURVE",
"563 429 CURVE SMOOTH",
"563 600 OFFCURVE",
"479 686 OFFCURVE",
"334 686 CURVE SMOOTH",
"131 686 LINE",
"34 0 LINE"
);
},
{
closed = 1;
nodes = (
"324 606 LINE SMOOTH",
"417 606 OFFCURVE",
"472 548 OFFCURVE",
"472 428 CURVE SMOOTH",
"472 288 OFFCURVE",
"427 80 OFFCURVE",
"255 80 CURVE SMOOTH",
"134 80 LINE",
"207 606 LINE"
);
}
);
width = 592;
}
);
unicode = 0044;
},
{
color = (31,255,0,1);
glyphname = Eth;
lastChange = "2015-02-05 02:37:04 +0000";
layers = (
{
background = {
paths = (
{
closed = 1;
nodes = (
"131 686 LINE",
"88 387 LINE",
"23 387 LINE",
"14 323 LINE",
"79 323 LINE",
"34 0 LINE",
"247 0 LINE SMOOTH",
"480 0 OFFCURVE",
"563 242 OFFCURVE",
"563 431 CURVE SMOOTH",
"563 600 OFFCURVE",
"479 686 OFFCURVE",
"334 686 CURVE SMOOTH"
);
},
{
closed = 1;
nodes = (
"324 602 LINE SMOOTH",
"417 602 OFFCURVE",
"472 544 OFFCURVE",
"472 429 CURVE SMOOTH",
"472 287 OFFCURVE",
"425 84 OFFCURVE",
"251 84 CURVE SMOOTH",
"134 84 LINE",
"167 323 LINE",
"324 323 LINE",
"333 387 LINE",
"176 387 LINE",
"207 602 LINE"
);
}
);
};
layerId = UUID0;
name = "Regular Italic";
paths = (
{
closed = 1;
nodes = (
"265 0 LINE SMOOTH",
"484 0 OFFCURVE",
"563 251 OFFCURVE",
"563 429 CURVE SMOOTH",
"563 600 OFFCURVE",
"479 686 OFFCURVE",
"334 686 CURVE SMOOTH",
"131 686 LINE",
"88 387 LINE",
"23 387 LINE",
"14 323 LINE",
"79 323 LINE",
"34 0 LINE"
);
},
{
closed = 1;
nodes = (
"324 606 LINE SMOOTH",
"417 606 OFFCURVE",
"472 548 OFFCURVE",
"472 428 CURVE SMOOTH",
"472 288 OFFCURVE",
"427 80 OFFCURVE",
"255 80 CURVE SMOOTH",
"134 80 LINE",
"167 323 LINE",
"324 323 LINE",
"333 387 LINE",
"176 387 LINE",
"207 606 LINE"
);
}
);
width = 592;
}
);
unicode = 00D0;
},
{
color = (31,255,0,1);
glyphname = Dcaron;
lastChange = "2015-02-05 02:37:04 +0000";
layers = (
{
background = {
paths = (
{
closed = 1;
nodes = (
"131 686 LINE",
"34 0 LINE",
"247 0 LINE SMOOTH",
"480 0 OFFCURVE",
"563 242 OFFCURVE",
"563 431 CURVE SMOOTH",
"563 600 OFFCURVE",
"479 686 OFFCURVE",
"334 686 CURVE SMOOTH"
);
},
{
closed = 1;
nodes = (
"324 602 LINE SMOOTH",
"417 602 OFFCURVE",
"472 544 OFFCURVE",
"472 429 CURVE SMOOTH",
"472 287 OFFCURVE",
"425 84 OFFCURVE",
"251 84 CURVE SMOOTH",
"134 84 LINE",
"207 602 LINE"
);
}
);
};
layerId = UUID0;
name = "Regular Italic";
paths = (
{
closed = 1;
nodes = (
"475 883 LINE",
"392 883 LINE",
"339 804 LINE",
"306 883 LINE",
"226 883 LINE",
"292 748 LINE",
"370 748 LINE"
);
},
{
closed = 1;
nodes = (
"265 0 LINE SMOOTH",
"484 0 OFFCURVE",
"563 251 OFFCURVE",
"563 429 CURVE SMOOTH",
"563 600 OFFCURVE",
"479 686 OFFCURVE",
"334 686 CURVE SMOOTH",
"131 686 LINE",
"34 0 LINE"
);
},
{
closed = 1;
nodes = (
"324 606 LINE SMOOTH",
"417 606 OFFCURVE",
"472 548 OFFCURVE",
"472 428 CURVE SMOOTH",
"472 288 OFFCURVE",
"427 80 OFFCURVE",
"255 80 CURVE SMOOTH",
"134 80 LINE",
"207 606 LINE"
);
}
);
width = 592;
}
);
unicode = 010E;
},
{
color = (31,255,0,1);
glyphname = Dcroat;
lastChange = "2015-02-05 02:37:04 +0000";
layers = (
{
background = {
paths = (
{
closed = 1;
nodes = (
"131 686 LINE",
"88 387 LINE",
"23 387 LINE",
"14 323 LINE",
"79 323 LINE",
"34 0 LINE",
"247 0 LINE SMOOTH",
"480 0 OFFCURVE",
"563 242 OFFCURVE",
"563 431 CURVE SMOOTH",
"563 600 OFFCURVE",
"479 686 OFFCURVE",
"334 686 CURVE SMOOTH"
);
},
{
closed = 1;
nodes = (
"324 602 LINE SMOOTH",
"417 602 OFFCURVE",
"472 544 OFFCURVE",
"472 429 CURVE SMOOTH",
"472 287 OFFCURVE",
"425 84 OFFCURVE",
"251 84 CURVE SMOOTH",
"134 84 LINE",
"167 323 LINE",
"324 323 LINE",
"333 387 LINE",
"176 387 LINE",
"207 602 LINE"
);
}
);
};
layerId = UUID0;
name = "Regular Italic";
paths = (
{
closed = 1;
nodes = (
"265 0 LINE SMOOTH",
"484 0 OFFCURVE",
"563 251 OFFCURVE",
"563 429 CURVE SMOOTH",
"563 600 OFFCURVE",
"479 686 OFFCURVE",
"334 686 CURVE SMOOTH",
"131 686 LINE",
"88 387 LINE",
"23 387 LINE",
"14 323 LINE",
"79 323 LINE",
"34 0 LINE"
);
},
{
closed = 1;
nodes = (
"324 606 LINE SMOOTH",
"417 606 OFFCURVE",
"472 548 OFFCURVE",
"472 428 CURVE SMOOTH",
"472 288 OFFCURVE",
"427 80 OFFCURVE",
"255 80 CURVE SMOOTH",
"134 80 LINE",
"167 323 LINE",
"324 323 LINE",
"333 387 LINE",
"176 387 LINE",
"207 606 LINE"
);
}
);
width = 592;
}
);
unicode = 0110;
},
{
color = (31,255,0,1);
glyphname = E;
lastChange = "2015-02-05 02:37:04 +0000";
layers = (
{
anchors = (
{
name = bottom;
position = "{230, 0}";
},
{
name = ogonek;
position = "{482, 0}";
},
{
name = top;
position = "{327, 686}";
}
);
background = {
paths = (
{
closed = 1;
nodes = (
"560 686 LINE",
"131 686 LINE",
"34 0 LINE",
"482 0 LINE",
"470 84 LINE",
"134 84 LINE",
"166 309 LINE",
"467 309 LINE",
"479 393 LINE",
"178 393 LINE",
"207 602 LINE",
"535 602 LINE"
);
}
);
};
layerId = UUID0;
name = "Regular Italic";
paths = (
{
closed = 1;
nodes = (
"463 0 LINE",
"475 80 LINE",
"134 80 LINE",
"166 311 LINE",
"457 311 LINE",
"468 391 LINE",
"177 391 LINE",
"207 606 LINE",
"542 606 LINE",
"554 686 LINE",
"131 686 LINE",
"34 0 LINE"
);
}
);
width = 547;
}
);
unicode = 0045;
},
{
color = (31,255,0,1);
glyphname = Eacute;
lastChange = "2015-02-05 02:37:04 +0000";
layers = (
{
background = {
paths = (
{
closed = 1;
nodes = (
"560 686 LINE",
"131 686 LINE",
"34 0 LINE",
"482 0 LINE",
"470 84 LINE",
"134 84 LINE",
"166 309 LINE",
"467 309 LINE",
"479 393 LINE",
"178 393 LINE",
"207 602 LINE",
"535 602 LINE"
);
}
);
};
layerId = UUID0;
name = "Regular Italic";
paths = (
{
closed = 1;
nodes = (
"459 883 LINE",
"369 883 LINE",
"283 751 LINE",
"353 751 LINE",
"460 880 LINE"
);
},
{
closed = 1;
nodes = (
"463 0 LINE",
"475 80 LINE",
"134 80 LINE",
"166 311 LINE",
"457 311 LINE",
"468 391 LINE",
"177 391 LINE",
"207 606 LINE",
"542 606 LINE",
"554 686 LINE",
"131 686 LINE",
"34 0 LINE"
);
}
);
width = 547;
}
);
unicode = 00C9;
},
{
color = (31,255,0,1);
glyphname = Ebreve;
lastChange = "2015-02-05 02:37:04 +0000";
layers = (
{
background = {
paths = (
{
closed = 1;
nodes = (
"560 686 LINE",
"131 686 LINE",
"34 0 LINE",
"482 0 LINE",
"470 84 LINE",
"134 84 LINE",
"166 309 LINE",
"467 309 LINE",
"479 393 LINE",
"178 393 LINE",
"207 602 LINE",
"535 602 LINE"
);
}
);
};
layerId = UUID0;
name = "Regular Italic";
paths = (
{
closed = 1;
nodes = (
"414 883 LINE",
"410 869 OFFCURVE",
"384 850 OFFCURVE",
"350 850 CURVE SMOOTH",
"317 850 OFFCURVE",
"296 869 OFFCURVE",
"295 883 CURVE",
"231 883 LINE",
"230 880 OFFCURVE",
"230 877 OFFCURVE",
"230 874 CURVE SMOOTH",
"230 831 OFFCURVE",
"272 786 OFFCURVE",
"346 786 CURVE SMOOTH",
"420 786 OFFCURVE",
"472 838 OFFCURVE",
"478 883 CURVE"
);
},
{
closed = 1;
nodes = (
"463 0 LINE",
"475 80 LINE",
"134 80 LINE",
"166 311 LINE",
"457 311 LINE",
"468 391 LINE",
"177 391 LINE",
"207 606 LINE",
"542 606 LINE",
"554 686 LINE",
"131 686 LINE",
"34 0 LINE"
);
}
);
width = 547;
}
);
unicode = 0114;
},
{
color = (31,255,0,1);
glyphname = Ecaron;
lastChange = "2015-02-05 02:37:04 +0000";
layers = (
{
background = {
paths = (
{
closed = 1;
nodes = (
"560 686 LINE",
"131 686 LINE",
"34 0 LINE",
"482 0 LINE",
"470 84 LINE",
"134 84 LINE",
"166 309 LINE",
"467 309 LINE",
"479 393 LINE",
"178 393 LINE",
"207 602 LINE",
"535 602 LINE"
);
}
);
};
layerId = UUID0;
name = "Regular Italic";
paths = (
{
closed = 1;
nodes = (
"477 883 LINE",
"394 883 LINE",
"341 804 LINE",
"308 883 LINE",
"229 883 LINE",
"294 748 LINE",
"372 748 LINE"
);
},
{
closed = 1;
nodes = (
"463 0 LINE",
"475 80 LINE",
"134 80 LINE",
"166 311 LINE",
"457 311 LINE",
"468 391 LINE",
"177 391 LINE",
"207 606 LINE",
"542 606 LINE",
"554 686 LINE",
"131 686 LINE",
"34 0 LINE"
);
}
);
width = 547;
}
);
unicode = 011A;
},
{
color = (31,255,0,1);
glyphname = Ecircumflex;
lastChange = "2015-02-05 02:37:04 +0000";
layers = (
{
background = {
paths = (
{
closed = 1;
nodes = (
"560 686 LINE",
"131 686 LINE",
"34 0 LINE",
"482 0 LINE",
"470 84 LINE",
"134 84 LINE",
"166 309 LINE",
"467 309 LINE",
"479 393 LINE",
"178 393 LINE",
"207 602 LINE",
"535 602 LINE"
);
}
);
};
layerId = UUID0;
name = "Regular Italic";
paths = (
{
closed = 1;
nodes = (
"390 883 LINE",
"312 883 LINE",
"207 748 LINE",
"290 748 LINE",
"346 827 LINE",
"379 748 LINE",
"456 748 LINE"
);
},
{
closed = 1;
nodes = (
"463 0 LINE",
"475 80 LINE",
"134 80 LINE",
"166 311 LINE",
"457 311 LINE",
"468 391 LINE",
"177 391 LINE",
"207 606 LINE",
"542 606 LINE",
"554 686 LINE",
"131 686 LINE",
"34 0 LINE"
);
}
);
width = 547;
}
);
unicode = 00CA;
},
{
color = (31,255,0,1);
glyphname = Edieresis;
lastChange = "2015-02-05 02:37:04 +0000";
layers = (
{
background = {
paths = (
{
closed = 1;
nodes = (
"560 686 LINE",
"131 686 LINE",
"34 0 LINE",
"482 0 LINE",
"470 84 LINE",
"134 84 LINE",
"166 309 LINE",
"467 309 LINE",
"479 393 LINE",
"178 393 LINE",
"207 602 LINE",
"535 602 LINE"
);
}
);
};
layerId = UUID0;
name = "Regular Italic";
paths = (
{
closed = 1;
nodes = (
"474 883 LINE",
"387 883 LINE",
"374 788 LINE",
"461 788 LINE"
);
},
{
closed = 1;
nodes = (
"324 883 LINE",
"237 883 LINE",
"224 788 LINE",
"311 788 LINE"
);
},
{
closed = 1;
nodes = (
"463 0 LINE",
"475 80 LINE",
"134 80 LINE",
"166 311 LINE",
"457 311 LINE",
"468 391 LINE",
"177 391 LINE",
"207 606 LINE",
"542 606 LINE",
"554 686 LINE",
"131 686 LINE",
"34 0 LINE"
);
}
);
width = 547;
}
);
unicode = 00CB;
},
{
color = (31,255,0,1);
glyphname = Edotaccent;
lastChange = "2015-02-05 02:37:04 +0000";
layers = (
{
background = {
paths = (
{
closed = 1;
nodes = (
"560 686 LINE",
"131 686 LINE",
"34 0 LINE",
"482 0 LINE",
"470 84 LINE",
"134 84 LINE",
"166 309 LINE",
"467 309 LINE",
"479 393 LINE",
"178 393 LINE",
"207 602 LINE",
"535 602 LINE"
);
}
);
};
layerId = UUID0;
name = "Regular Italic";
paths = (
{
closed = 1;
nodes = (
"398 883 LINE",
"311 883 LINE",
"298 788 LINE",
"385 788 LINE"
);
},
{
closed = 1;
nodes = (
"463 0 LINE",
"475 80 LINE",
"134 80 LINE",
"166 311 LINE",
"457 311 LINE",
"468 391 LINE",
"177 391 LINE",
"207 606 LINE",
"542 606 LINE",
"554 686 LINE",
"131 686 LINE",
"34 0 LINE"
);
}
);
width = 547;
}
);
unicode = 0116;
},
{
color = (31,255,0,1);
glyphname = Egrave;
lastChange = "2015-02-05 02:37:04 +0000";
layers = (
{
background = {
paths = (
{
closed = 1;
nodes = (
"560 686 LINE",
"131 686 LINE",
"34 0 LINE",
"482 0 LINE",
"470 84 LINE",
"134 84 LINE",
"166 309 LINE",
"467 309 LINE",
"479 393 LINE",
"178 393 LINE",
"207 602 LINE",
"535 602 LINE"
);
}
);
};
layerId = UUID0;
name = "Regular Italic";
paths = (
{
closed = 1;
nodes = (
"328 883 LINE",
"238 883 LINE",
"236 880 LINE",
"326 751 LINE",
"396 751 LINE"
);
},
{
closed = 1;
nodes = (
"463 0 LINE",
"475 80 LINE",
"134 80 LINE",
"166 311 LINE",
"457 311 LINE",
"468 391 LINE",
"177 391 LINE",
"207 606 LINE",
"542 606 LINE",
"554 686 LINE",
"131 686 LINE",
"34 0 LINE"
);
}
);
width = 547;
}
);
unicode = 00C8;
},
{
color = (31,255,0,1);
glyphname = Emacron;
lastChange = "2015-02-05 02:37:04 +0000";
layers = (
{
background = {
paths = (
{
closed = 1;
nodes = (
"560 686 LINE",
"131 686 LINE",
"34 0 LINE",
"482 0 LINE",
"470 84 LINE",
"134 84 LINE",
"166 309 LINE",
"467 309 LINE",
"479 393 LINE",
"178 393 LINE",
"207 602 LINE",
"535 602 LINE"
);
}
);
};
layerId = UUID0;
name = "Regular Italic";
paths = (
{
closed = 1;
nodes = (
"469 831 LINE",
"219 831 LINE",
"208 759 LINE",
"458 759 LINE"
);
},
{
closed = 1;
nodes = (
"463 0 LINE",
"475 80 LINE",
"134 80 LINE",
"166 311 LINE",
"457 311 LINE",
"468 391 LINE",
"177 391 LINE",
"207 606 LINE",
"542 606 LINE",
"554 686 LINE",
"131 686 LINE",
"34 0 LINE"
);
}
);
width = 547;
}
);
unicode = 0112;
},
{
color = (31,255,0,1);
glyphname = Eogonek;
lastChange = "2015-02-05 02:37:04 +0000";
layers = (
{
background = {
paths = (
{
closed = 1;
nodes = (
"463 0 LINE",
"475 80 LINE",
"134 80 LINE",
"166 311 LINE",
"457 311 LINE",
"468 391 LINE",
"177 391 LINE",
"207 606 LINE",
"542 606 LINE",
"554 686 LINE",
"131 686 LINE",
"34 0 LINE"
);
}
);
};
layerId = UUID0;
name = "Regular Italic";
paths = (
{
closed = 1;
nodes = (
"207 606 LINE",
"542 606 LINE",
"554 686 LINE",
"131 686 LINE",
"34 0 LINE",
"398 0 LINE",
"369 -26 OFFCURVE",
"340 -59 OFFCURVE",
"340 -111 CURVE SMOOTH",
"340 -172 OFFCURVE",
"381 -190 OFFCURVE",
"422 -190 CURVE SMOOTH",
"442 -190 OFFCURVE",
"463 -185 OFFCURVE",
"485 -176 CURVE",
"492 -125 LINE",
"460 -125 LINE SMOOTH",
"432 -125 OFFCURVE",
"422 -106 OFFCURVE",
"422 -83 CURVE SMOOTH",
"422 -50 OFFCURVE",
"446 -17 OFFCURVE",
"463 0 CURVE",
"475 80 LINE",
"134 80 LINE",
"166 311 LINE",
"457 311 LINE",
"468 391 LINE",
"177 391 LINE"
);
}
);
width = 547;
}
);
unicode = 0118;
},
{
color = (31,255,0,1);
glyphname = F;
lastChange = "2015-02-05 02:37:04 +0000";
layers = (
{
background = {
paths = (
{
closed = 1;
nodes = (
"533 686 LINE",
"131 686 LINE",
"34 0 LINE",
"122 0 LINE",
"165 302 LINE",
"439 302 LINE",
"451 386 LINE",
"177 386 LINE",
"207 602 LINE",
"508 602 LINE"
);
}
);
};
layerId = UUID0;
name = "Regular Italic";
paths = (
{
closed = 1;
nodes = (
"122 0 LINE",
"165 304 LINE",
"437 304 LINE",
"448 384 LINE",
"176 384 LINE",
"207 606 LINE",
"515 606 LINE",
"527 686 LINE",
"131 686 LINE",
"34 0 LINE"
);
}
);
width = 501;
}
);
unicode = 0046;
},
{
color = (31,255,0,1);
glyphname = G;
lastChange = "2015-02-05 02:37:04 +0000";
layers = (
{
anchors = (
{
name = bottom;
position = "{297, 0}";
},
{
name = top;
position = "{370, 686}";
}
);
background = {
paths = (
{
closed = 1;
nodes = (
"119 698 OFFCURVE",
"50 421 OFFCURVE",
"50 241 CURVE SMOOTH",
"50 67 OFFCURVE",
"142 -12 OFFCURVE",
"285 -12 CURVE SMOOTH",
"365 -12 OFFCURVE",
"425 22 OFFCURVE",
"467 76 CURVE",
"475 0 LINE",
"533 0 LINE",
"584 359 LINE",
"316 359 LINE",
"304 278 LINE",
"484 278 LINE",
"478 242 LINE SMOOTH",
"463 150 OFFCURVE",
"404 70 OFFCURVE",
"293 70 CURVE SMOOTH",
"189 70 OFFCURVE",
"140 133 OFFCURVE",
"140 246 CURVE SMOOTH",
"140 335 OFFCURVE",
"166 617 OFFCURVE",
"363 617 CURVE SMOOTH",
"460 617 OFFCURVE",
"505 563 OFFCURVE",
"505 459 CURVE SMOOTH",
"505 452 LINE",
"596 452 LINE",
"596 619 OFFCURVE",
"517 698 OFFCURVE",
"364 698 CURVE SMOOTH"
);
}
);
};
layerId = UUID0;
name = "Regular Italic";
paths = (
{
closed = 1;
nodes = (
"475 0 LINE",
"533 0 LINE",
"584 357 LINE",
"315 357 LINE",
"304 280 LINE",
"484 280 LINE",
"478 242 LINE SMOOTH",
"463 150 OFFCURVE",
"404 70 OFFCURVE",
"293 70 CURVE SMOOTH",
"189 70 OFFCURVE",
"140 133 OFFCURVE",
"140 246 CURVE SMOOTH",
"140 335 OFFCURVE",
"166 617 OFFCURVE",
"363 617 CURVE SMOOTH",
"460 617 OFFCURVE",
"505 563 OFFCURVE",
"505 459 CURVE SMOOTH",
"505 452 LINE",
"596 452 LINE",
"596 619 OFFCURVE",
"517 698 OFFCURVE",
"364 698 CURVE SMOOTH",
"119 698 OFFCURVE",
"50 421 OFFCURVE",
"50 241 CURVE SMOOTH",
"50 67 OFFCURVE",
"142 -12 OFFCURVE",
"285 -12 CURVE SMOOTH",
"365 -12 OFFCURVE",
"425 22 OFFCURVE",
"467 76 CURVE"
);
}
);
width = 638;
}
);
unicode = 0047;
},
{
color = (31,255,0,1);
glyphname = Gbreve;
lastChange = "2015-02-05 02:37:04 +0000";
layers = (
{
background = {
paths = (
{
closed = 1;
nodes = (
"119 698 OFFCURVE",
"50 421 OFFCURVE",
"50 241 CURVE SMOOTH",
"50 67 OFFCURVE",
"142 -12 OFFCURVE",
"285 -12 CURVE SMOOTH",
"365 -12 OFFCURVE",
"425 22 OFFCURVE",
"467 76 CURVE",
"475 0 LINE",
"533 0 LINE",
"584 359 LINE",
"316 359 LINE",
"304 278 LINE",
"484 278 LINE",
"478 242 LINE SMOOTH",
"463 150 OFFCURVE",
"404 70 OFFCURVE",
"293 70 CURVE SMOOTH",
"189 70 OFFCURVE",
"140 133 OFFCURVE",
"140 246 CURVE SMOOTH",
"140 335 OFFCURVE",
"166 617 OFFCURVE",
"363 617 CURVE SMOOTH",
"460 617 OFFCURVE",
"505 563 OFFCURVE",
"505 459 CURVE SMOOTH",
"505 452 LINE",
"596 452 LINE",
"596 619 OFFCURVE",
"517 698 OFFCURVE",
"364 698 CURVE SMOOTH"
);
}
);
};
layerId = UUID0;
name = "Regular Italic";
paths = (
{
closed = 1;
nodes = (
"457 883 LINE",
"453 869 OFFCURVE",
"427 850 OFFCURVE",
"393 850 CURVE SMOOTH",
"360 850 OFFCURVE",
"339 869 OFFCURVE",
"338 883 CURVE",
"274 883 LINE",
"273 880 OFFCURVE",
"273 877 OFFCURVE",
"273 874 CURVE SMOOTH",
"273 831 OFFCURVE",
"315 786 OFFCURVE",
"389 786 CURVE SMOOTH",
"463 786 OFFCURVE",
"515 838 OFFCURVE",
"521 883 CURVE"
);
},
{
closed = 1;
nodes = (
"475 0 LINE",
"533 0 LINE",
"584 357 LINE",
"315 357 LINE",
"304 280 LINE",
"484 280 LINE",
"478 242 LINE SMOOTH",
"463 150 OFFCURVE",
"404 70 OFFCURVE",
"293 70 CURVE SMOOTH",
"189 70 OFFCURVE",
"140 133 OFFCURVE",
"140 246 CURVE SMOOTH",
"140 335 OFFCURVE",
"166 617 OFFCURVE",
"363 617 CURVE SMOOTH",
"460 617 OFFCURVE",
"505 563 OFFCURVE",
"505 459 CURVE SMOOTH",
"505 452 LINE",
"596 452 LINE",
"596 619 OFFCURVE",
"517 698 OFFCURVE",
"364 698 CURVE SMOOTH",
"119 698 OFFCURVE",
"50 421 OFFCURVE",
"50 241 CURVE SMOOTH",
"50 67 OFFCURVE",
"142 -12 OFFCURVE",
"285 -12 CURVE SMOOTH",
"365 -12 OFFCURVE",
"425 22 OFFCURVE",
"467 76 CURVE"
);
}
);
width = 638;
}
);
unicode = 011E;
},
{
color = (31,255,0,1);
glyphname = Gcircumflex;
lastChange = "2015-02-05 02:37:04 +0000";
layers = (
{
background = {
paths = (
{
closed = 1;
nodes = (
"119 698 OFFCURVE",
"50 421 OFFCURVE",
"50 241 CURVE SMOOTH",
"50 67 OFFCURVE",
"142 -12 OFFCURVE",
"285 -12 CURVE SMOOTH",
"365 -12 OFFCURVE",
"425 22 OFFCURVE",
"467 76 CURVE",
"475 0 LINE",
"533 0 LINE",
"584 359 LINE",
"316 359 LINE",
"304 278 LINE",
"484 278 LINE",
"478 242 LINE SMOOTH",
"463 150 OFFCURVE",
"404 70 OFFCURVE",
"293 70 CURVE SMOOTH",
"189 70 OFFCURVE",
"140 133 OFFCURVE",
"140 246 CURVE SMOOTH",
"140 335 OFFCURVE",
"166 617 OFFCURVE",
"363 617 CURVE SMOOTH",
"460 617 OFFCURVE",
"505 563 OFFCURVE",
"505 459 CURVE SMOOTH",
"505 452 LINE",
"596 452 LINE",
"596 619 OFFCURVE",
"517 698 OFFCURVE",
"364 698 CURVE SMOOTH"
);
}
);
};
layerId = UUID0;
name = "Regular Italic";
paths = (
{
closed = 1;
nodes = (
"433 883 LINE",
"355 883 LINE",
"250 748 LINE",
"333 748 LINE",
"389 827 LINE",
"422 748 LINE",
"499 748 LINE"
);
},
{
closed = 1;
nodes = (
"475 0 LINE",
"533 0 LINE",
"584 357 LINE",
"315 357 LINE",
"304 280 LINE",
"484 280 LINE",
"478 242 LINE SMOOTH",
"463 150 OFFCURVE",
"404 70 OFFCURVE",
"293 70 CURVE SMOOTH",
"189 70 OFFCURVE",
"140 133 OFFCURVE",
"140 246 CURVE SMOOTH",
"140 335 OFFCURVE",
"166 617 OFFCURVE",
"363 617 CURVE SMOOTH",
"460 617 OFFCURVE",
"505 563 OFFCURVE",
"505 459 CURVE SMOOTH",
"505 452 LINE",
"596 452 LINE",
"596 619 OFFCURVE",
"517 698 OFFCURVE",
"364 698 CURVE SMOOTH",
"119 698 OFFCURVE",
"50 421 OFFCURVE",
"50 241 CURVE SMOOTH",
"50 67 OFFCURVE",
"142 -12 OFFCURVE",
"285 -12 CURVE SMOOTH",
"365 -12 OFFCURVE",
"425 22 OFFCURVE",
"467 76 CURVE"
);
}
);
width = 638;
}
);
unicode = 011C;
},
{
color = (31,255,0,1);
glyphname = Gcommaaccent;
lastChange = "2015-02-05 02:37:04 +0000";
layers = (
{
background = {
paths = (
{
closed = 1;
nodes = (
"119 698 OFFCURVE",
"50 421 OFFCURVE",
"50 241 CURVE SMOOTH",
"50 67 OFFCURVE",
"142 -12 OFFCURVE",
"285 -12 CURVE SMOOTH",
"365 -12 OFFCURVE",
"425 22 OFFCURVE",
"467 76 CURVE",
"475 0 LINE",
"533 0 LINE",
"584 359 LINE",
"316 359 LINE",
"304 278 LINE",
"484 278 LINE",
"478 242 LINE SMOOTH",
"463 150 OFFCURVE",
"404 70 OFFCURVE",
"293 70 CURVE SMOOTH",
"189 70 OFFCURVE",
"140 133 OFFCURVE",
"140 246 CURVE SMOOTH",
"140 335 OFFCURVE",
"166 617 OFFCURVE",
"363 617 CURVE SMOOTH",
"460 617 OFFCURVE",
"505 563 OFFCURVE",
"505 459 CURVE SMOOTH",
"505 452 LINE",
"596 452 LINE",
"596 619 OFFCURVE",
"517 698 OFFCURVE",
"364 698 CURVE SMOOTH"
);
}
);
};
layerId = UUID0;
name = "Regular Italic";
paths = (
{
closed = 1;
nodes = (
"332 -60 LINE",
"247 -60 LINE",
"233 -151 LINE",
"268 -151 LINE",
"236 -220 LINE",
"284 -220 LINE",
"319 -144 LINE"
);
},
{
closed = 1;
nodes = (
"475 0 LINE",
"533 0 LINE",
"584 357 LINE",
"315 357 LINE",
"304 280 LINE",
"484 280 LINE",
"478 242 LINE SMOOTH",
"463 150 OFFCURVE",
"404 70 OFFCURVE",
"293 70 CURVE SMOOTH",
"189 70 OFFCURVE",
"140 133 OFFCURVE",
"140 246 CURVE SMOOTH",
"140 335 OFFCURVE",
"166 617 OFFCURVE",
"363 617 CURVE SMOOTH",
"460 617 OFFCURVE",
"505 563 OFFCURVE",
"505 459 CURVE SMOOTH",
"505 452 LINE",
"596 452 LINE",
"596 619 OFFCURVE",
"517 698 OFFCURVE",
"364 698 CURVE SMOOTH",
"119 698 OFFCURVE",
"50 421 OFFCURVE",
"50 241 CURVE SMOOTH",
"50 67 OFFCURVE",
"142 -12 OFFCURVE",
"285 -12 CURVE SMOOTH",
"365 -12 OFFCURVE",
"425 22 OFFCURVE",
"467 76 CURVE"
);
}
);
width = 638;
}
);
unicode = 0122;
},
{
color = (31,255,0,1);
glyphname = Gdotaccent;
lastChange = "2015-02-05 02:37:04 +0000";
layers = (
{
background = {
paths = (
{
closed = 1;
nodes = (
"119 698 OFFCURVE",
"50 421 OFFCURVE",
"50 241 CURVE SMOOTH",
"50 67 OFFCURVE",
"142 -12 OFFCURVE",
"285 -12 CURVE SMOOTH",
"365 -12 OFFCURVE",
"425 22 OFFCURVE",
"467 76 CURVE",
"475 0 LINE",
"533 0 LINE",
"584 359 LINE",
"316 359 LINE",
"304 278 LINE",
"484 278 LINE",
"478 242 LINE SMOOTH",
"463 150 OFFCURVE",
"404 70 OFFCURVE",
"293 70 CURVE SMOOTH",
"189 70 OFFCURVE",
"140 133 OFFCURVE",
"140 246 CURVE SMOOTH",
"140 335 OFFCURVE",
"166 617 OFFCURVE",
"363 617 CURVE SMOOTH",
"460 617 OFFCURVE",
"505 563 OFFCURVE",
"505 459 CURVE SMOOTH",
"505 452 LINE",
"596 452 LINE",
"596 619 OFFCURVE",
"517 698 OFFCURVE",
"364 698 CURVE SMOOTH"
);
}
);
};
layerId = UUID0;
name = "Regular Italic";
paths = (
{
closed = 1;
nodes = (
"441 883 LINE",
"354 883 LINE",
"341 788 LINE",
"428 788 LINE"
);
},
{
closed = 1;
nodes = (
"475 0 LINE",
"533 0 LINE",
"584 357 LINE",
"315 357 LINE",
"304 280 LINE",
"484 280 LINE",
"478 242 LINE SMOOTH",
"463 150 OFFCURVE",
"404 70 OFFCURVE",
"293 70 CURVE SMOOTH",
"189 70 OFFCURVE",
"140 133 OFFCURVE",
"140 246 CURVE SMOOTH",
"140 335 OFFCURVE",
"166 617 OFFCURVE",
"363 617 CURVE SMOOTH",
"460 617 OFFCURVE",
"505 563 OFFCURVE",
"505 459 CURVE SMOOTH",
"505 452 LINE",
"596 452 LINE",
"596 619 OFFCURVE",
"517 698 OFFCURVE",
"364 698 CURVE SMOOTH",
"119 698 OFFCURVE",
"50 421 OFFCURVE",
"50 241 CURVE SMOOTH",
"50 67 OFFCURVE",
"142 -12 OFFCURVE",
"285 -12 CURVE SMOOTH",
"365 -12 OFFCURVE",
"425 22 OFFCURVE",
"467 76 CURVE"
);
}
);
width = 638;
}
);
unicode = 0120;
},
{
color = (31,255,0,1);
glyphname = H;
lastChange = "2015-02-05 02:37:04 +0000";
layers = (
{
anchors = (
{
name = center;
position = "{308, 343}";
},
{
name = top;
position = "{355, 686}";
}
);
background = {
paths = (
{
closed = 1;
nodes = (
"583 686 LINE",
"495 686 LINE",
"454 393 LINE",
"178 393 LINE",
"219 686 LINE",
"131 686 LINE",
"34 0 LINE",
"122 0 LINE",
"166 309 LINE",
"442 309 LINE",
"398 0 LINE",
"486 0 LINE"
);
}
);
};
layerId = UUID0;
name = "Regular Italic";
paths = (
{
closed = 1;
nodes = (
"583 686 LINE",
"495 686 LINE",
"453 391 LINE",
"177 391 LINE",
"219 686 LINE",
"131 686 LINE",
"34 0 LINE",
"122 0 LINE",
"166 311 LINE",
"442 311 LINE",
"398 0 LINE",
"486 0 LINE"
);
}
);
width = 592;
}
);
unicode = 0048;
},
{
color = (31,255,0,1);
glyphname = Hbar;
lastChange = "2015-02-05 02:37:04 +0000";
layers = (
{
background = {
paths = (
{
closed = 1;
nodes = (
"583 686 LINE",
"495 686 LINE",
"453 391 LINE",
"177 391 LINE",
"219 686 LINE",
"131 686 LINE",
"34 0 LINE",
"122 0 LINE",
"166 311 LINE",
"442 311 LINE",
"398 0 LINE",
"486 0 LINE"
);
}
);
};
layerId = UUID0;
name = "Regular Italic";
paths = (
{
closed = 1;
nodes = (
"608 490 LINE",
"619 562 LINE",
"565 562 LINE",
"583 686 LINE",
"495 686 LINE",
"478 562 LINE",
"202 562 LINE",
"219 686 LINE",
"131 686 LINE",
"113 562 LINE",
"57 562 LINE",
"46 490 LINE",
"103 490 LINE",
"34 0 LINE",
"122 0 LINE",
"166 306 LINE",
"441 306 LINE",
"398 0 LINE",
"486 0 LINE",
"555 490 LINE"
);
},
{
closed = 1;
nodes = (
"468 490 LINE",
"454 386 LINE",
"178 386 LINE",
"192 490 LINE"
);
}
);
width = 592;
}
);
unicode = 0126;
},
{
color = (31,255,0,1);
glyphname = Hcircumflex;
lastChange = "2015-02-05 02:37:04 +0000";
layers = (
{
background = {
paths = (
{
closed = 1;
nodes = (
"583 686 LINE",
"495 686 LINE",
"454 393 LINE",
"178 393 LINE",
"219 686 LINE",
"131 686 LINE",
"34 0 LINE",
"122 0 LINE",
"166 309 LINE",
"442 309 LINE",
"398 0 LINE",
"486 0 LINE"
);
}
);
};
layerId = UUID0;
name = "Regular Italic";
paths = (
{
closed = 1;
nodes = (
"419 883 LINE",
"341 883 LINE",
"236 748 LINE",
"319 748 LINE",
"375 827 LINE",
"408 748 LINE",
"485 748 LINE"
);
},
{
closed = 1;
nodes = (
"583 686 LINE",
"495 686 LINE",
"453 391 LINE",
"177 391 LINE",
"219 686 LINE",
"131 686 LINE",
"34 0 LINE",
"122 0 LINE",
"166 311 LINE",
"442 311 LINE",
"398 0 LINE",
"486 0 LINE"
);
}
);
width = 592;
}
);
unicode = 0124;
},
{
glyphname = I;
lastChange = "2015-02-05 02:37:04 +0000";
layers = (
{
anchors = (
{
name = ogonek;
position = "{122, 0}";
},
{
name = top;
position = "{176, 686}";
}
);
layerId = UUID0;
name = "Regular Italic";
paths = (
{
closed = 1;
nodes = (
"219 686 LINE",
"131 686 LINE",
"34 0 LINE",
"122 0 LINE"
);
}
);
width = 228;
}
);
unicode = 0049;
},
{
glyphname = IJ;
lastChange = "2015-02-05 02:37:04 +0000";
layers = (
{
layerId = UUID0;
name = "Regular Italic";
paths = (
{
closed = 1;
nodes = (
"219 686 LINE",
"131 686 LINE",
"34 0 LINE",
"122 0 LINE"
);
},
{
closed = 1;
nodes = (
"635 686 LINE",
"547 686 LINE",
"472 158 LINE SMOOTH",
"464 100 OFFCURVE",
"432 69 OFFCURVE",
"382 69 CURVE SMOOTH",
"338 69 OFFCURVE",
"314 92 OFFCURVE",
"314 137 CURVE SMOOTH",
"314 144 OFFCURVE",
"315 151 OFFCURVE",
"323 208 CURVE",
"236 208 LINE",
"228 149 OFFCURVE",
"227 136 OFFCURVE",
"227 124 CURVE SMOOTH",
"227 35 OFFCURVE",
"282 -12 OFFCURVE",
"380 -12 CURVE SMOOTH",
"480 -12 OFFCURVE",
"545 49 OFFCURVE",
"561 163 CURVE SMOOTH"
);
}
);
width = 638;
}
);
unicode = 0132;
},
{
glyphname = Iacute;
lastChange = "2015-02-05 02:37:04 +0000";
layers = (
{
layerId = UUID0;
name = "Regular Italic";
paths = (
{
closed = 1;
nodes = (
"219 686 LINE",
"131 686 LINE",
"34 0 LINE",
"122 0 LINE"
);
},
{
closed = 1;
nodes = (
"309 883 LINE",
"218 883 LINE",
"132 751 LINE",
"202 751 LINE",
"310 880 LINE"
);
}
);
width = 228;
}
);
unicode = 00CD;
},
{
glyphname = Ibreve;
lastChange = "2015-02-05 02:37:04 +0000";
layers = (
{
layerId = UUID0;
name = "Regular Italic";
paths = (
{
closed = 1;
nodes = (
"219 686 LINE",
"131 686 LINE",
"34 0 LINE",
"122 0 LINE"
);
},
{
closed = 1;
nodes = (
"263 883 LINE",
"259 869 OFFCURVE",
"233 850 OFFCURVE",
"199 850 CURVE SMOOTH",
"166 850 OFFCURVE",
"145 869 OFFCURVE",
"144 883 CURVE",
"80 883 LINE",
"79 880 OFFCURVE",
"79 877 OFFCURVE",
"79 874 CURVE SMOOTH",
"79 831 OFFCURVE",
"121 786 OFFCURVE",
"195 786 CURVE SMOOTH",
"269 786 OFFCURVE",
"321 838 OFFCURVE",
"327 883 CURVE"
);
}
);
width = 228;
}
);
unicode = 012C;
},
{
glyphname = Icircumflex;
lastChange = "2015-02-05 02:37:04 +0000";
layers = (
{
layerId = UUID0;
name = "Regular Italic";
paths = (
{
closed = 1;
nodes = (
"219 686 LINE",
"131 686 LINE",
"34 0 LINE",
"122 0 LINE"
);
},
{
closed = 1;
nodes = (
"239 883 LINE",
"161 883 LINE",
"56 748 LINE",
"139 748 LINE",
"195 827 LINE",
"228 748 LINE",
"305 748 LINE"
);
}
);
width = 228;
}
);
unicode = 00CE;
},
{
glyphname = Idieresis;
lastChange = "2015-02-05 02:37:04 +0000";
layers = (
{
layerId = UUID0;
name = "Regular Italic";
paths = (
{
closed = 1;
nodes = (
"219 686 LINE",
"131 686 LINE",
"34 0 LINE",
"122 0 LINE"
);
},
{
closed = 1;
nodes = (
"323 883 LINE",
"236 883 LINE",
"223 788 LINE",
"310 788 LINE"
);
},
{
closed = 1;
nodes = (
"173 883 LINE",
"86 883 LINE",
"73 788 LINE",
"160 788 LINE"
);
}
);
width = 228;
}
);
unicode = 00CF;
},
{
glyphname = Idotaccent;
lastChange = "2015-02-05 02:37:04 +0000";
layers = (
{
layerId = UUID0;
name = "Regular Italic";
paths = (
{
closed = 1;
nodes = (
"219 686 LINE",
"131 686 LINE",
"34 0 LINE",
"122 0 LINE"
);
},
{
closed = 1;
nodes = (
"247 883 LINE",
"160 883 LINE",
"147 788 LINE",
"234 788 LINE"
);
}
);
width = 228;
}
);
unicode = 0130;
},
{
glyphname = Igrave;
lastChange = "2015-02-05 02:37:04 +0000";
layers = (
{
layerId = UUID0;
name = "Regular Italic";
paths = (
{
closed = 1;
nodes = (
"219 686 LINE",
"131 686 LINE",
"34 0 LINE",
"122 0 LINE"
);
},
{
closed = 1;
nodes = (
"177 883 LINE",
"87 883 LINE",
"85 880 LINE",
"175 751 LINE",
"245 751 LINE"
);
}
);
width = 228;
}
);
unicode = 00CC;
},
{
glyphname = Imacron;
lastChange = "2015-02-05 02:37:04 +0000";
layers = (
{
layerId = UUID0;
name = "Regular Italic";
paths = (
{
closed = 1;
nodes = (
"219 686 LINE",
"131 686 LINE",
"34 0 LINE",
"122 0 LINE"
);
},
{
closed = 1;
nodes = (
"318 831 LINE",
"68 831 LINE",
"57 759 LINE",
"307 759 LINE"
);
}
);
width = 228;
}
);
unicode = 012A;
},
{
glyphname = Iogonek;
lastChange = "2015-02-05 02:37:04 +0000";
layers = (
{
layerId = UUID0;
name = "Regular Italic";
paths = (
{
closed = 1;
nodes = (
"219 686 LINE",
"131 686 LINE",
"34 0 LINE",
"57 0 LINE",
"28 -26 OFFCURVE",
"-1 -59 OFFCURVE",
"-1 -111 CURVE SMOOTH",
"-1 -172 OFFCURVE",
"40 -190 OFFCURVE",
"81 -190 CURVE SMOOTH",
"101 -190 OFFCURVE",
"122 -185 OFFCURVE",
"144 -176 CURVE",
"151 -125 LINE",
"119 -125 LINE SMOOTH",
"91 -125 OFFCURVE",
"81 -106 OFFCURVE",
"81 -83 CURVE SMOOTH",
"81 -50 OFFCURVE",
"105 -17 OFFCURVE",
"122 0 CURVE"
);
}
);
width = 228;
}
);
unicode = 012E;
},
{
glyphname = Itilde;
lastChange = "2015-02-05 02:37:04 +0000";
layers = (
{
layerId = UUID0;
name = "Regular Italic";
paths = (
{
closed = 1;
nodes = (
"219 686 LINE",
"131 686 LINE",
"34 0 LINE",
"122 0 LINE"
);
},
{
closed = 1;
nodes = (
"289 883 LINE",
"283 860 OFFCURVE",
"268 852 OFFCURVE",
"250 852 CURVE SMOOTH",
"210 852 OFFCURVE",
"181 883 OFFCURVE",
"136 883 CURVE SMOOTH",
"78 883 OFFCURVE",
"48 825 OFFCURVE",
"41 779 CURVE",
"98 779 LINE",
"104 802 OFFCURVE",
"119 810 OFFCURVE",
"137 810 CURVE SMOOTH",
"177 810 OFFCURVE",
"206 779 OFFCURVE",
"251 779 CURVE SMOOTH",
"309 779 OFFCURVE",
"340 837 OFFCURVE",
"347 883 CURVE"
);
}
);
width = 228;
}
);
unicode = 0128;
},
{
glyphname = J;
lastChange = "2015-02-05 02:37:04 +0000";
layers = (
{
anchors = (
{
name = top;
position = "{364, 686}";
}
);
layerId = UUID0;
name = "Regular Italic";
paths = (
{
closed = 1;
nodes = (
"407 686 LINE",
"319 686 LINE",
"244 158 LINE SMOOTH",
"236 100 OFFCURVE",
"204 69 OFFCURVE",
"154 69 CURVE SMOOTH",
"110 69 OFFCURVE",
"86 92 OFFCURVE",
"86 137 CURVE SMOOTH",
"86 144 OFFCURVE",
"87 151 OFFCURVE",
"95 208 CURVE",
"8 208 LINE",
"0 149 OFFCURVE",
"-1 136 OFFCURVE",
"-1 124 CURVE SMOOTH",
"-1 35 OFFCURVE",
"54 -12 OFFCURVE",
"152 -12 CURVE SMOOTH",
"252 -12 OFFCURVE",
"317 49 OFFCURVE",
"333 163 CURVE SMOOTH"
);
}
);
width = 410;
}
);
unicode = 004A;
},
{
glyphname = Jcircumflex;
lastChange = "2015-02-05 02:37:04 +0000";
layers = (
{
layerId = UUID0;
name = "Regular Italic";
paths = (
{
closed = 1;
nodes = (
"407 686 LINE",
"319 686 LINE",
"244 158 LINE SMOOTH",
"236 100 OFFCURVE",
"204 69 OFFCURVE",
"154 69 CURVE SMOOTH",
"110 69 OFFCURVE",
"86 92 OFFCURVE",
"86 137 CURVE SMOOTH",
"86 144 OFFCURVE",
"87 151 OFFCURVE",
"95 208 CURVE",
"8 208 LINE",
"0 149 OFFCURVE",
"-1 136 OFFCURVE",
"-1 124 CURVE SMOOTH",
"-1 35 OFFCURVE",
"54 -12 OFFCURVE",
"152 -12 CURVE SMOOTH",
"252 -12 OFFCURVE",
"317 49 OFFCURVE",
"333 163 CURVE SMOOTH"
);
},
{
closed = 1;
nodes = (
"428 883 LINE",
"350 883 LINE",
"245 748 LINE",
"328 748 LINE",
"384 827 LINE",
"417 748 LINE",
"494 748 LINE"
);
}
);
width = 410;
}
);
unicode = 0134;
},
{
color = (31,255,0,1);
glyphname = K;
lastChange = "2015-02-05 02:37:04 +0000";
layers = (
{
anchors = (
{
name = bottom;
position = "{222, 0}";
},
{
name = top;
position = "{317, 686}";
}
);
background = {
paths = (
{
closed = 1;
nodes = (
"589 686 LINE",
"484 686 LINE",
"168 329 LINE",
"219 686 LINE",
"131 686 LINE",
"34 0 LINE",
"122 0 LINE",
"152 215 LINE",
"256 317 LINE",
"401 0 LINE",
"499 0 LINE",
"320 383 LINE"
);
}
);
};
layerId = UUID0;
name = "Regular Italic";
paths = (
{
closed = 1;
nodes = (
"219 686 LINE",
"131 686 LINE",
"34 0 LINE",
"122 0 LINE",
"152 213 LINE",
"279 335 LINE",
"401 0 LINE",
"499 0 LINE",
"344 409 LINE",
"589 686 LINE",
"484 686 LINE",
"168 329 LINE"
);
}
);
width = 547;
}
);
unicode = 004B;
},
{
color = (31,255,0,1);
glyphname = Kcommaaccent;
lastChange = "2015-02-05 02:37:04 +0000";
layers = (
{
background = {
paths = (
{
closed = 1;
nodes = (
"589 686 LINE",
"484 686 LINE",
"168 329 LINE",
"219 686 LINE",
"131 686 LINE",
"34 0 LINE",
"122 0 LINE",
"152 215 LINE",
"256 317 LINE",
"401 0 LINE",
"499 0 LINE",
"320 383 LINE"
);
}
);
};
layerId = UUID0;
name = "Regular Italic";
paths = (
{
closed = 1;
nodes = (
"256 -60 LINE",
"171 -60 LINE",
"158 -151 LINE",
"192 -151 LINE",
"161 -220 LINE",
"209 -220 LINE",
"244 -144 LINE"
);
},
{
closed = 1;
nodes = (
"219 686 LINE",
"131 686 LINE",
"34 0 LINE",
"122 0 LINE",
"152 213 LINE",
"279 335 LINE",
"401 0 LINE",
"499 0 LINE",
"344 409 LINE",
"589 686 LINE",
"484 686 LINE",
"168 329 LINE"
);
}
);
width = 547;
}
);
unicode = 0136;
},
{
color = (31,255,0,1);
glyphname = L;
lastChange = "2015-02-05 02:37:04 +0000";
layers = (
{
anchors = (
{
name = bottom;
position = "{198, 0}";
},
{
name = top;
position = "{177, 686}";
}
);
background = {
paths = (
{
closed = 1;
nodes = (
"219 686 LINE",
"131 686 LINE",
"34 0 LINE",
"421 0 LINE",
"409 84 LINE",
"134 84 LINE"
);
}
);
};
layerId = UUID0;
name = "Regular Italic";
paths = (
{
closed = 1;
nodes = (
"402 0 LINE",
"414 80 LINE",
"134 80 LINE",
"219 686 LINE",
"131 686 LINE",
"34 0 LINE"
);
}
);
width = 456;
}
);
unicode = 004C;
},
{
color = (31,255,0,1);
glyphname = Lacute;
lastChange = "2015-02-05 02:37:04 +0000";
layers = (
{
background = {
paths = (
{
closed = 1;
nodes = (
"219 686 LINE",
"131 686 LINE",
"34 0 LINE",
"421 0 LINE",
"409 84 LINE",
"134 84 LINE"
);
}
);
};
layerId = UUID0;
name = "Regular Italic";
paths = (
{
closed = 1;
nodes = (
"310 883 LINE",
"219 883 LINE",
"133 751 LINE",
"203 751 LINE",
"311 880 LINE"
);
},
{
closed = 1;
nodes = (
"402 0 LINE",
"414 80 LINE",
"134 80 LINE",
"219 686 LINE",
"131 686 LINE",
"34 0 LINE"
);
}
);
width = 456;
}
);
unicode = 0139;
},
{
color = (31,255,0,1);
glyphname = Lcaron;
lastChange = "2015-02-05 02:37:04 +0000";
layers = (
{
background = {
paths = (
{
closed = 1;
nodes = (
"219 686 LINE",
"131 686 LINE",
"34 0 LINE",
"421 0 LINE",
"409 84 LINE",
"134 84 LINE"
);
}
);
};
layerId = UUID0;
name = "Regular Italic";
paths = (
{
closed = 1;
nodes = (
"455 686 LINE",
"355 686 LINE",
"340 578 LINE",
"373 578 LINE",
"322 454 LINE",
"377 454 LINE",
"441 587 LINE"
);
},
{
closed = 1;
nodes = (
"402 0 LINE",
"414 80 LINE",
"134 80 LINE",
"219 686 LINE",
"131 686 LINE",
"34 0 LINE"
);
}
);
width = 456;
}
);
unicode = 013D;
},
{
color = (31,255,0,1);
glyphname = Lcommaaccent;
lastChange = "2015-02-05 02:37:04 +0000";
layers = (
{
background = {
paths = (
{
closed = 1;
nodes = (
"219 686 LINE",
"131 686 LINE",
"34 0 LINE",
"421 0 LINE",
"409 84 LINE",
"134 84 LINE"
);
}
);
};
layerId = UUID0;
name = "Regular Italic";
paths = (
{
closed = 1;
nodes = (
"232 -60 LINE",
"147 -60 LINE",
"134 -151 LINE",
"168 -151 LINE",
"137 -220 LINE",
"185 -220 LINE",
"220 -144 LINE"
);
},
{
closed = 1;
nodes = (
"402 0 LINE",
"414 80 LINE",
"134 80 LINE",
"219 686 LINE",
"131 686 LINE",
"34 0 LINE"
);
}
);
width = 456;
}
);
unicode = 013B;
},
{
color = (31,255,0,1);
glyphname = Ldot;
lastChange = "2015-02-05 02:37:04 +0000";
layers = (
{
background = {
paths = (
{
closed = 1;
nodes = (
"219 686 LINE",
"131 686 LINE",
"34 0 LINE",
"421 0 LINE",
"409 84 LINE",
"134 84 LINE"
);
}
);
};
layerId = UUID0;
name = "Regular Italic";
paths = (
{
closed = 1;
nodes = (
"416 399 LINE",
"314 399 LINE",
"299 288 LINE",
"400 288 LINE"
);
},
{
closed = 1;
nodes = (
"402 0 LINE",
"414 80 LINE",
"134 80 LINE",
"219 686 LINE",
"131 686 LINE",
"34 0 LINE"
);
}
);
width = 456;
}
);
unicode = 013F;
},
{
color = (31,255,0,1);
glyphname = Lslash;
lastChange = "2015-02-05 02:37:04 +0000";
layers = (
{
background = {
paths = (
{
closed = 1;
nodes = (
"402 0 LINE",
"414 80 LINE",
"134 80 LINE",
"219 686 LINE",
"131 686 LINE",
"34 0 LINE"
);
}
);
};
layerId = UUID0;
name = "Regular Italic";
paths = (
{
closed = 1;
nodes = (
"34 0 LINE",
"402 0 LINE",
"414 80 LINE",
"134 80 LINE",
"167 314 LINE",
"285 408 LINE",
"297 491 LINE",
"178 396 LINE",
"219 686 LINE",
"131 686 LINE",
"79 318 LINE",
"3 258 LINE",
"-9 177 LINE",
"67 237 LINE"
);
}
);
width = 456;
}
);
unicode = 0141;
},
{
glyphname = M;
lastChange = "2015-02-05 02:37:04 +0000";
layers = (
{
layerId = UUID0;
name = "Regular Italic";
paths = (
{
closed = 1;
nodes = (
"680 686 LINE",
"545 686 LINE",
"359 236 LINE SMOOTH",
"342 194 OFFCURVE",
"321 102 OFFCURVE",
"321 102 CURVE",
"317 102 LINE",
"317 102 OFFCURVE",
"316 192 OFFCURVE",
"310 236 CURVE SMOOTH",
"253 686 LINE",
"121 686 LINE",
"24 0 LINE",
"103 0 LINE",
"173 498 LINE",
"175 514 OFFCURVE",
"183 584 OFFCURVE",
"183 584 CURVE",
"187 584 LINE",
"187 584 OFFCURVE",
"192 513 OFFCURVE",
"194 498 CURVE SMOOTH",
"259 0 LINE",
"338 0 LINE",
"545 498 LINE",
"554 518 OFFCURVE",
"576 584 OFFCURVE",
"576 584 CURVE",
"580 584 LINE",
"580 584 OFFCURVE",
"568 518 OFFCURVE",
"565 498 CURVE SMOOTH",
"495 0 LINE",
"583 0 LINE"
);
}
);
width = 683;
}
);
unicode = 004D;
},
{
glyphname = N;
lastChange = "2015-02-05 02:37:04 +0000";
layers = (
{
anchors = (
{
name = bottom;
position = "{259, 0}";
},
{
name = top;
position = "{356, 686}";
}
);
layerId = UUID0;
name = "Regular Italic";
paths = (
{
closed = 1;
nodes = (
"582 686 LINE",
"503 686 LINE",
"442 255 LINE SMOOTH",
"439 233 OFFCURVE",
"432 164 OFFCURVE",
"432 164 CURVE",
"429 163 LINE",
"429 163 OFFCURVE",
"408 229 OFFCURVE",
"397 255 CURVE",
"202 686 LINE",
"130 686 LINE",
"33 0 LINE",
"112 0 LINE",
"174 437 LINE",
"178 465 OFFCURVE",
"183 528 OFFCURVE",
"183 528 CURVE",
"186 529 LINE",
"186 529 OFFCURVE",
"206 466 OFFCURVE",
"219 437 CURVE SMOOTH",
"416 0 LINE",
"485 0 LINE"
);
}
);
width = 592;
}
);
unicode = 004E;
},
{
glyphname = Nacute;
lastChange = "2015-02-05 02:37:04 +0000";
layers = (
{
layerId = UUID0;
name = "Regular Italic";
paths = (
{
closed = 1;
nodes = (
"582 686 LINE",
"503 686 LINE",
"442 255 LINE SMOOTH",
"439 233 OFFCURVE",
"432 164 OFFCURVE",
"432 164 CURVE",
"429 163 LINE",
"429 163 OFFCURVE",
"408 229 OFFCURVE",
"397 255 CURVE",
"202 686 LINE",
"130 686 LINE",
"33 0 LINE",
"112 0 LINE",
"174 437 LINE",
"178 465 OFFCURVE",
"183 528 OFFCURVE",
"183 528 CURVE",
"186 529 LINE",
"186 529 OFFCURVE",
"206 466 OFFCURVE",
"219 437 CURVE SMOOTH",
"416 0 LINE",
"485 0 LINE"
);
},
{
closed = 1;
nodes = (
"489 883 LINE",
"398 883 LINE",
"312 751 LINE",
"382 751 LINE",
"490 880 LINE"
);
}
);
width = 592;
}
);
unicode = 0143;
},
{
glyphname = Ncaron;
lastChange = "2015-02-05 02:37:04 +0000";
layers = (
{
layerId = UUID0;
name = "Regular Italic";
paths = (
{
closed = 1;
nodes = (
"582 686 LINE",
"503 686 LINE",
"442 255 LINE SMOOTH",
"439 233 OFFCURVE",
"432 164 OFFCURVE",
"432 164 CURVE",
"429 163 LINE",
"429 163 OFFCURVE",
"408 229 OFFCURVE",
"397 255 CURVE",
"202 686 LINE",
"130 686 LINE",
"33 0 LINE",
"112 0 LINE",
"174 437 LINE",
"178 465 OFFCURVE",
"183 528 OFFCURVE",
"183 528 CURVE",
"186 529 LINE",
"186 529 OFFCURVE",
"206 466 OFFCURVE",
"219 437 CURVE SMOOTH",
"416 0 LINE",
"485 0 LINE"
);
},
{
closed = 1;
nodes = (
"506 883 LINE",
"423 883 LINE",
"371 804 LINE",
"337 883 LINE",
"258 883 LINE",
"324 748 LINE",
"401 748 LINE"
);
}
);
width = 592;
}
);
unicode = 0147;
},
{
glyphname = Ncommaaccent;
lastChange = "2015-02-05 02:37:04 +0000";
layers = (
{
layerId = UUID0;
name = "Regular Italic";
paths = (
{
closed = 1;
nodes = (
"582 686 LINE",
"503 686 LINE",
"442 255 LINE SMOOTH",
"439 233 OFFCURVE",
"432 164 OFFCURVE",
"432 164 CURVE",
"429 163 LINE",
"429 163 OFFCURVE",
"408 229 OFFCURVE",
"397 255 CURVE",
"202 686 LINE",
"130 686 LINE",
"33 0 LINE",
"112 0 LINE",
"174 437 LINE",
"178 465 OFFCURVE",
"183 528 OFFCURVE",
"183 528 CURVE",
"186 529 LINE",
"186 529 OFFCURVE",
"206 466 OFFCURVE",
"219 437 CURVE SMOOTH",
"416 0 LINE",
"485 0 LINE"
);
},
{
closed = 1;
nodes = (
"293 -60 LINE",
"208 -60 LINE",
"195 -151 LINE",
"229 -151 LINE",
"198 -220 LINE",
"246 -220 LINE",
"281 -144 LINE"
);
}
);
width = 592;
}
);
unicode = 0145;
},
{
color = (31,255,0,1);
glyphname = Eng;
lastChange = "2015-02-05 02:37:04 +0000";
layers = (
{
layerId = UUID0;
name = "Regular Italic";
paths = (
{
closed = 1;
nodes = (
"582 686 LINE",
"503 686 LINE",
"442 255 LINE SMOOTH",
"439 233 OFFCURVE",
"432 164 OFFCURVE",
"432 164 CURVE",
"429 163 LINE",
"429 163 OFFCURVE",
"408 229 OFFCURVE",
"397 255 CURVE",
"202 686 LINE",
"130 686 LINE",
"33 0 LINE",
"112 0 LINE",
"174 437 LINE",
"178 465 OFFCURVE",
"183 528 OFFCURVE",
"183 528 CURVE",
"186 529 LINE",
"186 529 OFFCURVE",
"206 466 OFFCURVE",
"219 437 CURVE SMOOTH",
"406 21 LINE",
"394 -65 LINE SMOOTH",
"390 -96 OFFCURVE",
"373 -113 OFFCURVE",
"342 -113 CURVE SMOOTH",
"298 -113 LINE",
"290 -170 LINE",
"306 -176 OFFCURVE",
"333 -182 OFFCURVE",
"357 -182 CURVE SMOOTH",
"436 -182 OFFCURVE",
"468 -121 OFFCURVE",
"477 -61 CURVE"
);
}
);
width = 593;
}
);
unicode = 014A;
},
{
glyphname = Ntilde;
lastChange = "2015-02-05 02:37:04 +0000";
layers = (
{
layerId = UUID0;
name = "Regular Italic";
paths = (
{
closed = 1;
nodes = (
"582 686 LINE",
"503 686 LINE",
"442 255 LINE SMOOTH",
"439 233 OFFCURVE",
"432 164 OFFCURVE",
"432 164 CURVE",
"429 163 LINE",
"429 163 OFFCURVE",
"408 229 OFFCURVE",
"397 255 CURVE",
"202 686 LINE",
"130 686 LINE",
"33 0 LINE",
"112 0 LINE",
"174 437 LINE",
"178 465 OFFCURVE",
"183 528 OFFCURVE",
"183 528 CURVE",
"186 529 LINE",
"186 529 OFFCURVE",
"206 466 OFFCURVE",
"219 437 CURVE SMOOTH",
"416 0 LINE",
"485 0 LINE"
);
},
{
closed = 1;
nodes = (
"469 883 LINE",
"463 860 OFFCURVE",
"448 852 OFFCURVE",
"430 852 CURVE SMOOTH",
"390 852 OFFCURVE",
"361 883 OFFCURVE",
"316 883 CURVE SMOOTH",
"258 883 OFFCURVE",
"228 825 OFFCURVE",
"221 779 CURVE",
"278 779 LINE",
"284 802 OFFCURVE",
"299 810 OFFCURVE",
"317 810 CURVE SMOOTH",
"357 810 OFFCURVE",
"386 779 OFFCURVE",
"431 779 CURVE SMOOTH",
"489 779 OFFCURVE",
"520 837 OFFCURVE",
"527 883 CURVE"
);
}
);
width = 592;
}
);
unicode = 00D1;
},
{
glyphname = O;
lastChange = "2015-02-05 02:37:04 +0000";
layers = (
{
anchors = (
{
name = top;
position = "{379, 686}";
}
);
layerId = UUID0;
name = "Regular Italic";
paths = (
{
closed = 1;
nodes = (
"126 698 OFFCURVE",
"51 438 OFFCURVE",
"51 247 CURVE SMOOTH",
"51 73 OFFCURVE",
"138 -12 OFFCURVE",
"288 -12 CURVE SMOOTH",
"529 -12 OFFCURVE",
"605 246 OFFCURVE",
"605 437 CURVE SMOOTH",
"605 612 OFFCURVE",
"517 698 OFFCURVE",
"367 698 CURVE SMOOTH"
);
},
{
closed = 1;
nodes = (
"459 617 OFFCURVE",
"514 557 OFFCURVE",
"514 437 CURVE SMOOTH",
"514 290 OFFCURVE",
"470 69 OFFCURVE",
"289 69 CURVE SMOOTH",
"195 69 OFFCURVE",
"141 128 OFFCURVE",
"141 249 CURVE SMOOTH",
"141 398 OFFCURVE",
"186 617 OFFCURVE",
"366 617 CURVE SMOOTH"
);
}
);
width = 638;
}
);
unicode = 004F;
},
{
glyphname = Oacute;
lastChange = "2015-02-05 02:37:04 +0000";
layers = (
{
layerId = UUID0;
name = "Regular Italic";
paths = (
{
closed = 1;
nodes = (
"126 698 OFFCURVE",
"51 438 OFFCURVE",
"51 247 CURVE SMOOTH",
"51 73 OFFCURVE",
"138 -12 OFFCURVE",
"288 -12 CURVE SMOOTH",
"529 -12 OFFCURVE",
"605 246 OFFCURVE",
"605 437 CURVE SMOOTH",
"605 612 OFFCURVE",
"517 698 OFFCURVE",
"367 698 CURVE SMOOTH"
);
},
{
closed = 1;
nodes = (
"459 617 OFFCURVE",
"514 557 OFFCURVE",
"514 437 CURVE SMOOTH",
"514 290 OFFCURVE",
"470 69 OFFCURVE",
"289 69 CURVE SMOOTH",
"195 69 OFFCURVE",
"141 128 OFFCURVE",
"141 249 CURVE SMOOTH",
"141 398 OFFCURVE",
"186 617 OFFCURVE",
"366 617 CURVE SMOOTH"
);
},
{
closed = 1;
nodes = (
"512 883 LINE",
"422 883 LINE",
"336 751 LINE",
"405 751 LINE",
"513 880 LINE"
);
}
);
width = 638;
}
);
unicode = 00D3;
},
{
glyphname = Obreve;
lastChange = "2015-02-05 02:37:04 +0000";
layers = (
{
layerId = UUID0;
name = "Regular Italic";
paths = (
{
closed = 1;
nodes = (
"126 698 OFFCURVE",
"51 438 OFFCURVE",
"51 247 CURVE SMOOTH",
"51 73 OFFCURVE",
"138 -12 OFFCURVE",
"288 -12 CURVE SMOOTH",
"529 -12 OFFCURVE",
"605 246 OFFCURVE",
"605 437 CURVE SMOOTH",
"605 612 OFFCURVE",
"517 698 OFFCURVE",
"367 698 CURVE SMOOTH"
);
},
{
closed = 1;
nodes = (
"459 617 OFFCURVE",
"514 557 OFFCURVE",
"514 437 CURVE SMOOTH",
"514 290 OFFCURVE",
"470 69 OFFCURVE",
"289 69 CURVE SMOOTH",
"195 69 OFFCURVE",
"141 128 OFFCURVE",
"141 249 CURVE SMOOTH",
"141 398 OFFCURVE",
"186 617 OFFCURVE",
"366 617 CURVE SMOOTH"
);
},
{
closed = 1;
nodes = (
"467 883 LINE",
"462 869 OFFCURVE",
"437 850 OFFCURVE",
"403 850 CURVE SMOOTH",
"370 850 OFFCURVE",
"349 869 OFFCURVE",
"348 883 CURVE",
"284 883 LINE",
"283 880 OFFCURVE",
"283 877 OFFCURVE",
"283 874 CURVE SMOOTH",
"283 831 OFFCURVE",
"325 786 OFFCURVE",
"398 786 CURVE SMOOTH",
"473 786 OFFCURVE",
"524 838 OFFCURVE",
"531 883 CURVE"
);
}
);
width = 638;
}
);
unicode = 014E;
},
{
glyphname = Ocircumflex;
lastChange = "2015-02-05 02:37:04 +0000";
layers = (
{
layerId = UUID0;
name = "Regular Italic";
paths = (
{
closed = 1;
nodes = (
"126 698 OFFCURVE",
"51 438 OFFCURVE",
"51 247 CURVE SMOOTH",
"51 73 OFFCURVE",
"138 -12 OFFCURVE",
"288 -12 CURVE SMOOTH",
"529 -12 OFFCURVE",
"605 246 OFFCURVE",
"605 437 CURVE SMOOTH",
"605 612 OFFCURVE",
"517 698 OFFCURVE",
"367 698 CURVE SMOOTH"
);
},
{
closed = 1;
nodes = (
"459 617 OFFCURVE",
"514 557 OFFCURVE",
"514 437 CURVE SMOOTH",
"514 290 OFFCURVE",
"470 69 OFFCURVE",
"289 69 CURVE SMOOTH",
"195 69 OFFCURVE",
"141 128 OFFCURVE",
"141 249 CURVE SMOOTH",
"141 398 OFFCURVE",
"186 617 OFFCURVE",
"366 617 CURVE SMOOTH"
);
},
{
closed = 1;
nodes = (
"443 883 LINE",
"365 883 LINE",
"260 748 LINE",
"343 748 LINE",
"399 827 LINE",
"432 748 LINE",
"509 748 LINE"
);
}
);
width = 638;
}
);
unicode = 00D4;
},
{
glyphname = Odieresis;
lastChange = "2015-02-05 02:37:04 +0000";
layers = (
{
layerId = UUID0;
name = "Regular Italic";
paths = (
{
closed = 1;
nodes = (
"126 698 OFFCURVE",
"51 438 OFFCURVE",
"51 247 CURVE SMOOTH",
"51 73 OFFCURVE",
"138 -12 OFFCURVE",
"288 -12 CURVE SMOOTH",
"529 -12 OFFCURVE",
"605 246 OFFCURVE",
"605 437 CURVE SMOOTH",
"605 612 OFFCURVE",
"517 698 OFFCURVE",
"367 698 CURVE SMOOTH"
);
},
{
closed = 1;
nodes = (
"459 617 OFFCURVE",
"514 557 OFFCURVE",
"514 437 CURVE SMOOTH",
"514 290 OFFCURVE",
"470 69 OFFCURVE",
"289 69 CURVE SMOOTH",
"195 69 OFFCURVE",
"141 128 OFFCURVE",
"141 249 CURVE SMOOTH",
"141 398 OFFCURVE",
"186 617 OFFCURVE",
"366 617 CURVE SMOOTH"
);
},
{
closed = 1;
nodes = (
"527 883 LINE",
"440 883 LINE",
"427 788 LINE",
"514 788 LINE"
);
},
{
closed = 1;
nodes = (
"377 883 LINE",
"290 883 LINE",
"277 788 LINE",
"364 788 LINE"
);
}
);
width = 638;
}
);
unicode = 00D6;
},
{
glyphname = Ograve;
lastChange = "2015-02-05 02:37:04 +0000";
layers = (
{
layerId = UUID0;
name = "Regular Italic";
paths = (
{
closed = 1;
nodes = (
"126 698 OFFCURVE",
"51 438 OFFCURVE",
"51 247 CURVE SMOOTH",
"51 73 OFFCURVE",
"138 -12 OFFCURVE",
"288 -12 CURVE SMOOTH",
"529 -12 OFFCURVE",
"605 246 OFFCURVE",
"605 437 CURVE SMOOTH",
"605 612 OFFCURVE",
"517 698 OFFCURVE",
"367 698 CURVE SMOOTH"
);
},
{
closed = 1;
nodes = (
"459 617 OFFCURVE",
"514 557 OFFCURVE",
"514 437 CURVE SMOOTH",
"514 290 OFFCURVE",
"470 69 OFFCURVE",
"289 69 CURVE SMOOTH",
"195 69 OFFCURVE",
"141 128 OFFCURVE",
"141 249 CURVE SMOOTH",
"141 398 OFFCURVE",
"186 617 OFFCURVE",
"366 617 CURVE SMOOTH"
);
},
{
closed = 1;
nodes = (
"381 883 LINE",
"291 883 LINE",
"289 880 LINE",
"379 751 LINE",
"448 751 LINE"
);
}
);
width = 638;
}
);
unicode = 00D2;
},
{
glyphname = Ohungarumlaut;
lastChange = "2015-02-05 02:37:04 +0000";
layers = (
{
layerId = UUID0;
name = "Regular Italic";
paths = (
{
closed = 1;
nodes = (
"126 698 OFFCURVE",
"51 438 OFFCURVE",
"51 247 CURVE SMOOTH",
"51 73 OFFCURVE",
"138 -12 OFFCURVE",
"288 -12 CURVE SMOOTH",
"529 -12 OFFCURVE",
"605 246 OFFCURVE",
"605 437 CURVE SMOOTH",
"605 612 OFFCURVE",
"517 698 OFFCURVE",
"367 698 CURVE SMOOTH"
);
},
{
closed = 1;
nodes = (
"459 617 OFFCURVE",
"514 557 OFFCURVE",
"514 437 CURVE SMOOTH",
"514 290 OFFCURVE",
"470 69 OFFCURVE",
"289 69 CURVE SMOOTH",
"195 69 OFFCURVE",
"141 128 OFFCURVE",
"141 249 CURVE SMOOTH",
"141 398 OFFCURVE",
"186 617 OFFCURVE",
"366 617 CURVE SMOOTH"
);
},
{
closed = 1;
nodes = (
"540 883 LINE",
"450 883 LINE",
"388 751 LINE",
"457 751 LINE",
"541 880 LINE"
);
},
{
closed = 1;
nodes = (
"410 883 LINE",
"320 883 LINE",
"258 751 LINE",
"327 751 LINE",
"411 880 LINE"
);
}
);
width = 638;
}
);
unicode = 0150;
},
{
glyphname = Omacron;
lastChange = "2015-02-05 02:37:04 +0000";
layers = (
{
layerId = UUID0;
name = "Regular Italic";
paths = (
{
closed = 1;
nodes = (
"126 698 OFFCURVE",
"51 438 OFFCURVE",
"51 247 CURVE SMOOTH",
"51 73 OFFCURVE",
"138 -12 OFFCURVE",
"288 -12 CURVE SMOOTH",
"529 -12 OFFCURVE",
"605 246 OFFCURVE",
"605 437 CURVE SMOOTH",
"605 612 OFFCURVE",
"517 698 OFFCURVE",
"367 698 CURVE SMOOTH"
);
},
{
closed = 1;
nodes = (
"459 617 OFFCURVE",
"514 557 OFFCURVE",
"514 437 CURVE SMOOTH",
"514 290 OFFCURVE",
"470 69 OFFCURVE",
"289 69 CURVE SMOOTH",
"195 69 OFFCURVE",
"141 128 OFFCURVE",
"141 249 CURVE SMOOTH",
"141 398 OFFCURVE",
"186 617 OFFCURVE",
"366 617 CURVE SMOOTH"
);
},
{
closed = 1;
nodes = (
"521 831 LINE",
"271 831 LINE",
"261 759 LINE",
"511 759 LINE"
);
}
);
width = 638;
}
);
unicode = 014C;
},
{
glyphname = Oslash;
lastChange = "2015-02-05 02:37:04 +0000";
layers = (
{
anchors = (
{
name = top;
position = "{379, 686}";
}
);
layerId = UUID0;
name = "Regular Italic";
paths = (
{
closed = 1;
nodes = (
"605 723 LINE",
"541 723 LINE",
"503 664 LINE",
"467 687 OFFCURVE",
"421 698 OFFCURVE",
"367 698 CURVE SMOOTH",
"126 698 OFFCURVE",
"51 438 OFFCURVE",
"51 247 CURVE SMOOTH",
"51 162 OFFCURVE",
"71 99 OFFCURVE",
"110 56 CURVE",
"50 -37 LINE",
"114 -37 LINE",
"151 21 LINE",
"188 -1 OFFCURVE",
"234 -12 OFFCURVE",
"288 -12 CURVE SMOOTH",
"529 -12 OFFCURVE",
"605 246 OFFCURVE",
"605 437 CURVE SMOOTH",
"605 522 OFFCURVE",
"584 586 OFFCURVE",
"545 630 CURVE"
);
},
{
closed = 1;
nodes = (
"491 547 LINE",
"506 519 OFFCURVE",
"514 482 OFFCURVE",
"514 437 CURVE SMOOTH",
"514 290 OFFCURVE",
"470 69 OFFCURVE",
"289 69 CURVE SMOOTH",
"253 69 OFFCURVE",
"223 77 OFFCURVE",
"199 95 CURVE"
);
},
{
closed = 1;
nodes = (
"401 617 OFFCURVE",
"432 608 OFFCURVE",
"455 590 CURVE",
"163 138 LINE",
"149 166 OFFCURVE",
"141 203 OFFCURVE",
"141 249 CURVE SMOOTH",
"141 398 OFFCURVE",
"186 617 OFFCURVE",
"366 617 CURVE SMOOTH"
);
}
);
width = 638;
}
);
unicode = 00D8;
},
{
glyphname = Oslashacute;
lastChange = "2015-02-05 02:37:04 +0000";
layers = (
{
layerId = UUID0;
name = "Regular Italic";
paths = (
{
closed = 1;
nodes = (
"605 723 LINE",
"541 723 LINE",
"503 664 LINE",
"467 687 OFFCURVE",
"421 698 OFFCURVE",
"367 698 CURVE SMOOTH",
"126 698 OFFCURVE",
"51 438 OFFCURVE",
"51 247 CURVE SMOOTH",
"51 162 OFFCURVE",
"71 99 OFFCURVE",
"110 56 CURVE",
"50 -37 LINE",
"114 -37 LINE",
"151 21 LINE",
"188 -1 OFFCURVE",
"234 -12 OFFCURVE",
"288 -12 CURVE SMOOTH",
"529 -12 OFFCURVE",
"605 246 OFFCURVE",
"605 437 CURVE SMOOTH",
"605 522 OFFCURVE",
"584 586 OFFCURVE",
"545 630 CURVE"
);
},
{
closed = 1;
nodes = (
"491 547 LINE",
"506 519 OFFCURVE",
"514 482 OFFCURVE",
"514 437 CURVE SMOOTH",
"514 290 OFFCURVE",
"470 69 OFFCURVE",
"289 69 CURVE SMOOTH",
"253 69 OFFCURVE",
"223 77 OFFCURVE",
"199 95 CURVE"
);
},
{
closed = 1;
nodes = (
"401 617 OFFCURVE",
"432 608 OFFCURVE",
"455 590 CURVE",
"163 138 LINE",
"149 166 OFFCURVE",
"141 203 OFFCURVE",
"141 249 CURVE SMOOTH",
"141 398 OFFCURVE",
"186 617 OFFCURVE",
"366 617 CURVE SMOOTH"
);
},
{
closed = 1;
nodes = (
"512 883 LINE",
"422 883 LINE",
"336 751 LINE",
"405 751 LINE",
"513 880 LINE"
);
}
);
width = 638;
}
);
unicode = 01FE;
},
{
glyphname = Otilde;
lastChange = "2015-02-05 02:37:04 +0000";
layers = (
{
layerId = UUID0;
name = "Regular Italic";
paths = (
{
closed = 1;
nodes = (
"126 698 OFFCURVE",
"51 438 OFFCURVE",
"51 247 CURVE SMOOTH",
"51 73 OFFCURVE",
"138 -12 OFFCURVE",
"288 -12 CURVE SMOOTH",
"529 -12 OFFCURVE",
"605 246 OFFCURVE",
"605 437 CURVE SMOOTH",
"605 612 OFFCURVE",
"517 698 OFFCURVE",
"367 698 CURVE SMOOTH"
);
},
{
closed = 1;
nodes = (
"459 617 OFFCURVE",
"514 557 OFFCURVE",
"514 437 CURVE SMOOTH",
"514 290 OFFCURVE",
"470 69 OFFCURVE",
"289 69 CURVE SMOOTH",
"195 69 OFFCURVE",
"141 128 OFFCURVE",
"141 249 CURVE SMOOTH",
"141 398 OFFCURVE",
"186 617 OFFCURVE",
"366 617 CURVE SMOOTH"
);
},
{
closed = 1;
nodes = (
"492 883 LINE",
"486 860 OFFCURVE",
"471 852 OFFCURVE",
"454 852 CURVE SMOOTH",
"414 852 OFFCURVE",
"384 883 OFFCURVE",
"339 883 CURVE SMOOTH",
"281 883 OFFCURVE",
"251 825 OFFCURVE",
"244 779 CURVE",
"301 779 LINE",
"308 802 OFFCURVE",
"322 810 OFFCURVE",
"340 810 CURVE SMOOTH",
"380 810 OFFCURVE",
"409 779 OFFCURVE",
"455 779 CURVE SMOOTH",
"512 779 OFFCURVE",
"543 837 OFFCURVE",
"550 883 CURVE"
);
}
);
width = 638;
}
);
unicode = 00D5;
},
{
color = (31,255,0,1);
glyphname = OE;
lastChange = "2015-02-05 02:37:04 +0000";
layers = (
{
anchors = (
{
name = top;
position = "{410, 686}";
}
);
background = {
paths = (
{
closed = 1;
nodes = (
"100 698 OFFCURVE",
"40 394 OFFCURVE",
"40 231 CURVE SMOOTH",
"40 68 OFFCURVE",
"106 -12 OFFCURVE",
"223 -12 CURVE SMOOTH",
"287 -12 OFFCURVE",
"341 14 OFFCURVE",
"386 68 CURVE",
"376 0 LINE",
"754 0 LINE",
"741 84 LINE",
"476 84 LINE",
"508 309 LINE",
"738 309 LINE",
"750 393 LINE",
"520 393 LINE",
"549 602 LINE",
"806 602 LINE",
"831 686 LINE",
"473 686 LINE",
"463 618 LINE",
"434 671 OFFCURVE",
"386 698 OFFCURVE",
"322 698 CURVE SMOOTH"
);
},
{
closed = 1;
nodes = (
"393 617 OFFCURVE",
"434 562 OFFCURVE",
"434 451 CURVE SMOOTH",
"434 331 OFFCURVE",
"403 69 OFFCURVE",
"244 69 CURVE SMOOTH",
"172 69 OFFCURVE",
"131 124 OFFCURVE",
"131 235 CURVE SMOOTH",
"131 354 OFFCURVE",
"169 617 OFFCURVE",
"321 617 CURVE SMOOTH"
);
}
);
};
layerId = UUID0;
name = "Regular Italic";
paths = (
{
closed = 1;
nodes = (
"393 617 OFFCURVE",
"434 562 OFFCURVE",
"434 451 CURVE SMOOTH",
"434 331 OFFCURVE",
"403 69 OFFCURVE",
"244 69 CURVE SMOOTH",
"172 69 OFFCURVE",
"131 124 OFFCURVE",
"131 235 CURVE SMOOTH",
"131 354 OFFCURVE",
"169 617 OFFCURVE",
"321 617 CURVE SMOOTH"
);
},
{
closed = 1;
nodes = (
"376 0 LINE",
"742 0 LINE",
"754 80 LINE",
"476 80 LINE",
"508 311 LINE",
"736 311 LINE",
"747 391 LINE",
"519 391 LINE",
"549 606 LINE",
"821 606 LINE",
"833 686 LINE",
"473 686 LINE",
"463 618 LINE",
"434 671 OFFCURVE",
"386 698 OFFCURVE",
"322 698 CURVE SMOOTH",
"100 698 OFFCURVE",
"40 394 OFFCURVE",
"40 231 CURVE SMOOTH",
"40 68 OFFCURVE",
"106 -12 OFFCURVE",
"223 -12 CURVE SMOOTH",
"287 -12 OFFCURVE",
"341 14 OFFCURVE",
"386 68 CURVE"
);
}
);
width = 820;
}
);
unicode = 0152;
},
{
color = (31,255,0,1);
glyphname = P;
lastChange = "2015-02-05 02:37:04 +0000";
layers = (
{
background = {
paths = (
{
closed = 1;
nodes = (
"131 686 LINE",
"34 0 LINE",
"122 0 LINE",
"162 281 LINE",
"319 281 LINE SMOOTH",
"458 281 OFFCURVE",
"555 370 OFFCURVE",
"555 515 CURVE SMOOTH",
"555 618 OFFCURVE",
"493 686 OFFCURVE",
"366 686 CURVE SMOOTH"
);
},
{
closed = 1;
nodes = (
"361 602 LINE SMOOTH",
"427 602 OFFCURVE",
"462 563 OFFCURVE",
"462 499 CURVE SMOOTH",
"462 417 OFFCURVE",
"404 365 OFFCURVE",
"328 365 CURVE SMOOTH",
"174 365 LINE",
"207 602 LINE"
);
}
);
};
layerId = UUID0;
name = "Regular Italic";
paths = (
{
closed = 1;
nodes = (
"323 283 LINE SMOOTH",
"460 283 OFFCURVE",
"555 367 OFFCURVE",
"555 512 CURVE SMOOTH",
"555 615 OFFCURVE",
"493 686 OFFCURVE",
"366 686 CURVE SMOOTH",
"131 686 LINE",
"34 0 LINE",
"122 0 LINE",
"162 283 LINE"
);
},
{
closed = 1;
nodes = (
"361 606 LINE SMOOTH",
"427 606 OFFCURVE",
"462 562 OFFCURVE",
"462 496 CURVE SMOOTH",
"462 414 OFFCURVE",
"406 363 OFFCURVE",
"332 363 CURVE SMOOTH",
"174 363 LINE",
"207 606 LINE"
);
}
);
width = 547;
}
);
unicode = 0050;
},
{
color = (31,255,0,1);
glyphname = Thorn;
lastChange = "2015-02-05 02:37:04 +0000";
layers = (
{
background = {
paths = (
{
closed = 1;
nodes = (
"219 686 LINE",
"131 686 LINE",
"34 0 LINE",
"122 0 LINE",
"143 146 LINE",
"300 146 LINE SMOOTH",
"439 146 OFFCURVE",
"536 235 OFFCURVE",
"536 380 CURVE SMOOTH",
"536 483 OFFCURVE",
"474 551 OFFCURVE",
"347 551 CURVE SMOOTH",
"200 551 LINE"
);
},
{
closed = 1;
nodes = (
"342 467 LINE SMOOTH",
"408 467 OFFCURVE",
"443 428 OFFCURVE",
"443 364 CURVE SMOOTH",
"443 282 OFFCURVE",
"385 230 OFFCURVE",
"309 230 CURVE SMOOTH",
"155 230 LINE",
"188 467 LINE"
);
}
);
};
layerId = UUID0;
name = "Regular Italic";
paths = (
{
closed = 1;
nodes = (
"219 686 LINE",
"131 686 LINE",
"34 0 LINE",
"122 0 LINE",
"143 146 LINE",
"300 146 LINE SMOOTH",
"439 146 OFFCURVE",
"536 235 OFFCURVE",
"536 380 CURVE SMOOTH",
"536 483 OFFCURVE",
"474 551 OFFCURVE",
"347 551 CURVE SMOOTH",
"200 551 LINE"
);
},
{
closed = 1;
nodes = (
"342 471 LINE",
"408 471 OFFCURVE",
"443 430 OFFCURVE",
"443 364 CURVE SMOOTH",
"443 280 OFFCURVE",
"385 226 OFFCURVE",
"309 226 CURVE SMOOTH",
"154 226 LINE",
"189 471 LINE"
);
}
);
width = 547;
}
);
unicode = 00DE;
},
{
color = (31,255,0,1);
glyphname = Q;
lastChange = "2015-02-05 02:37:04 +0000";
layers = (
{
background = {
paths = (
{
closed = 1;
nodes = (
"128 698 OFFCURVE",
"51 438 OFFCURVE",
"51 247 CURVE SMOOTH",
"51 99 OFFCURVE",
"113 16 OFFCURVE",
"224 -6 CURVE",
"224 -6 OFFCURVE",
"223 -20 OFFCURVE",
"223 -26 CURVE SMOOTH",
"223 -83 OFFCURVE",
"257 -145 OFFCURVE",
"375 -145 CURVE SMOOTH",
"451 -145 OFFCURVE",
"514 -116 OFFCURVE",
"514 -116 CURVE",
"521 -70 LINE",
"395 -70 LINE SMOOTH",
"342 -70 OFFCURVE",
"321 -47 OFFCURVE",
"321 -17 CURVE SMOOTH",
"321 -10 LINE",
"530 13 OFFCURVE",
"605 251 OFFCURVE",
"605 437 CURVE SMOOTH",
"605 612 OFFCURVE",
"517 698 OFFCURVE",
"367 698 CURVE SMOOTH"
);
},
{
closed = 1;
nodes = (
"459 617 OFFCURVE",
"514 557 OFFCURVE",
"514 437 CURVE SMOOTH",
"514 290 OFFCURVE",
"470 69 OFFCURVE",
"289 69 CURVE SMOOTH",
"195 69 OFFCURVE",
"141 128 OFFCURVE",
"141 249 CURVE SMOOTH",
"141 398 OFFCURVE",
"186 617 OFFCURVE",
"366 617 CURVE SMOOTH"
);
}
);
};
layerId = UUID0;
name = "Regular Italic";
paths = (
{
closed = 1;
nodes = (
"51 73 OFFCURVE",
"138 -12 OFFCURVE",
"288 -12 CURVE SMOOTH",
"296 -12 LINE",
"400 -124 LINE",
"510 -124 LINE",
"388 5 LINE",
"550 66 OFFCURVE",
"605 275 OFFCURVE",
"605 437 CURVE SMOOTH",
"605 612 OFFCURVE",
"517 698 OFFCURVE",
"367 698 CURVE SMOOTH",
"126 698 OFFCURVE",
"51 438 OFFCURVE",
"51 247 CURVE SMOOTH"
);
},
{
closed = 1;
nodes = (
"459 617 OFFCURVE",
"514 557 OFFCURVE",
"514 437 CURVE SMOOTH",
"514 290 OFFCURVE",
"470 69 OFFCURVE",
"289 69 CURVE SMOOTH",
"195 69 OFFCURVE",
"141 128 OFFCURVE",
"141 249 CURVE SMOOTH",
"141 398 OFFCURVE",
"186 617 OFFCURVE",
"366 617 CURVE SMOOTH"
);
}
);
width = 638;
}
);
unicode = 0051;
},
{
color = (31,255,0,1);
glyphname = R;
lastChange = "2015-02-05 02:37:04 +0000";
layers = (
{
anchors = (
{
name = bottom;
position = "{300, 0}";
},
{
name = top;
position = "{350, 686}";
}
);
background = {
paths = (
{
closed = 1;
nodes = (
"130 686 LINE",
"34 0 LINE",
"122 0 LINE",
"164 302 LINE",
"327 302 LINE SMOOTH",
"383 302 OFFCURVE",
"426 269 OFFCURVE",
"426 209 CURVE SMOOTH",
"426 149 OFFCURVE",
"419 106 OFFCURVE",
"419 67 CURVE SMOOTH",
"419 28 OFFCURVE",
"441 -5 OFFCURVE",
"496 -5 CURVE SMOOTH",
"529 -5 OFFCURVE",
"542 3 OFFCURVE",
"542 3 CURVE",
"546 31 LINE",
"528 39 OFFCURVE",
"512 55 OFFCURVE",
"512 95 CURVE SMOOTH",
"512 135 OFFCURVE",
"520 151 OFFCURVE",
"520 222 CURVE SMOOTH",
"520 293 OFFCURVE",
"479 337 OFFCURVE",
"442 348 CURVE",
"442 352 LINE",
"509 373 OFFCURVE",
"574 439 OFFCURVE",
"574 533 CURVE SMOOTH",
"574 624 OFFCURVE",
"508 686 OFFCURVE",
"409 686 CURVE SMOOTH"
);
},
{
closed = 1;
nodes = (
"387 602 LINE SMOOTH",
"443 602 OFFCURVE",
"478 569 OFFCURVE",
"478 508 CURVE SMOOTH",
"478 440 OFFCURVE",
"427 386 OFFCURVE",
"351 386 CURVE SMOOTH",
"176 386 LINE",
"206 602 LINE"
);
}
);
};
layerId = UUID0;
name = "Regular Italic";
paths = (
{
closed = 1;
nodes = (
"583 622 OFFCURVE",
"527 686 OFFCURVE",
"397 686 CURVE SMOOTH",
"131 686 LINE",
"34 0 LINE",
"122 0 LINE",
"165 303 LINE",
"350 303 LINE",
"438 0 LINE",
"531 0 LINE",
"439 318 LINE",
"527 348 OFFCURVE",
"583 426 OFFCURVE",
"583 527 CURVE SMOOTH"
);
},
{
closed = 1;
nodes = (
"384 606 LINE SMOOTH",
"454 606 OFFCURVE",
"491 572 OFFCURVE",
"491 513 CURVE SMOOTH",
"491 436 OFFCURVE",
"430 383 OFFCURVE",
"353 383 CURVE SMOOTH",
"176 383 LINE",
"207 606 LINE"
);
}
);
width = 592;
}
);
unicode = 0052;
},
{
color = (31,255,0,1);
glyphname = Racute;
lastChange = "2015-02-05 02:37:04 +0000";
layers = (
{
background = {
paths = (
{
closed = 1;
nodes = (
"130 686 LINE",
"34 0 LINE",
"122 0 LINE",
"164 302 LINE",
"327 302 LINE SMOOTH",
"383 302 OFFCURVE",
"426 269 OFFCURVE",
"426 209 CURVE SMOOTH",
"426 149 OFFCURVE",
"419 106 OFFCURVE",
"419 67 CURVE SMOOTH",
"419 28 OFFCURVE",
"441 -5 OFFCURVE",
"496 -5 CURVE SMOOTH",
"529 -5 OFFCURVE",
"542 3 OFFCURVE",
"542 3 CURVE",
"546 31 LINE",
"528 39 OFFCURVE",
"512 55 OFFCURVE",
"512 95 CURVE SMOOTH",
"512 135 OFFCURVE",
"520 151 OFFCURVE",
"520 222 CURVE SMOOTH",
"520 293 OFFCURVE",
"479 337 OFFCURVE",
"442 348 CURVE",
"442 352 LINE",
"509 373 OFFCURVE",
"574 439 OFFCURVE",
"574 533 CURVE SMOOTH",
"574 624 OFFCURVE",
"508 686 OFFCURVE",
"409 686 CURVE SMOOTH"
);
},
{
closed = 1;
nodes = (
"387 602 LINE SMOOTH",
"443 602 OFFCURVE",
"478 569 OFFCURVE",
"478 508 CURVE SMOOTH",
"478 440 OFFCURVE",
"427 386 OFFCURVE",
"351 386 CURVE SMOOTH",
"176 386 LINE",
"206 602 LINE"
);
}
);
};
layerId = UUID0;
name = "Regular Italic";
paths = (
{
closed = 1;
nodes = (
"483 883 LINE",
"393 883 LINE",
"307 751 LINE",
"376 751 LINE",
"484 880 LINE"
);
},
{
closed = 1;
nodes = (
"583 622 OFFCURVE",
"527 686 OFFCURVE",
"397 686 CURVE SMOOTH",
"131 686 LINE",
"34 0 LINE",
"122 0 LINE",
"165 303 LINE",
"350 303 LINE",
"438 0 LINE",
"531 0 LINE",
"439 318 LINE",
"527 348 OFFCURVE",
"583 426 OFFCURVE",
"583 527 CURVE SMOOTH"
);
},
{
closed = 1;
nodes = (
"384 606 LINE SMOOTH",
"454 606 OFFCURVE",
"491 572 OFFCURVE",
"491 513 CURVE SMOOTH",
"491 436 OFFCURVE",
"430 383 OFFCURVE",
"353 383 CURVE SMOOTH",
"176 383 LINE",
"207 606 LINE"
);
}
);
width = 592;
}
);
unicode = 0154;
},
{
color = (31,255,0,1);
glyphname = Rcaron;
lastChange = "2015-02-05 02:37:04 +0000";
layers = (
{
background = {
paths = (
{
closed = 1;
nodes = (
"130 686 LINE",
"34 0 LINE",
"122 0 LINE",
"164 302 LINE",
"327 302 LINE SMOOTH",
"383 302 OFFCURVE",
"426 269 OFFCURVE",
"426 209 CURVE SMOOTH",
"426 149 OFFCURVE",
"419 106 OFFCURVE",
"419 67 CURVE SMOOTH",
"419 28 OFFCURVE",
"441 -5 OFFCURVE",
"496 -5 CURVE SMOOTH",
"529 -5 OFFCURVE",
"542 3 OFFCURVE",
"542 3 CURVE",
"546 31 LINE",
"528 39 OFFCURVE",
"512 55 OFFCURVE",
"512 95 CURVE SMOOTH",
"512 135 OFFCURVE",
"520 151 OFFCURVE",
"520 222 CURVE SMOOTH",
"520 293 OFFCURVE",
"479 337 OFFCURVE",
"442 348 CURVE",
"442 352 LINE",
"509 373 OFFCURVE",
"574 439 OFFCURVE",
"574 533 CURVE SMOOTH",
"574 624 OFFCURVE",
"508 686 OFFCURVE",
"409 686 CURVE SMOOTH"
);
},
{
closed = 1;
nodes = (
"387 602 LINE SMOOTH",
"443 602 OFFCURVE",
"478 569 OFFCURVE",
"478 508 CURVE SMOOTH",
"478 440 OFFCURVE",
"427 386 OFFCURVE",
"351 386 CURVE SMOOTH",
"176 386 LINE",
"206 602 LINE"
);
}
);
};
layerId = UUID0;
name = "Regular Italic";
paths = (
{
closed = 1;
nodes = (
"500 883 LINE",
"417 883 LINE",
"365 804 LINE",
"332 883 LINE",
"252 883 LINE",
"318 748 LINE",
"396 748 LINE"
);
},
{
closed = 1;
nodes = (
"583 622 OFFCURVE",
"527 686 OFFCURVE",
"397 686 CURVE SMOOTH",
"131 686 LINE",
"34 0 LINE",
"122 0 LINE",
"165 303 LINE",
"350 303 LINE",
"438 0 LINE",
"531 0 LINE",
"439 318 LINE",
"527 348 OFFCURVE",
"583 426 OFFCURVE",
"583 527 CURVE SMOOTH"
);
},
{
closed = 1;
nodes = (
"384 606 LINE SMOOTH",
"454 606 OFFCURVE",
"491 572 OFFCURVE",
"491 513 CURVE SMOOTH",
"491 436 OFFCURVE",
"430 383 OFFCURVE",
"353 383 CURVE SMOOTH",
"176 383 LINE",
"207 606 LINE"
);
}
);
width = 592;
}
);
unicode = 0158;
},
{
color = (31,255,0,1);
glyphname = Rcommaaccent;
lastChange = "2015-02-05 02:37:04 +0000";
layers = (
{
background = {
paths = (
{
closed = 1;
nodes = (
"130 686 LINE",
"34 0 LINE",
"122 0 LINE",
"164 302 LINE",
"327 302 LINE SMOOTH",
"383 302 OFFCURVE",
"426 269 OFFCURVE",
"426 209 CURVE SMOOTH",
"426 149 OFFCURVE",
"419 106 OFFCURVE",
"419 67 CURVE SMOOTH",
"419 28 OFFCURVE",
"441 -5 OFFCURVE",
"496 -5 CURVE SMOOTH",
"529 -5 OFFCURVE",
"542 3 OFFCURVE",
"542 3 CURVE",
"546 31 LINE",
"528 39 OFFCURVE",
"512 55 OFFCURVE",
"512 95 CURVE SMOOTH",
"512 135 OFFCURVE",
"520 151 OFFCURVE",
"520 222 CURVE SMOOTH",
"520 293 OFFCURVE",
"479 337 OFFCURVE",
"442 348 CURVE",
"442 352 LINE",
"509 373 OFFCURVE",
"574 439 OFFCURVE",
"574 533 CURVE SMOOTH",
"574 624 OFFCURVE",
"508 686 OFFCURVE",
"409 686 CURVE SMOOTH"
);
},
{
closed = 1;
nodes = (
"387 602 LINE SMOOTH",
"443 602 OFFCURVE",
"478 569 OFFCURVE",
"478 508 CURVE SMOOTH",
"478 440 OFFCURVE",
"427 386 OFFCURVE",
"351 386 CURVE SMOOTH",
"176 386 LINE",
"206 602 LINE"
);
}
);
};
layerId = UUID0;
name = "Regular Italic";
paths = (
{
closed = 1;
nodes = (
"334 -60 LINE",
"250 -60 LINE",
"236 -151 LINE",
"271 -151 LINE",
"239 -220 LINE",
"287 -220 LINE",
"322 -144 LINE"
);
},
{
closed = 1;
nodes = (
"583 622 OFFCURVE",
"527 686 OFFCURVE",
"397 686 CURVE SMOOTH",
"131 686 LINE",
"34 0 LINE",
"122 0 LINE",
"165 303 LINE",
"350 303 LINE",
"438 0 LINE",
"531 0 LINE",
"439 318 LINE",
"527 348 OFFCURVE",
"583 426 OFFCURVE",
"583 527 CURVE SMOOTH"
);
},
{
closed = 1;
nodes = (
"384 606 LINE SMOOTH",
"454 606 OFFCURVE",
"491 572 OFFCURVE",
"491 513 CURVE SMOOTH",
"491 436 OFFCURVE",
"430 383 OFFCURVE",
"353 383 CURVE SMOOTH",
"176 383 LINE",
"207 606 LINE"
);
}
);
width = 592;
}
);
unicode = 0156;
},
{
glyphname = S;
lastChange = "2015-02-05 02:37:04 +0000";
layers = (
{
anchors = (
{
name = bottom;
position = "{243, 0}";
},
{
name = top;
position = "{339, 686}";
}
);
layerId = UUID0;
name = "Regular Italic";
paths = (
{
closed = 1;
nodes = (
"180 698 OFFCURVE",
"101 628 OFFCURVE",
"101 502 CURVE SMOOTH",
"101 300 OFFCURVE",
"398 341 OFFCURVE",
"398 190 CURVE SMOOTH",
"398 93 OFFCURVE",
"310 69 OFFCURVE",
"256 69 CURVE SMOOTH",
"174 69 OFFCURVE",
"122 105 OFFCURVE",
"122 187 CURVE SMOOTH",
"122 201 OFFCURVE",
"124 217 OFFCURVE",
"127 234 CURVE",
"36 234 LINE",
"33 218 OFFCURVE",
"33 203 OFFCURVE",
"33 188 CURVE SMOOTH",
"33 60 OFFCURVE",
"118 -12 OFFCURVE",
"249 -12 CURVE SMOOTH",
"442 -12 OFFCURVE",
"490 111 OFFCURVE",
"490 203 CURVE SMOOTH",
"490 416 OFFCURVE",
"192 369 OFFCURVE",
"192 512 CURVE SMOOTH",
"192 607 OFFCURVE",
"274 617 OFFCURVE",
"309 617 CURVE SMOOTH",
"365 617 OFFCURVE",
"435 599 OFFCURVE",
"435 485 CURVE",
"526 485 LINE",
"526 606 OFFCURVE",
"472 698 OFFCURVE",
"314 698 CURVE SMOOTH"
);
}
);
width = 547;
}
);
unicode = 0053;
},
{
glyphname = Sacute;
lastChange = "2015-02-05 02:37:04 +0000";
layers = (
{
layerId = UUID0;
name = "Regular Italic";
paths = (
{
closed = 1;
nodes = (
"180 698 OFFCURVE",
"101 628 OFFCURVE",
"101 502 CURVE SMOOTH",
"101 300 OFFCURVE",
"398 341 OFFCURVE",
"398 190 CURVE SMOOTH",
"398 93 OFFCURVE",
"310 69 OFFCURVE",
"256 69 CURVE SMOOTH",
"174 69 OFFCURVE",
"122 105 OFFCURVE",
"122 187 CURVE SMOOTH",
"122 201 OFFCURVE",
"124 217 OFFCURVE",
"127 234 CURVE",
"36 234 LINE",
"33 218 OFFCURVE",
"33 203 OFFCURVE",
"33 188 CURVE SMOOTH",
"33 60 OFFCURVE",
"118 -12 OFFCURVE",
"249 -12 CURVE SMOOTH",
"442 -12 OFFCURVE",
"490 111 OFFCURVE",
"490 203 CURVE SMOOTH",
"490 416 OFFCURVE",
"192 369 OFFCURVE",
"192 512 CURVE SMOOTH",
"192 607 OFFCURVE",
"274 617 OFFCURVE",
"309 617 CURVE SMOOTH",
"365 617 OFFCURVE",
"435 599 OFFCURVE",
"435 485 CURVE",
"526 485 LINE",
"526 606 OFFCURVE",
"472 698 OFFCURVE",
"314 698 CURVE SMOOTH"
);
},
{
closed = 1;
nodes = (
"472 883 LINE",
"382 883 LINE",
"296 751 LINE",
"365 751 LINE",
"473 880 LINE"
);
}
);
width = 547;
}
);
unicode = 015A;
},
{
glyphname = Scaron;
lastChange = "2015-02-05 02:37:04 +0000";
layers = (
{
layerId = UUID0;
name = "Regular Italic";
paths = (
{
closed = 1;
nodes = (
"180 698 OFFCURVE",
"101 628 OFFCURVE",
"101 502 CURVE SMOOTH",
"101 300 OFFCURVE",
"398 341 OFFCURVE",
"398 190 CURVE SMOOTH",
"398 93 OFFCURVE",
"310 69 OFFCURVE",
"256 69 CURVE SMOOTH",
"174 69 OFFCURVE",
"122 105 OFFCURVE",
"122 187 CURVE SMOOTH",
"122 201 OFFCURVE",
"124 217 OFFCURVE",
"127 234 CURVE",
"36 234 LINE",
"33 218 OFFCURVE",
"33 203 OFFCURVE",
"33 188 CURVE SMOOTH",
"33 60 OFFCURVE",
"118 -12 OFFCURVE",
"249 -12 CURVE SMOOTH",
"442 -12 OFFCURVE",
"490 111 OFFCURVE",
"490 203 CURVE SMOOTH",
"490 416 OFFCURVE",
"192 369 OFFCURVE",
"192 512 CURVE SMOOTH",
"192 607 OFFCURVE",
"274 617 OFFCURVE",
"309 617 CURVE SMOOTH",
"365 617 OFFCURVE",
"435 599 OFFCURVE",
"435 485 CURVE",
"526 485 LINE",
"526 606 OFFCURVE",
"472 698 OFFCURVE",
"314 698 CURVE SMOOTH"
);
},
{
closed = 1;
nodes = (
"490 883 LINE",
"407 883 LINE",
"354 804 LINE",
"321 883 LINE",
"241 883 LINE",
"307 748 LINE",
"385 748 LINE"
);
}
);
width = 547;
}
);
unicode = 0160;
},
{
glyphname = Scedilla;
lastChange = "2015-02-05 02:37:04 +0000";
layers = (
{
layerId = UUID0;
name = "Regular Italic";
paths = (
{
closed = 1;
nodes = (
"526 485 LINE",
"526 606 OFFCURVE",
"472 698 OFFCURVE",
"314 698 CURVE SMOOTH",
"180 698 OFFCURVE",
"101 628 OFFCURVE",
"101 502 CURVE SMOOTH",
"101 300 OFFCURVE",
"398 341 OFFCURVE",
"398 190 CURVE SMOOTH",
"398 93 OFFCURVE",
"310 69 OFFCURVE",
"256 69 CURVE SMOOTH",
"174 69 OFFCURVE",
"122 105 OFFCURVE",
"122 187 CURVE SMOOTH",
"122 201 OFFCURVE",
"124 217 OFFCURVE",
"127 234 CURVE",
"36 234 LINE",
"33 218 OFFCURVE",
"33 203 OFFCURVE",
"33 188 CURVE SMOOTH",
"33 72 OFFCURVE",
"103 2 OFFCURVE",
"212 -10 CURVE",
"193 -77 LINE",
"226 -77 LINE SMOOTH",
"248 -77 OFFCURVE",
"257 -83 OFFCURVE",
"257 -95 CURVE SMOOTH",
"257 -119 OFFCURVE",
"241 -125 OFFCURVE",
"217 -125 CURVE SMOOTH",
"141 -125 LINE",
"134 -174 LINE",
"157 -179 OFFCURVE",
"189 -182 OFFCURVE",
"217 -182 CURVE SMOOTH",
"258 -182 OFFCURVE",
"333 -167 OFFCURVE",
"333 -90 CURVE SMOOTH",
"333 -53 OFFCURVE",
"299 -39 OFFCURVE",
"260 -36 CURVE",
"267 -12 LINE",
"445 -4 OFFCURVE",
"490 114 OFFCURVE",
"490 203 CURVE SMOOTH",
"490 416 OFFCURVE",
"192 369 OFFCURVE",
"192 512 CURVE SMOOTH",
"192 607 OFFCURVE",
"274 617 OFFCURVE",
"309 617 CURVE SMOOTH",
"365 617 OFFCURVE",
"435 599 OFFCURVE",
"435 485 CURVE"
);
}
);
width = 547;
}
);
unicode = 015E;
},
{
glyphname = Scircumflex;
lastChange = "2015-02-05 02:37:04 +0000";
layers = (
{
layerId = UUID0;
name = "Regular Italic";
paths = (
{
closed = 1;
nodes = (
"180 698 OFFCURVE",
"101 628 OFFCURVE",
"101 502 CURVE SMOOTH",
"101 300 OFFCURVE",
"398 341 OFFCURVE",
"398 190 CURVE SMOOTH",
"398 93 OFFCURVE",
"310 69 OFFCURVE",
"256 69 CURVE SMOOTH",
"174 69 OFFCURVE",
"122 105 OFFCURVE",
"122 187 CURVE SMOOTH",
"122 201 OFFCURVE",
"124 217 OFFCURVE",
"127 234 CURVE",
"36 234 LINE",
"33 218 OFFCURVE",
"33 203 OFFCURVE",
"33 188 CURVE SMOOTH",
"33 60 OFFCURVE",
"118 -12 OFFCURVE",
"249 -12 CURVE SMOOTH",
"442 -12 OFFCURVE",
"490 111 OFFCURVE",
"490 203 CURVE SMOOTH",
"490 416 OFFCURVE",
"192 369 OFFCURVE",
"192 512 CURVE SMOOTH",
"192 607 OFFCURVE",
"274 617 OFFCURVE",
"309 617 CURVE SMOOTH",
"365 617 OFFCURVE",
"435 599 OFFCURVE",
"435 485 CURVE",
"526 485 LINE",
"526 606 OFFCURVE",
"472 698 OFFCURVE",
"314 698 CURVE SMOOTH"
);
},
{
closed = 1;
nodes = (
"403 883 LINE",
"325 883 LINE",
"220 748 LINE",
"303 748 LINE",
"359 827 LINE",
"392 748 LINE",
"469 748 LINE"
);
}
);
width = 547;
}
);
unicode = 015C;
},
{
color = (31,255,0,1);
glyphname = T;
lastChange = "2015-02-05 02:37:04 +0000";
layers = (
{
anchors = (
{
name = bottom;
position = "{211, 0}";
},
{
name = center;
position = "{259, 343}";
},
{
name = top;
position = "{308, 686}";
}
);
background = {
paths = (
{
closed = 1;
nodes = (
"538 686 LINE",
"76 686 LINE",
"64 602 LINE",
"251 602 LINE",
"166 0 LINE",
"254 0 LINE",
"339 602 LINE",
"526 602 LINE"
);
}
);
};
layerId = UUID0;
name = "Regular Italic";
paths = (
{
closed = 1;
nodes = (
"64 606 LINE",
"251 606 LINE",
"166 0 LINE",
"254 0 LINE",
"339 606 LINE",
"526 606 LINE",
"538 686 LINE",
"76 686 LINE"
);
}
);
width = 501;
}
);
unicode = 0054;
},
{
color = (31,255,0,1);
glyphname = Tbar;
lastChange = "2015-02-05 02:37:04 +0000";
layers = (
{
background = {
paths = (
{
closed = 1;
nodes = (
"64 606 LINE",
"251 606 LINE",
"166 0 LINE",
"254 0 LINE",
"339 606 LINE",
"526 606 LINE",
"538 686 LINE",
"76 686 LINE"
);
}
);
};
layerId = UUID0;
name = "Regular Italic";
paths = (
{
closed = 1;
nodes = (
"339 606 LINE",
"526 606 LINE",
"538 686 LINE",
"76 686 LINE",
"64 606 LINE",
"251 606 LINE",
"221 393 LINE",
"103 393 LINE",
"92 321 LINE",
"211 321 LINE",
"166 0 LINE",
"254 0 LINE",
"299 321 LINE",
"429 321 LINE",
"439 393 LINE",
"309 393 LINE"
);
}
);
width = 501;
}
);
unicode = 0166;
},
{
color = (31,255,0,1);
glyphname = Tcaron;
lastChange = "2015-02-05 02:37:04 +0000";
layers = (
{
background = {
paths = (
{
closed = 1;
nodes = (
"538 686 LINE",
"76 686 LINE",
"64 602 LINE",
"251 602 LINE",
"166 0 LINE",
"254 0 LINE",
"339 602 LINE",
"526 602 LINE"
);
}
);
};
layerId = UUID0;
name = "Regular Italic";
paths = (
{
closed = 1;
nodes = (
"458 883 LINE",
"375 883 LINE",
"322 804 LINE",
"289 883 LINE",
"209 883 LINE",
"275 748 LINE",
"353 748 LINE"
);
},
{
closed = 1;
nodes = (
"64 606 LINE",
"251 606 LINE",
"166 0 LINE",
"254 0 LINE",
"339 606 LINE",
"526 606 LINE",
"538 686 LINE",
"76 686 LINE"
);
}
);
width = 501;
}
);
unicode = 0164;
},
{
color = (31,255,0,1);
glyphname = Tcommaaccent;
lastChange = "2015-02-05 02:37:04 +0000";
layers = (
{
background = {
paths = (
{
closed = 1;
nodes = (
"538 686 LINE",
"76 686 LINE",
"64 602 LINE",
"251 602 LINE",
"166 0 LINE",
"254 0 LINE",
"339 602 LINE",
"526 602 LINE"
);
}
);
};
layerId = UUID0;
name = "Regular Italic";
paths = (
{
closed = 1;
nodes = (
"246 -60 LINE",
"161 -60 LINE",
"147 -151 LINE",
"182 -151 LINE",
"150 -220 LINE",
"198 -220 LINE",
"233 -144 LINE"
);
},
{
closed = 1;
nodes = (
"64 606 LINE",
"251 606 LINE",
"166 0 LINE",
"254 0 LINE",
"339 606 LINE",
"526 606 LINE",
"538 686 LINE",
"76 686 LINE"
);
}
);
width = 501;
}
);
unicode = 0162;
},
{
glyphname = U;
lastChange = "2015-02-05 02:37:04 +0000";
layers = (
{
anchors = (
{
name = ogonek;
position = "{363, 5}";
},
{
name = top;
position = "{353, 686}";
}
);
layerId = UUID0;
name = "Regular Italic";
paths = (
{
closed = 1;
nodes = (
"579 686 LINE",
"491 686 LINE",
"425 218 LINE SMOOTH",
"411 121 OFFCURVE",
"352 69 OFFCURVE",
"266 69 CURVE SMOOTH",
"190 69 OFFCURVE",
"146 109 OFFCURVE",
"146 185 CURVE SMOOTH",
"146 207 OFFCURVE",
"215 686 OFFCURVE",
"215 686 CURVE",
"127 686 LINE",
"127 686 OFFCURVE",
"57 219 OFFCURVE",
"57 173 CURVE SMOOTH",
"57 52 OFFCURVE",
"133 -12 OFFCURVE",
"264 -12 CURVE SMOOTH",
"401 -12 OFFCURVE",
"491 69 OFFCURVE",
"513 223 CURVE SMOOTH"
);
}
);
width = 592;
}
);
unicode = 0055;
},
{
glyphname = Uacute;
lastChange = "2015-02-05 02:37:04 +0000";
layers = (
{
layerId = UUID0;
name = "Regular Italic";
paths = (
{
closed = 1;
nodes = (
"579 686 LINE",
"491 686 LINE",
"425 218 LINE SMOOTH",
"411 121 OFFCURVE",
"352 69 OFFCURVE",
"266 69 CURVE SMOOTH",
"190 69 OFFCURVE",
"146 109 OFFCURVE",
"146 185 CURVE SMOOTH",
"146 207 OFFCURVE",
"215 686 OFFCURVE",
"215 686 CURVE",
"127 686 LINE",
"127 686 OFFCURVE",
"57 219 OFFCURVE",
"57 173 CURVE SMOOTH",
"57 52 OFFCURVE",
"133 -12 OFFCURVE",
"264 -12 CURVE SMOOTH",
"401 -12 OFFCURVE",
"491 69 OFFCURVE",
"513 223 CURVE SMOOTH"
);
},
{
closed = 1;
nodes = (
"486 883 LINE",
"396 883 LINE",
"310 751 LINE",
"379 751 LINE",
"487 880 LINE"
);
}
);
width = 592;
}
);
unicode = 00DA;
},
{
glyphname = Ubreve;
lastChange = "2015-02-05 02:37:04 +0000";
layers = (
{
layerId = UUID0;
name = "Regular Italic";
paths = (
{
closed = 1;
nodes = (
"579 686 LINE",
"491 686 LINE",
"425 218 LINE SMOOTH",
"411 121 OFFCURVE",
"352 69 OFFCURVE",
"266 69 CURVE SMOOTH",
"190 69 OFFCURVE",
"146 109 OFFCURVE",
"146 185 CURVE SMOOTH",
"146 207 OFFCURVE",
"215 686 OFFCURVE",
"215 686 CURVE",
"127 686 LINE",
"127 686 OFFCURVE",
"57 219 OFFCURVE",
"57 173 CURVE SMOOTH",
"57 52 OFFCURVE",
"133 -12 OFFCURVE",
"264 -12 CURVE SMOOTH",
"401 -12 OFFCURVE",
"491 69 OFFCURVE",
"513 223 CURVE SMOOTH"
);
},
{
closed = 1;
nodes = (
"440 883 LINE",
"436 869 OFFCURVE",
"410 850 OFFCURVE",
"376 850 CURVE SMOOTH",
"343 850 OFFCURVE",
"322 869 OFFCURVE",
"321 883 CURVE",
"257 883 LINE",
"256 880 OFFCURVE",
"256 877 OFFCURVE",
"256 874 CURVE SMOOTH",
"256 831 OFFCURVE",
"298 786 OFFCURVE",
"372 786 CURVE SMOOTH",
"446 786 OFFCURVE",
"498 838 OFFCURVE",
"504 883 CURVE"
);
}
);
width = 592;
}
);
unicode = 016C;
},
{
glyphname = Ucircumflex;
lastChange = "2015-02-05 02:37:04 +0000";
layers = (
{
layerId = UUID0;
name = "Regular Italic";
paths = (
{
closed = 1;
nodes = (
"579 686 LINE",
"491 686 LINE",
"425 218 LINE SMOOTH",
"411 121 OFFCURVE",
"352 69 OFFCURVE",
"266 69 CURVE SMOOTH",
"190 69 OFFCURVE",
"146 109 OFFCURVE",
"146 185 CURVE SMOOTH",
"146 207 OFFCURVE",
"215 686 OFFCURVE",
"215 686 CURVE",
"127 686 LINE",
"127 686 OFFCURVE",
"57 219 OFFCURVE",
"57 173 CURVE SMOOTH",
"57 52 OFFCURVE",
"133 -12 OFFCURVE",
"264 -12 CURVE SMOOTH",
"401 -12 OFFCURVE",
"491 69 OFFCURVE",
"513 223 CURVE SMOOTH"
);
},
{
closed = 1;
nodes = (
"417 883 LINE",
"338 883 LINE",
"233 748 LINE",
"316 748 LINE",
"373 827 LINE",
"405 748 LINE",
"482 748 LINE"
);
}
);
width = 592;
}
);
unicode = 00DB;
},
{
glyphname = Udieresis;
lastChange = "2015-02-05 02:37:04 +0000";
layers = (
{
layerId = UUID0;
name = "Regular Italic";
paths = (
{
closed = 1;
nodes = (
"579 686 LINE",
"491 686 LINE",
"425 218 LINE SMOOTH",
"411 121 OFFCURVE",
"352 69 OFFCURVE",
"266 69 CURVE SMOOTH",
"190 69 OFFCURVE",
"146 109 OFFCURVE",
"146 185 CURVE SMOOTH",
"146 207 OFFCURVE",
"215 686 OFFCURVE",
"215 686 CURVE",
"127 686 LINE",
"127 686 OFFCURVE",
"57 219 OFFCURVE",
"57 173 CURVE SMOOTH",
"57 52 OFFCURVE",
"133 -12 OFFCURVE",
"264 -12 CURVE SMOOTH",
"401 -12 OFFCURVE",
"491 69 OFFCURVE",
"513 223 CURVE SMOOTH"
);
},
{
closed = 1;
nodes = (
"500 883 LINE",
"414 883 LINE",
"400 788 LINE",
"487 788 LINE"
);
},
{
closed = 1;
nodes = (
"351 883 LINE",
"264 883 LINE",
"250 788 LINE",
"337 788 LINE"
);
}
);
width = 592;
}
);
unicode = 00DC;
},
{
glyphname = Ugrave;
lastChange = "2015-02-05 02:37:04 +0000";
layers = (
{
layerId = UUID0;
name = "Regular Italic";
paths = (
{
closed = 1;
nodes = (
"579 686 LINE",
"491 686 LINE",
"425 218 LINE SMOOTH",
"411 121 OFFCURVE",
"352 69 OFFCURVE",
"266 69 CURVE SMOOTH",
"190 69 OFFCURVE",
"146 109 OFFCURVE",
"146 185 CURVE SMOOTH",
"146 207 OFFCURVE",
"215 686 OFFCURVE",
"215 686 CURVE",
"127 686 LINE",
"127 686 OFFCURVE",
"57 219 OFFCURVE",
"57 173 CURVE SMOOTH",
"57 52 OFFCURVE",
"133 -12 OFFCURVE",
"264 -12 CURVE SMOOTH",
"401 -12 OFFCURVE",
"491 69 OFFCURVE",
"513 223 CURVE SMOOTH"
);
},
{
closed = 1;
nodes = (
"354 883 LINE",
"265 883 LINE",
"263 880 LINE",
"353 751 LINE",
"422 751 LINE"
);
}
);
width = 592;
}
);
unicode = 00D9;
},
{
glyphname = Uhungarumlaut;
lastChange = "2015-02-05 02:37:04 +0000";
layers = (
{
layerId = UUID0;
name = "Regular Italic";
paths = (
{
closed = 1;
nodes = (
"579 686 LINE",
"491 686 LINE",
"425 218 LINE SMOOTH",
"411 121 OFFCURVE",
"352 69 OFFCURVE",
"266 69 CURVE SMOOTH",
"190 69 OFFCURVE",
"146 109 OFFCURVE",
"146 185 CURVE SMOOTH",
"146 207 OFFCURVE",
"215 686 OFFCURVE",
"215 686 CURVE",
"127 686 LINE",
"127 686 OFFCURVE",
"57 219 OFFCURVE",
"57 173 CURVE SMOOTH",
"57 52 OFFCURVE",
"133 -12 OFFCURVE",
"264 -12 CURVE SMOOTH",
"401 -12 OFFCURVE",
"491 69 OFFCURVE",
"513 223 CURVE SMOOTH"
);
},
{
closed = 1;
nodes = (
"514 883 LINE",
"423 883 LINE",
"361 751 LINE",
"431 751 LINE",
"515 880 LINE"
);
},
{
closed = 1;
nodes = (
"383 883 LINE",
"293 883 LINE",
"231 751 LINE",
"301 751 LINE",
"385 880 LINE"
);
}
);
width = 592;
}
);
unicode = 0170;
},
{
glyphname = Umacron;
lastChange = "2015-02-05 02:37:04 +0000";
layers = (
{
layerId = UUID0;
name = "Regular Italic";
paths = (
{
closed = 1;
nodes = (
"579 686 LINE",
"491 686 LINE",
"425 218 LINE SMOOTH",
"411 121 OFFCURVE",
"352 69 OFFCURVE",
"266 69 CURVE SMOOTH",
"190 69 OFFCURVE",
"146 109 OFFCURVE",
"146 185 CURVE SMOOTH",
"146 207 OFFCURVE",
"215 686 OFFCURVE",
"215 686 CURVE",
"127 686 LINE",
"127 686 OFFCURVE",
"57 219 OFFCURVE",
"57 173 CURVE SMOOTH",
"57 52 OFFCURVE",
"133 -12 OFFCURVE",
"264 -12 CURVE SMOOTH",
"401 -12 OFFCURVE",
"491 69 OFFCURVE",
"513 223 CURVE SMOOTH"
);
},
{
closed = 1;
nodes = (
"495 831 LINE",
"245 831 LINE",
"234 759 LINE",
"484 759 LINE"
);
}
);
width = 592;
}
);
unicode = 016A;
},
{
glyphname = Uogonek;
lastChange = "2015-02-05 02:37:04 +0000";
layers = (
{
layerId = UUID0;
name = "Regular Italic";
paths = (
{
closed = 1;
nodes = (
"579 686 LINE",
"491 686 LINE",
"425 218 LINE SMOOTH",
"411 121 OFFCURVE",
"352 69 OFFCURVE",
"266 69 CURVE SMOOTH",
"190 69 OFFCURVE",
"146 109 OFFCURVE",
"146 185 CURVE SMOOTH",
"146 207 OFFCURVE",
"215 686 OFFCURVE",
"215 686 CURVE",
"127 686 LINE",
"127 686 OFFCURVE",
"57 219 OFFCURVE",
"57 173 CURVE SMOOTH",
"57 52 OFFCURVE",
"133 -12 OFFCURVE",
"264 -12 CURVE SMOOTH",
"281 -12 LINE",
"258 -35 OFFCURVE",
"240 -64 OFFCURVE",
"240 -106 CURVE SMOOTH",
"240 -167 OFFCURVE",
"281 -185 OFFCURVE",
"322 -185 CURVE SMOOTH",
"342 -185 OFFCURVE",
"363 -180 OFFCURVE",
"385 -171 CURVE",
"392 -120 LINE",
"360 -120 LINE SMOOTH",
"332 -120 OFFCURVE",
"322 -101 OFFCURVE",
"322 -78 CURVE SMOOTH",
"322 -45 OFFCURVE",
"346 -12 OFFCURVE",
"363 5 CURVE",
"444 36 OFFCURVE",
"497 110 OFFCURVE",
"513 223 CURVE SMOOTH"
);
}
);
width = 592;
}
);
unicode = 0172;
},
{
glyphname = Uring;
lastChange = "2015-02-05 02:37:04 +0000";
layers = (
{
layerId = UUID0;
name = "Regular Italic";
paths = (
{
closed = 1;
nodes = (
"579 686 LINE",
"491 686 LINE",
"425 218 LINE SMOOTH",
"411 121 OFFCURVE",
"352 69 OFFCURVE",
"266 69 CURVE SMOOTH",
"190 69 OFFCURVE",
"146 109 OFFCURVE",
"146 185 CURVE SMOOTH",
"146 207 OFFCURVE",
"215 686 OFFCURVE",
"215 686 CURVE",
"127 686 LINE",
"127 686 OFFCURVE",
"57 219 OFFCURVE",
"57 173 CURVE SMOOTH",
"57 52 OFFCURVE",
"133 -12 OFFCURVE",
"264 -12 CURVE SMOOTH",
"401 -12 OFFCURVE",
"491 69 OFFCURVE",
"513 223 CURVE SMOOTH"
);
},
{
closed = 1;
nodes = (
"325 897 OFFCURVE",
"276 857 OFFCURVE",
"276 799 CURVE SMOOTH",
"276 750 OFFCURVE",
"313 715 OFFCURVE",
"363 715 CURVE SMOOTH",
"415 715 OFFCURVE",
"461 758 OFFCURVE",
"461 813 CURVE SMOOTH",
"461 861 OFFCURVE",
"425 897 OFFCURVE",
"375 897 CURVE SMOOTH"
);
},
{
closed = 1;
nodes = (
"398 857 OFFCURVE",
"417 835 OFFCURVE",
"417 810 CURVE SMOOTH",
"417 778 OFFCURVE",
"394 755 OFFCURVE",
"366 755 CURVE SMOOTH",
"339 755 OFFCURVE",
"321 777 OFFCURVE",
"321 802 CURVE SMOOTH",
"321 834 OFFCURVE",
"344 857 OFFCURVE",
"373 857 CURVE SMOOTH"
);
}
);
width = 592;
}
);
unicode = 016E;
},
{
glyphname = Utilde;
lastChange = "2015-02-05 02:37:04 +0000";
layers = (
{
layerId = UUID0;
name = "Regular Italic";
paths = (
{
closed = 1;
nodes = (
"579 686 LINE",
"491 686 LINE",
"425 218 LINE SMOOTH",
"411 121 OFFCURVE",
"352 69 OFFCURVE",
"266 69 CURVE SMOOTH",
"190 69 OFFCURVE",
"146 109 OFFCURVE",
"146 185 CURVE SMOOTH",
"146 207 OFFCURVE",
"215 686 OFFCURVE",
"215 686 CURVE",
"127 686 LINE",
"127 686 OFFCURVE",
"57 219 OFFCURVE",
"57 173 CURVE SMOOTH",
"57 52 OFFCURVE",
"133 -12 OFFCURVE",
"264 -12 CURVE SMOOTH",
"401 -12 OFFCURVE",
"491 69 OFFCURVE",
"513 223 CURVE SMOOTH"
);
},
{
closed = 1;
nodes = (
"466 883 LINE",
"460 860 OFFCURVE",
"445 852 OFFCURVE",
"427 852 CURVE SMOOTH",
"387 852 OFFCURVE",
"358 883 OFFCURVE",
"313 883 CURVE SMOOTH",
"255 883 OFFCURVE",
"225 825 OFFCURVE",
"218 779 CURVE",
"275 779 LINE",
"281 802 OFFCURVE",
"296 810 OFFCURVE",
"314 810 CURVE SMOOTH",
"354 810 OFFCURVE",
"383 779 OFFCURVE",
"428 779 CURVE SMOOTH",
"486 779 OFFCURVE",
"517 837 OFFCURVE",
"524 883 CURVE"
);
}
);
width = 592;
}
);
unicode = 0168;
},
{
glyphname = V;
lastChange = "2015-02-05 02:37:04 +0000";
layers = (
{
layerId = UUID0;
name = "Regular Italic";
paths = (
{
closed = 1;
nodes = (
"605 686 LINE",
"517 686 LINE",
"261 96 LINE",
"257 96 LINE",
"165 686 LINE",
"74 686 LINE",
"186 0 LINE",
"299 0 LINE"
);
}
);
width = 547;
}
);
unicode = 0056;
},
{
glyphname = W;
lastChange = "2015-02-05 02:37:04 +0000";
layers = (
{
anchors = (
{
name = top;
position = "{451, 686}";
}
);
layerId = UUID0;
name = "Regular Italic";
paths = (
{
closed = 1;
nodes = (
"831 686 LINE",
"749 686 LINE",
"578 212 LINE SMOOTH",
"562 167 OFFCURVE",
"540 90 OFFCURVE",
"540 90 CURVE",
"536 90 LINE",
"536 90 OFFCURVE",
"536 181 OFFCURVE",
"535 212 CURVE SMOOTH",
"518 686 LINE",
"391 686 LINE",
"247 212 LINE SMOOTH",
"229 152 OFFCURVE",
"213 90 OFFCURVE",
"213 90 CURVE",
"209 90 LINE",
"209 90 OFFCURVE",
"208 172 OFFCURVE",
"205 212 CURVE",
"166 686 LINE",
"77 686 LINE",
"139 0 LINE",
"253 0 LINE",
"401 465 LINE",
"415 511 OFFCURVE",
"436 603 OFFCURVE",
"436 603 CURVE",
"441 603 LINE",
"461 0 LINE",
"575 0 LINE"
);
}
);
width = 774;
}
);
unicode = 0057;
},
{
glyphname = Wacute;
lastChange = "2015-02-05 02:37:04 +0000";
layers = (
{
layerId = UUID0;
name = "Regular Italic";
paths = (
{
closed = 1;
nodes = (
"831 686 LINE",
"749 686 LINE",
"578 212 LINE SMOOTH",
"562 167 OFFCURVE",
"540 90 OFFCURVE",
"540 90 CURVE",
"536 90 LINE",
"536 90 OFFCURVE",
"536 181 OFFCURVE",
"535 212 CURVE SMOOTH",
"518 686 LINE",
"391 686 LINE",
"247 212 LINE SMOOTH",
"229 152 OFFCURVE",
"213 90 OFFCURVE",
"213 90 CURVE",
"209 90 LINE",
"209 90 OFFCURVE",
"208 172 OFFCURVE",
"205 212 CURVE",
"166 686 LINE",
"77 686 LINE",
"139 0 LINE",
"253 0 LINE",
"401 465 LINE",
"415 511 OFFCURVE",
"436 603 OFFCURVE",
"436 603 CURVE",
"441 603 LINE",
"461 0 LINE",
"575 0 LINE"
);
},
{
closed = 1;
nodes = (
"584 883 LINE",
"494 883 LINE",
"408 751 LINE",
"477 751 LINE",
"585 880 LINE"
);
}
);
width = 774;
}
);
unicode = 1E82;
},
{
glyphname = Wcircumflex;
lastChange = "2015-02-05 02:37:04 +0000";
layers = (
{
layerId = UUID0;
name = "Regular Italic";
paths = (
{
closed = 1;
nodes = (
"831 686 LINE",
"749 686 LINE",
"578 212 LINE SMOOTH",
"562 167 OFFCURVE",
"540 90 OFFCURVE",
"540 90 CURVE",
"536 90 LINE",
"536 90 OFFCURVE",
"536 181 OFFCURVE",
"535 212 CURVE SMOOTH",
"518 686 LINE",
"391 686 LINE",
"247 212 LINE SMOOTH",
"229 152 OFFCURVE",
"213 90 OFFCURVE",
"213 90 CURVE",
"209 90 LINE",
"209 90 OFFCURVE",
"208 172 OFFCURVE",
"205 212 CURVE",
"166 686 LINE",
"77 686 LINE",
"139 0 LINE",
"253 0 LINE",
"401 465 LINE",
"415 511 OFFCURVE",
"436 603 OFFCURVE",
"436 603 CURVE",
"441 603 LINE",
"461 0 LINE",
"575 0 LINE"
);
},
{
closed = 1;
nodes = (
"515 883 LINE",
"437 883 LINE",
"332 748 LINE",
"415 748 LINE",
"471 827 LINE",
"503 748 LINE",
"581 748 LINE"
);
}
);
width = 774;
}
);
unicode = 0174;
},
{
glyphname = Wdieresis;
lastChange = "2015-02-05 02:37:04 +0000";
layers = (
{
layerId = UUID0;
name = "Regular Italic";
paths = (
{
closed = 1;
nodes = (
"831 686 LINE",
"749 686 LINE",
"578 212 LINE SMOOTH",
"562 167 OFFCURVE",
"540 90 OFFCURVE",
"540 90 CURVE",
"536 90 LINE",
"536 90 OFFCURVE",
"536 181 OFFCURVE",
"535 212 CURVE SMOOTH",
"518 686 LINE",
"391 686 LINE",
"247 212 LINE SMOOTH",
"229 152 OFFCURVE",
"213 90 OFFCURVE",
"213 90 CURVE",
"209 90 LINE",
"209 90 OFFCURVE",
"208 172 OFFCURVE",
"205 212 CURVE",
"166 686 LINE",
"77 686 LINE",
"139 0 LINE",
"253 0 LINE",
"401 465 LINE",
"415 511 OFFCURVE",
"436 603 OFFCURVE",
"436 603 CURVE",
"441 603 LINE",
"461 0 LINE",
"575 0 LINE"
);
},
{
closed = 1;
nodes = (
"599 883 LINE",
"512 883 LINE",
"499 788 LINE",
"585 788 LINE"
);
},
{
closed = 1;
nodes = (
"449 883 LINE",
"362 883 LINE",
"349 788 LINE",
"436 788 LINE"
);
}
);
width = 774;
}
);
unicode = 1E84;
},
{
glyphname = Wgrave;
lastChange = "2015-02-05 02:37:04 +0000";
layers = (
{
layerId = UUID0;
name = "Regular Italic";
paths = (
{
closed = 1;
nodes = (
"831 686 LINE",
"749 686 LINE",
"578 212 LINE SMOOTH",
"562 167 OFFCURVE",
"540 90 OFFCURVE",
"540 90 CURVE",
"536 90 LINE",
"536 90 OFFCURVE",
"536 181 OFFCURVE",
"535 212 CURVE SMOOTH",
"518 686 LINE",
"391 686 LINE",
"247 212 LINE SMOOTH",
"229 152 OFFCURVE",
"213 90 OFFCURVE",
"213 90 CURVE",
"209 90 LINE",
"209 90 OFFCURVE",
"208 172 OFFCURVE",
"205 212 CURVE",
"166 686 LINE",
"77 686 LINE",
"139 0 LINE",
"253 0 LINE",
"401 465 LINE",
"415 511 OFFCURVE",
"436 603 OFFCURVE",
"436 603 CURVE",
"441 603 LINE",
"461 0 LINE",
"575 0 LINE"
);
},
{
closed = 1;
nodes = (
"453 883 LINE",
"363 883 LINE",
"361 880 LINE",
"451 751 LINE",
"520 751 LINE"
);
}
);
width = 774;
}
);
unicode = 1E80;
},
{
glyphname = X;
lastChange = "2015-02-05 02:37:04 +0000";
layers = (
{
layerId = UUID0;
name = "Regular Italic";
paths = (
{
closed = 1;
nodes = (
"483 686 LINE",
"483 685 OFFCURVE",
"301 441 OFFCURVE",
"301 441 CURVE",
"185 686 LINE",
"85 686 LINE",
"239 360 LINE",
"-31 0 LINE",
"66 0 LINE",
"277 280 LINE",
"408 0 LINE",
"507 0 LINE",
"338 361 LINE",
"338 361 OFFCURVE",
"582 685 OFFCURVE",
"582 686 CURVE"
);
}
);
width = 547;
}
);
unicode = 0058;
},
{
glyphname = Y;
lastChange = "2015-02-05 02:37:04 +0000";
layers = (
{
anchors = (
{
name = top;
position = "{339, 686}";
}
);
layerId = UUID0;
name = "Regular Italic";
paths = (
{
closed = 1;
nodes = (
"601 686 LINE",
"509 686 LINE",
"295 368 LINE",
"291 368 LINE",
"166 686 LINE",
"70 686 LINE",
"235 284 LINE",
"195 0 LINE",
"283 0 LINE",
"323 284 LINE"
);
}
);
width = 547;
}
);
unicode = 0059;
},
{
glyphname = Yacute;
lastChange = "2015-02-05 02:37:04 +0000";
layers = (
{
layerId = UUID0;
name = "Regular Italic";
paths = (
{
closed = 1;
nodes = (
"601 686 LINE",
"509 686 LINE",
"295 368 LINE",
"291 368 LINE",
"166 686 LINE",
"70 686 LINE",
"235 284 LINE",
"195 0 LINE",
"283 0 LINE",
"323 284 LINE"
);
},
{
closed = 1;
nodes = (
"472 883 LINE",
"381 883 LINE",
"295 751 LINE",
"365 751 LINE",
"473 880 LINE"
);
}
);
width = 547;
}
);
unicode = 00DD;
},
{
glyphname = Ycircumflex;
lastChange = "2015-02-05 02:37:04 +0000";
layers = (
{
layerId = UUID0;
name = "Regular Italic";
paths = (
{
closed = 1;
nodes = (
"601 686 LINE",
"509 686 LINE",
"295 368 LINE",
"291 368 LINE",
"166 686 LINE",
"70 686 LINE",
"235 284 LINE",
"195 0 LINE",
"283 0 LINE",
"323 284 LINE"
);
},
{
closed = 1;
nodes = (
"402 883 LINE",
"324 883 LINE",
"219 748 LINE",
"302 748 LINE",
"358 827 LINE",
"391 748 LINE",
"468 748 LINE"
);
}
);
width = 547;
}
);
unicode = 0176;
},
{
glyphname = Ydieresis;
lastChange = "2015-02-05 02:37:04 +0000";
layers = (
{
layerId = UUID0;
name = "Regular Italic";
paths = (
{
closed = 1;
nodes = (
"601 686 LINE",
"509 686 LINE",
"295 368 LINE",
"291 368 LINE",
"166 686 LINE",
"70 686 LINE",
"235 284 LINE",
"195 0 LINE",
"283 0 LINE",
"323 284 LINE"
);
},
{
closed = 1;
nodes = (
"486 883 LINE",
"399 883 LINE",
"386 788 LINE",
"473 788 LINE"
);
},
{
closed = 1;
nodes = (
"336 883 LINE",
"250 883 LINE",
"236 788 LINE",
"323 788 LINE"
);
}
);
width = 547;
}
);
unicode = 0178;
},
{
glyphname = Ygrave;
lastChange = "2015-02-05 02:37:04 +0000";
layers = (
{
layerId = UUID0;
name = "Regular Italic";
paths = (
{
closed = 1;
nodes = (
"601 686 LINE",
"509 686 LINE",
"295 368 LINE",
"291 368 LINE",
"166 686 LINE",
"70 686 LINE",
"235 284 LINE",
"195 0 LINE",
"283 0 LINE",
"323 284 LINE"
);
},
{
closed = 1;
nodes = (
"340 883 LINE",
"250 883 LINE",
"249 880 LINE",
"338 751 LINE",
"408 751 LINE"
);
}
);
width = 547;
}
);
unicode = 1EF2;
},
{
color = (31,255,0,1);
glyphname = Z;
lastChange = "2015-02-05 02:37:04 +0000";
layers = (
{
anchors = (
{
name = top;
position = "{312, 686}";
}
);
background = {
paths = (
{
closed = 1;
nodes = (
"526 686 LINE",
"98 686 LINE",
"86 602 LINE",
"385 602 LINE",
"-13 38 LINE",
"-16 0 LINE",
"439 0 LINE",
"451 84 LINE",
"124 84 LINE",
"523 648 LINE"
);
}
);
};
layerId = UUID0;
name = "Regular Italic";
paths = (
{
closed = 1;
nodes = (
"439 0 LINE",
"451 80 LINE",
"121 80 LINE",
"523 648 LINE",
"526 686 LINE",
"98 686 LINE",
"86 606 LINE",
"388 606 LINE",
"-13 38 LINE",
"-16 0 LINE"
);
}
);
width = 501;
}
);
unicode = 005A;
},
{
color = (31,255,0,1);
glyphname = Zacute;
lastChange = "2015-02-05 02:37:04 +0000";
layers = (
{
background = {
paths = (
{
closed = 1;
nodes = (
"526 686 LINE",
"98 686 LINE",
"86 602 LINE",
"385 602 LINE",
"-13 38 LINE",
"-16 0 LINE",
"439 0 LINE",
"451 84 LINE",
"124 84 LINE",
"523 648 LINE"
);
}
);
};
layerId = UUID0;
name = "Regular Italic";
paths = (
{
closed = 1;
nodes = (
"445 883 LINE",
"354 883 LINE",
"269 751 LINE",
"338 751 LINE",
"446 880 LINE"
);
},
{
closed = 1;
nodes = (
"439 0 LINE",
"451 80 LINE",
"121 80 LINE",
"523 648 LINE",
"526 686 LINE",
"98 686 LINE",
"86 606 LINE",
"388 606 LINE",
"-13 38 LINE",
"-16 0 LINE"
);
}
);
width = 501;
}
);
unicode = 0179;
},
{
color = (31,255,0,1);
glyphname = Zcaron;
lastChange = "2015-02-05 02:37:04 +0000";
layers = (
{
background = {
paths = (
{
closed = 1;
nodes = (
"526 686 LINE",
"98 686 LINE",
"86 602 LINE",
"385 602 LINE",
"-13 38 LINE",
"-16 0 LINE",
"439 0 LINE",
"451 84 LINE",
"124 84 LINE",
"523 648 LINE"
);
}
);
};
layerId = UUID0;
name = "Regular Italic";
paths = (
{
closed = 1;
nodes = (
"462 883 LINE",
"379 883 LINE",
"327 804 LINE",
"293 883 LINE",
"214 883 LINE",
"280 748 LINE",
"357 748 LINE"
);
},
{
closed = 1;
nodes = (
"439 0 LINE",
"451 80 LINE",
"121 80 LINE",
"523 648 LINE",
"526 686 LINE",
"98 686 LINE",
"86 606 LINE",
"388 606 LINE",
"-13 38 LINE",
"-16 0 LINE"
);
}
);
width = 501;
}
);
unicode = 017D;
},
{
color = (31,255,0,1);
glyphname = Zdotaccent;
lastChange = "2015-02-05 02:37:04 +0000";
layers = (
{
background = {
paths = (
{
closed = 1;
nodes = (
"526 686 LINE",
"98 686 LINE",
"86 602 LINE",
"385 602 LINE",
"-13 38 LINE",
"-16 0 LINE",
"439 0 LINE",
"451 84 LINE",
"124 84 LINE",
"523 648 LINE"
);
}
);
};
layerId = UUID0;
name = "Regular Italic";
paths = (
{
closed = 1;
nodes = (
"383 883 LINE",
"296 883 LINE",
"283 788 LINE",
"370 788 LINE"
);
},
{
closed = 1;
nodes = (
"439 0 LINE",
"451 80 LINE",
"121 80 LINE",
"523 648 LINE",
"526 686 LINE",
"98 686 LINE",
"86 606 LINE",
"388 606 LINE",
"-13 38 LINE",
"-16 0 LINE"
);
}
);
width = 501;
}
);
unicode = 017B;
},
{
color = (31,255,0,1);
glyphname = a;
lastChange = "2015-02-05 02:37:04 +0000";
layers = (
{
anchors = (
{
name = ogonek;
position = "{415, 4}";
},
{
name = top;
position = "{265, 526}";
}
);
background = {
paths = (
{
closed = 1;
nodes = (
"138 538 OFFCURVE",
"33 424 OFFCURVE",
"33 183 CURVE SMOOTH",
"33 48 OFFCURVE",
"89 -12 OFFCURVE",
"166 -12 CURVE SMOOTH",
"213 -12 OFFCURVE",
"249 14 OFFCURVE",
"287 71 CURVE",
"288 12 OFFCURVE",
"317 -12 OFFCURVE",
"359 -12 CURVE SMOOTH",
"385 -12 OFFCURVE",
"405 -3 OFFCURVE",
"415 4 CURVE",
"423 61 LINE",
"391 61 LINE SMOOTH",
"378 61 OFFCURVE",
"367 69 OFFCURVE",
"367 89 CURVE SMOOTH",
"367 101 OFFCURVE",
"428 526 OFFCURVE",
"428 526 CURVE",
"386 526 LINE",
"345 453 LINE",
"325 518 OFFCURVE",
"284 538 OFFCURVE",
"236 538 CURVE SMOOTH"
);
},
{
closed = 1;
nodes = (
"294 465 OFFCURVE",
"317 427 OFFCURVE",
"317 352 CURVE SMOOTH",
"317 272 OFFCURVE",
"286 61 OFFCURVE",
"191 61 CURVE SMOOTH",
"142 61 OFFCURVE",
"117 99 OFFCURVE",
"117 175 CURVE SMOOTH",
"117 261 OFFCURVE",
"141 465 OFFCURVE",
"248 465 CURVE SMOOTH"
);
}
);
};
layerId = UUID0;
name = "Regular Italic";
paths = (
{
closed = 1;
nodes = (
"138 538 OFFCURVE",
"33 424 OFFCURVE",
"33 183 CURVE SMOOTH",
"33 48 OFFCURVE",
"89 -12 OFFCURVE",
"166 -12 CURVE SMOOTH",
"213 -12 OFFCURVE",
"249 14 OFFCURVE",
"287 71 CURVE",
"288 12 OFFCURVE",
"317 -12 OFFCURVE",
"359 -12 CURVE SMOOTH",
"385 -12 OFFCURVE",
"405 -3 OFFCURVE",
"415 4 CURVE",
"423 61 LINE",
"391 61 LINE SMOOTH",
"378 61 OFFCURVE",
"367 69 OFFCURVE",
"367 89 CURVE SMOOTH",
"367 101 OFFCURVE",
"428 526 OFFCURVE",
"428 526 CURVE",
"363 526 LINE",
"345 453 LINE",
"325 518 OFFCURVE",
"284 538 OFFCURVE",
"236 538 CURVE SMOOTH"
);
},
{
closed = 1;
nodes = (
"294 465 OFFCURVE",
"317 427 OFFCURVE",
"317 352 CURVE SMOOTH",
"317 272 OFFCURVE",
"286 61 OFFCURVE",
"191 61 CURVE SMOOTH",
"142 61 OFFCURVE",
"117 99 OFFCURVE",
"117 175 CURVE SMOOTH",
"117 261 OFFCURVE",
"141 465 OFFCURVE",
"248 465 CURVE SMOOTH"
);
}
);
width = 456;
}
);
unicode = 0061;
},
{
color = (31,255,0,1);
glyphname = aacute;
lastChange = "2015-02-05 02:37:04 +0000";
layers = (
{
background = {
paths = (
{
closed = 1;
nodes = (
"138 538 OFFCURVE",
"33 424 OFFCURVE",
"33 183 CURVE SMOOTH",
"33 48 OFFCURVE",
"89 -12 OFFCURVE",
"166 -12 CURVE SMOOTH",
"213 -12 OFFCURVE",
"249 14 OFFCURVE",
"287 71 CURVE",
"288 12 OFFCURVE",
"317 -12 OFFCURVE",
"359 -12 CURVE SMOOTH",
"385 -12 OFFCURVE",
"405 -3 OFFCURVE",
"415 4 CURVE",
"423 61 LINE",
"391 61 LINE SMOOTH",
"378 61 OFFCURVE",
"367 69 OFFCURVE",
"367 89 CURVE SMOOTH",
"367 101 OFFCURVE",
"428 526 OFFCURVE",
"428 526 CURVE",
"386 526 LINE",
"345 453 LINE",
"325 518 OFFCURVE",
"284 538 OFFCURVE",
"236 538 CURVE SMOOTH"
);
},
{
closed = 1;
nodes = (
"294 465 OFFCURVE",
"317 427 OFFCURVE",
"317 352 CURVE SMOOTH",
"317 272 OFFCURVE",
"286 61 OFFCURVE",
"191 61 CURVE SMOOTH",
"142 61 OFFCURVE",
"117 99 OFFCURVE",
"117 175 CURVE SMOOTH",
"117 261 OFFCURVE",
"141 465 OFFCURVE",
"248 465 CURVE SMOOTH"
);
}
);
};
layerId = UUID0;
name = "Regular Italic";
paths = (
{
closed = 1;
nodes = (
"397 723 LINE",
"307 723 LINE",
"221 591 LINE",
"291 591 LINE",
"398 720 LINE"
);
},
{
closed = 1;
nodes = (
"138 538 OFFCURVE",
"33 424 OFFCURVE",
"33 183 CURVE SMOOTH",
"33 48 OFFCURVE",
"89 -12 OFFCURVE",
"166 -12 CURVE SMOOTH",
"213 -12 OFFCURVE",
"249 14 OFFCURVE",
"287 71 CURVE",
"288 12 OFFCURVE",
"317 -12 OFFCURVE",
"359 -12 CURVE SMOOTH",
"385 -12 OFFCURVE",
"405 -3 OFFCURVE",
"415 4 CURVE",
"423 61 LINE",
"391 61 LINE SMOOTH",
"378 61 OFFCURVE",
"367 69 OFFCURVE",
"367 89 CURVE SMOOTH",
"367 101 OFFCURVE",
"428 526 OFFCURVE",
"428 526 CURVE",
"363 526 LINE",
"345 453 LINE",
"325 518 OFFCURVE",
"284 538 OFFCURVE",
"236 538 CURVE SMOOTH"
);
},
{
closed = 1;
nodes = (
"294 465 OFFCURVE",
"317 427 OFFCURVE",
"317 352 CURVE SMOOTH",
"317 272 OFFCURVE",
"286 61 OFFCURVE",
"191 61 CURVE SMOOTH",
"142 61 OFFCURVE",
"117 99 OFFCURVE",
"117 175 CURVE SMOOTH",
"117 261 OFFCURVE",
"141 465 OFFCURVE",
"248 465 CURVE SMOOTH"
);
}
);
width = 456;
}
);
unicode = 00E1;
},
{
color = (31,255,0,1);
glyphname = abreve;
lastChange = "2015-02-05 02:37:04 +0000";
layers = (
{
background = {
paths = (
{
closed = 1;
nodes = (
"138 538 OFFCURVE",
"33 424 OFFCURVE",
"33 183 CURVE SMOOTH",
"33 48 OFFCURVE",
"89 -12 OFFCURVE",
"166 -12 CURVE SMOOTH",
"213 -12 OFFCURVE",
"249 14 OFFCURVE",
"287 71 CURVE",
"288 12 OFFCURVE",
"317 -12 OFFCURVE",
"359 -12 CURVE SMOOTH",
"385 -12 OFFCURVE",
"405 -3 OFFCURVE",
"415 4 CURVE",
"423 61 LINE",
"391 61 LINE SMOOTH",
"378 61 OFFCURVE",
"367 69 OFFCURVE",
"367 89 CURVE SMOOTH",
"367 101 OFFCURVE",
"428 526 OFFCURVE",
"428 526 CURVE",
"386 526 LINE",
"345 453 LINE",
"325 518 OFFCURVE",
"284 538 OFFCURVE",
"236 538 CURVE SMOOTH"
);
},
{
closed = 1;
nodes = (
"294 465 OFFCURVE",
"317 427 OFFCURVE",
"317 352 CURVE SMOOTH",
"317 272 OFFCURVE",
"286 61 OFFCURVE",
"191 61 CURVE SMOOTH",
"142 61 OFFCURVE",
"117 99 OFFCURVE",
"117 175 CURVE SMOOTH",
"117 261 OFFCURVE",
"141 465 OFFCURVE",
"248 465 CURVE SMOOTH"
);
}
);
};
layerId = UUID0;
name = "Regular Italic";
paths = (
{
closed = 1;
nodes = (
"352 723 LINE",
"348 709 OFFCURVE",
"322 690 OFFCURVE",
"288 690 CURVE SMOOTH",
"255 690 OFFCURVE",
"234 709 OFFCURVE",
"233 723 CURVE",
"169 723 LINE",
"168 720 OFFCURVE",
"168 717 OFFCURVE",
"168 714 CURVE SMOOTH",
"168 671 OFFCURVE",
"210 626 OFFCURVE",
"284 626 CURVE SMOOTH",
"358 626 OFFCURVE",
"410 678 OFFCURVE",
"416 723 CURVE"
);
},
{
closed = 1;
nodes = (
"138 538 OFFCURVE",
"33 424 OFFCURVE",
"33 183 CURVE SMOOTH",
"33 48 OFFCURVE",
"89 -12 OFFCURVE",
"166 -12 CURVE SMOOTH",
"213 -12 OFFCURVE",
"249 14 OFFCURVE",
"287 71 CURVE",
"288 12 OFFCURVE",
"317 -12 OFFCURVE",
"359 -12 CURVE SMOOTH",
"385 -12 OFFCURVE",
"405 -3 OFFCURVE",
"415 4 CURVE",
"423 61 LINE",
"391 61 LINE SMOOTH",
"378 61 OFFCURVE",
"367 69 OFFCURVE",
"367 89 CURVE SMOOTH",
"367 101 OFFCURVE",
"428 526 OFFCURVE",
"428 526 CURVE",
"363 526 LINE",
"345 453 LINE",
"325 518 OFFCURVE",
"284 538 OFFCURVE",
"236 538 CURVE SMOOTH"
);
},
{
closed = 1;
nodes = (
"294 465 OFFCURVE",
"317 427 OFFCURVE",
"317 352 CURVE SMOOTH",
"317 272 OFFCURVE",
"286 61 OFFCURVE",
"191 61 CURVE SMOOTH",
"142 61 OFFCURVE",
"117 99 OFFCURVE",
"117 175 CURVE SMOOTH",
"117 261 OFFCURVE",
"141 465 OFFCURVE",
"248 465 CURVE SMOOTH"
);
}
);
width = 456;
}
);
unicode = 0103;
},
{
color = (31,255,0,1);
glyphname = acircumflex;
lastChange = "2015-02-05 02:37:04 +0000";
layers = (
{
background = {
paths = (
{
closed = 1;
nodes = (
"138 538 OFFCURVE",
"33 424 OFFCURVE",
"33 183 CURVE SMOOTH",
"33 48 OFFCURVE",
"89 -12 OFFCURVE",
"166 -12 CURVE SMOOTH",
"213 -12 OFFCURVE",
"249 14 OFFCURVE",
"287 71 CURVE",
"288 12 OFFCURVE",
"317 -12 OFFCURVE",
"359 -12 CURVE SMOOTH",
"385 -12 OFFCURVE",
"405 -3 OFFCURVE",
"415 4 CURVE",
"423 61 LINE",
"391 61 LINE SMOOTH",
"378 61 OFFCURVE",
"367 69 OFFCURVE",
"367 89 CURVE SMOOTH",
"367 101 OFFCURVE",
"428 526 OFFCURVE",
"428 526 CURVE",
"386 526 LINE",
"345 453 LINE",
"325 518 OFFCURVE",
"284 538 OFFCURVE",
"236 538 CURVE SMOOTH"
);
},
{
closed = 1;
nodes = (
"294 465 OFFCURVE",
"317 427 OFFCURVE",
"317 352 CURVE SMOOTH",
"317 272 OFFCURVE",
"286 61 OFFCURVE",
"191 61 CURVE SMOOTH",
"142 61 OFFCURVE",
"117 99 OFFCURVE",
"117 175 CURVE SMOOTH",
"117 261 OFFCURVE",
"141 465 OFFCURVE",
"248 465 CURVE SMOOTH"
);
}
);
};
layerId = UUID0;
name = "Regular Italic";
paths = (
{
closed = 1;
nodes = (
"328 723 LINE",
"250 723 LINE",
"145 588 LINE",
"228 588 LINE",
"284 667 LINE",
"317 588 LINE",
"394 588 LINE"
);
},
{
closed = 1;
nodes = (
"138 538 OFFCURVE",
"33 424 OFFCURVE",
"33 183 CURVE SMOOTH",
"33 48 OFFCURVE",
"89 -12 OFFCURVE",
"166 -12 CURVE SMOOTH",
"213 -12 OFFCURVE",
"249 14 OFFCURVE",
"287 71 CURVE",
"288 12 OFFCURVE",
"317 -12 OFFCURVE",
"359 -12 CURVE SMOOTH",
"385 -12 OFFCURVE",
"405 -3 OFFCURVE",
"415 4 CURVE",
"423 61 LINE",
"391 61 LINE SMOOTH",
"378 61 OFFCURVE",
"367 69 OFFCURVE",
"367 89 CURVE SMOOTH",
"367 101 OFFCURVE",
"428 526 OFFCURVE",
"428 526 CURVE",
"363 526 LINE",
"345 453 LINE",
"325 518 OFFCURVE",
"284 538 OFFCURVE",
"236 538 CURVE SMOOTH"
);
},
{
closed = 1;
nodes = (
"294 465 OFFCURVE",
"317 427 OFFCURVE",
"317 352 CURVE SMOOTH",
"317 272 OFFCURVE",
"286 61 OFFCURVE",
"191 61 CURVE SMOOTH",
"142 61 OFFCURVE",
"117 99 OFFCURVE",
"117 175 CURVE SMOOTH",
"117 261 OFFCURVE",
"141 465 OFFCURVE",
"248 465 CURVE SMOOTH"
);
}
);
width = 456;
}
);
unicode = 00E2;
},
{
color = (31,255,0,1);
glyphname = adieresis;
lastChange = "2015-02-05 02:37:04 +0000";
layers = (
{
background = {
paths = (
{
closed = 1;
nodes = (
"138 538 OFFCURVE",
"33 424 OFFCURVE",
"33 183 CURVE SMOOTH",
"33 48 OFFCURVE",
"89 -12 OFFCURVE",
"166 -12 CURVE SMOOTH",
"213 -12 OFFCURVE",
"249 14 OFFCURVE",
"287 71 CURVE",
"288 12 OFFCURVE",
"317 -12 OFFCURVE",
"359 -12 CURVE SMOOTH",
"385 -12 OFFCURVE",
"405 -3 OFFCURVE",
"415 4 CURVE",
"423 61 LINE",
"391 61 LINE SMOOTH",
"378 61 OFFCURVE",
"367 69 OFFCURVE",
"367 89 CURVE SMOOTH",
"367 101 OFFCURVE",
"428 526 OFFCURVE",
"428 526 CURVE",
"386 526 LINE",
"345 453 LINE",
"325 518 OFFCURVE",
"284 538 OFFCURVE",
"236 538 CURVE SMOOTH"
);
},
{
closed = 1;
nodes = (
"294 465 OFFCURVE",
"317 427 OFFCURVE",
"317 352 CURVE SMOOTH",
"317 272 OFFCURVE",
"286 61 OFFCURVE",
"191 61 CURVE SMOOTH",
"142 61 OFFCURVE",
"117 99 OFFCURVE",
"117 175 CURVE SMOOTH",
"117 261 OFFCURVE",
"141 465 OFFCURVE",
"248 465 CURVE SMOOTH"
);
}
);
};
layerId = UUID0;
name = "Regular Italic";
paths = (
{
closed = 1;
nodes = (
"412 723 LINE",
"325 723 LINE",
"312 628 LINE",
"399 628 LINE"
);
},
{
closed = 1;
nodes = (
"262 723 LINE",
"175 723 LINE",
"162 628 LINE",
"249 628 LINE"
);
},
{
closed = 1;
nodes = (
"138 538 OFFCURVE",
"33 424 OFFCURVE",
"33 183 CURVE SMOOTH",
"33 48 OFFCURVE",
"89 -12 OFFCURVE",
"166 -12 CURVE SMOOTH",
"213 -12 OFFCURVE",
"249 14 OFFCURVE",
"287 71 CURVE",
"288 12 OFFCURVE",
"317 -12 OFFCURVE",
"359 -12 CURVE SMOOTH",
"385 -12 OFFCURVE",
"405 -3 OFFCURVE",
"415 4 CURVE",
"423 61 LINE",
"391 61 LINE SMOOTH",
"378 61 OFFCURVE",
"367 69 OFFCURVE",
"367 89 CURVE SMOOTH",
"367 101 OFFCURVE",
"428 526 OFFCURVE",
"428 526 CURVE",
"363 526 LINE",
"345 453 LINE",
"325 518 OFFCURVE",
"284 538 OFFCURVE",
"236 538 CURVE SMOOTH"
);
},
{
closed = 1;
nodes = (
"294 465 OFFCURVE",
"317 427 OFFCURVE",
"317 352 CURVE SMOOTH",
"317 272 OFFCURVE",
"286 61 OFFCURVE",
"191 61 CURVE SMOOTH",
"142 61 OFFCURVE",
"117 99 OFFCURVE",
"117 175 CURVE SMOOTH",
"117 261 OFFCURVE",
"141 465 OFFCURVE",
"248 465 CURVE SMOOTH"
);
}
);
width = 456;
}
);
unicode = 00E4;
},
{
color = (31,255,0,1);
glyphname = agrave;
lastChange = "2015-02-05 02:37:04 +0000";
layers = (
{
background = {
paths = (
{
closed = 1;
nodes = (
"138 538 OFFCURVE",
"33 424 OFFCURVE",
"33 183 CURVE SMOOTH",
"33 48 OFFCURVE",
"89 -12 OFFCURVE",
"166 -12 CURVE SMOOTH",
"213 -12 OFFCURVE",
"249 14 OFFCURVE",
"287 71 CURVE",
"288 12 OFFCURVE",
"317 -12 OFFCURVE",
"359 -12 CURVE SMOOTH",
"385 -12 OFFCURVE",
"405 -3 OFFCURVE",
"415 4 CURVE",
"423 61 LINE",
"391 61 LINE SMOOTH",
"378 61 OFFCURVE",
"367 69 OFFCURVE",
"367 89 CURVE SMOOTH",
"367 101 OFFCURVE",
"428 526 OFFCURVE",
"428 526 CURVE",
"386 526 LINE",
"345 453 LINE",
"325 518 OFFCURVE",
"284 538 OFFCURVE",
"236 538 CURVE SMOOTH"
);
},
{
closed = 1;
nodes = (
"294 465 OFFCURVE",
"317 427 OFFCURVE",
"317 352 CURVE SMOOTH",
"317 272 OFFCURVE",
"286 61 OFFCURVE",
"191 61 CURVE SMOOTH",
"142 61 OFFCURVE",
"117 99 OFFCURVE",
"117 175 CURVE SMOOTH",
"117 261 OFFCURVE",
"141 465 OFFCURVE",
"248 465 CURVE SMOOTH"
);
}
);
};
layerId = UUID0;
name = "Regular Italic";
paths = (
{
closed = 1;
nodes = (
"266 723 LINE",
"176 723 LINE",
"174 720 LINE",
"264 591 LINE",
"333 591 LINE"
);
},
{
closed = 1;
nodes = (
"138 538 OFFCURVE",
"33 424 OFFCURVE",
"33 183 CURVE SMOOTH",
"33 48 OFFCURVE",
"89 -12 OFFCURVE",
"166 -12 CURVE SMOOTH",
"213 -12 OFFCURVE",
"249 14 OFFCURVE",
"287 71 CURVE",
"288 12 OFFCURVE",
"317 -12 OFFCURVE",
"359 -12 CURVE SMOOTH",
"385 -12 OFFCURVE",
"405 -3 OFFCURVE",
"415 4 CURVE",
"423 61 LINE",
"391 61 LINE SMOOTH",
"378 61 OFFCURVE",
"367 69 OFFCURVE",
"367 89 CURVE SMOOTH",
"367 101 OFFCURVE",
"428 526 OFFCURVE",
"428 526 CURVE",
"363 526 LINE",
"345 453 LINE",
"325 518 OFFCURVE",
"284 538 OFFCURVE",
"236 538 CURVE SMOOTH"
);
},
{
closed = 1;
nodes = (
"294 465 OFFCURVE",
"317 427 OFFCURVE",
"317 352 CURVE SMOOTH",
"317 272 OFFCURVE",
"286 61 OFFCURVE",
"191 61 CURVE SMOOTH",
"142 61 OFFCURVE",
"117 99 OFFCURVE",
"117 175 CURVE SMOOTH",
"117 261 OFFCURVE",
"141 465 OFFCURVE",
"248 465 CURVE SMOOTH"
);
}
);
width = 456;
}
);
unicode = 00E0;
},
{
color = (31,255,0,1);
glyphname = amacron;
lastChange = "2015-02-05 02:37:04 +0000";
layers = (
{
background = {
paths = (
{
closed = 1;
nodes = (
"138 538 OFFCURVE",
"33 424 OFFCURVE",
"33 183 CURVE SMOOTH",
"33 48 OFFCURVE",
"89 -12 OFFCURVE",
"166 -12 CURVE SMOOTH",
"213 -12 OFFCURVE",
"249 14 OFFCURVE",
"287 71 CURVE",
"288 12 OFFCURVE",
"317 -12 OFFCURVE",
"359 -12 CURVE SMOOTH",
"385 -12 OFFCURVE",
"405 -3 OFFCURVE",
"415 4 CURVE",
"423 61 LINE",
"391 61 LINE SMOOTH",
"378 61 OFFCURVE",
"367 69 OFFCURVE",
"367 89 CURVE SMOOTH",
"367 101 OFFCURVE",
"428 526 OFFCURVE",
"428 526 CURVE",
"386 526 LINE",
"345 453 LINE",
"325 518 OFFCURVE",
"284 538 OFFCURVE",
"236 538 CURVE SMOOTH"
);
},
{
closed = 1;
nodes = (
"294 465 OFFCURVE",
"317 427 OFFCURVE",
"317 352 CURVE SMOOTH",
"317 272 OFFCURVE",
"286 61 OFFCURVE",
"191 61 CURVE SMOOTH",
"142 61 OFFCURVE",
"117 99 OFFCURVE",
"117 175 CURVE SMOOTH",
"117 261 OFFCURVE",
"141 465 OFFCURVE",
"248 465 CURVE SMOOTH"
);
}
);
};
layerId = UUID0;
name = "Regular Italic";
paths = (
{
closed = 1;
nodes = (
"407 671 LINE",
"157 671 LINE",
"146 599 LINE",
"396 599 LINE"
);
},
{
closed = 1;
nodes = (
"138 538 OFFCURVE",
"33 424 OFFCURVE",
"33 183 CURVE SMOOTH",
"33 48 OFFCURVE",
"89 -12 OFFCURVE",
"166 -12 CURVE SMOOTH",
"213 -12 OFFCURVE",
"249 14 OFFCURVE",
"287 71 CURVE",
"288 12 OFFCURVE",
"317 -12 OFFCURVE",
"359 -12 CURVE SMOOTH",
"385 -12 OFFCURVE",
"405 -3 OFFCURVE",
"415 4 CURVE",
"423 61 LINE",
"391 61 LINE SMOOTH",
"378 61 OFFCURVE",
"367 69 OFFCURVE",
"367 89 CURVE SMOOTH",
"367 101 OFFCURVE",
"428 526 OFFCURVE",
"428 526 CURVE",
"363 526 LINE",
"345 453 LINE",
"325 518 OFFCURVE",
"284 538 OFFCURVE",
"236 538 CURVE SMOOTH"
);
},
{
closed = 1;
nodes = (
"294 465 OFFCURVE",
"317 427 OFFCURVE",
"317 352 CURVE SMOOTH",
"317 272 OFFCURVE",
"286 61 OFFCURVE",
"191 61 CURVE SMOOTH",
"142 61 OFFCURVE",
"117 99 OFFCURVE",
"117 175 CURVE SMOOTH",
"117 261 OFFCURVE",
"141 465 OFFCURVE",
"248 465 CURVE SMOOTH"
);
}
);
width = 456;
}
);
unicode = 0101;
},
{
color = (31,255,0,1);
glyphname = aogonek;
lastChange = "2015-02-05 02:37:04 +0000";
layers = (
{
background = {
paths = (
{
closed = 1;
nodes = (
"138 538 OFFCURVE",
"33 424 OFFCURVE",
"33 183 CURVE SMOOTH",
"33 48 OFFCURVE",
"89 -12 OFFCURVE",
"166 -12 CURVE SMOOTH",
"213 -12 OFFCURVE",
"249 14 OFFCURVE",
"287 71 CURVE",
"288 12 OFFCURVE",
"317 -12 OFFCURVE",
"359 -12 CURVE SMOOTH",
"385 -12 OFFCURVE",
"405 -3 OFFCURVE",
"415 4 CURVE",
"423 61 LINE",
"391 61 LINE SMOOTH",
"378 61 OFFCURVE",
"367 69 OFFCURVE",
"367 89 CURVE SMOOTH",
"367 101 OFFCURVE",
"428 526 OFFCURVE",
"428 526 CURVE",
"363 526 LINE",
"345 453 LINE",
"325 518 OFFCURVE",
"284 538 OFFCURVE",
"236 538 CURVE SMOOTH"
);
},
{
closed = 1;
nodes = (
"294 465 OFFCURVE",
"317 427 OFFCURVE",
"317 352 CURVE SMOOTH",
"317 272 OFFCURVE",
"286 61 OFFCURVE",
"191 61 CURVE SMOOTH",
"142 61 OFFCURVE",
"117 99 OFFCURVE",
"117 175 CURVE SMOOTH",
"117 261 OFFCURVE",
"141 465 OFFCURVE",
"248 465 CURVE SMOOTH"
);
}
);
};
layerId = UUID0;
name = "Regular Italic";
paths = (
{
closed = 1;
nodes = (
"444 -121 LINE",
"412 -121 LINE SMOOTH",
"384 -121 OFFCURVE",
"374 -102 OFFCURVE",
"374 -79 CURVE SMOOTH",
"374 -46 OFFCURVE",
"398 -13 OFFCURVE",
"415 4 CURVE",
"423 61 LINE",
"391 61 LINE SMOOTH",
"378 61 OFFCURVE",
"367 69 OFFCURVE",
"367 89 CURVE SMOOTH",
"367 101 OFFCURVE",
"428 526 OFFCURVE",
"428 526 CURVE",
"363 526 LINE",
"345 453 LINE",
"325 518 OFFCURVE",
"284 538 OFFCURVE",
"236 538 CURVE SMOOTH",
"138 538 OFFCURVE",
"33 424 OFFCURVE",
"33 183 CURVE SMOOTH",
"33 48 OFFCURVE",
"89 -12 OFFCURVE",
"166 -12 CURVE SMOOTH",
"213 -12 OFFCURVE",
"249 14 OFFCURVE",
"287 71 CURVE",
"288 23 OFFCURVE",
"307 -1 OFFCURVE",
"336 -9 CURVE",
"312 -33 OFFCURVE",
"292 -63 OFFCURVE",
"292 -107 CURVE SMOOTH",
"292 -168 OFFCURVE",
"333 -186 OFFCURVE",
"374 -186 CURVE SMOOTH",
"394 -186 OFFCURVE",
"415 -181 OFFCURVE",
"437 -172 CURVE"
);
},
{
closed = 1;
nodes = (
"142 61 OFFCURVE",
"117 99 OFFCURVE",
"117 175 CURVE SMOOTH",
"117 261 OFFCURVE",
"141 465 OFFCURVE",
"248 465 CURVE SMOOTH",
"294 465 OFFCURVE",
"317 427 OFFCURVE",
"317 352 CURVE SMOOTH",
"317 272 OFFCURVE",
"286 61 OFFCURVE",
"191 61 CURVE SMOOTH"
);
}
);
width = 456;
}
);
unicode = 0105;
},
{
color = (31,255,0,1);
glyphname = aring;
lastChange = "2015-02-05 02:37:04 +0000";
layers = (
{
background = {
paths = (
{
closed = 1;
nodes = (
"138 538 OFFCURVE",
"33 424 OFFCURVE",
"33 183 CURVE SMOOTH",
"33 48 OFFCURVE",
"89 -12 OFFCURVE",
"166 -12 CURVE SMOOTH",
"213 -12 OFFCURVE",
"249 14 OFFCURVE",
"287 71 CURVE",
"288 12 OFFCURVE",
"317 -12 OFFCURVE",
"359 -12 CURVE SMOOTH",
"385 -12 OFFCURVE",
"405 -3 OFFCURVE",
"415 4 CURVE",
"423 61 LINE",
"391 61 LINE SMOOTH",
"378 61 OFFCURVE",
"367 69 OFFCURVE",
"367 89 CURVE SMOOTH",
"367 101 OFFCURVE",
"428 526 OFFCURVE",
"428 526 CURVE",
"386 526 LINE",
"345 453 LINE",
"325 518 OFFCURVE",
"284 538 OFFCURVE",
"236 538 CURVE SMOOTH"
);
},
{
closed = 1;
nodes = (
"294 465 OFFCURVE",
"317 427 OFFCURVE",
"317 352 CURVE SMOOTH",
"317 272 OFFCURVE",
"286 61 OFFCURVE",
"191 61 CURVE SMOOTH",
"142 61 OFFCURVE",
"117 99 OFFCURVE",
"117 175 CURVE SMOOTH",
"117 261 OFFCURVE",
"141 465 OFFCURVE",
"248 465 CURVE SMOOTH"
);
}
);
};
layerId = UUID0;
name = "Regular Italic";
paths = (
{
closed = 1;
nodes = (
"236 737 OFFCURVE",
"188 697 OFFCURVE",
"188 639 CURVE SMOOTH",
"188 590 OFFCURVE",
"225 555 OFFCURVE",
"274 555 CURVE SMOOTH",
"326 555 OFFCURVE",
"373 598 OFFCURVE",
"373 653 CURVE SMOOTH",
"373 701 OFFCURVE",
"336 737 OFFCURVE",
"287 737 CURVE SMOOTH"
);
},
{
closed = 1;
nodes = (
"310 697 OFFCURVE",
"329 675 OFFCURVE",
"329 650 CURVE SMOOTH",
"329 618 OFFCURVE",
"305 595 OFFCURVE",
"277 595 CURVE SMOOTH",
"251 595 OFFCURVE",
"232 617 OFFCURVE",
"232 642 CURVE SMOOTH",
"232 674 OFFCURVE",
"255 697 OFFCURVE",
"284 697 CURVE SMOOTH"
);
},
{
closed = 1;
nodes = (
"138 538 OFFCURVE",
"33 424 OFFCURVE",
"33 183 CURVE SMOOTH",
"33 48 OFFCURVE",
"89 -12 OFFCURVE",
"166 -12 CURVE SMOOTH",
"213 -12 OFFCURVE",
"249 14 OFFCURVE",
"287 71 CURVE",
"288 12 OFFCURVE",
"317 -12 OFFCURVE",
"359 -12 CURVE SMOOTH",
"385 -12 OFFCURVE",
"405 -3 OFFCURVE",
"415 4 CURVE",
"423 61 LINE",
"391 61 LINE SMOOTH",
"378 61 OFFCURVE",
"367 69 OFFCURVE",
"367 89 CURVE SMOOTH",
"367 101 OFFCURVE",
"428 526 OFFCURVE",
"428 526 CURVE",
"363 526 LINE",
"345 453 LINE",
"325 518 OFFCURVE",
"284 538 OFFCURVE",
"236 538 CURVE SMOOTH"
);
},
{
closed = 1;
nodes = (
"294 465 OFFCURVE",
"317 427 OFFCURVE",
"317 352 CURVE SMOOTH",
"317 272 OFFCURVE",
"286 61 OFFCURVE",
"191 61 CURVE SMOOTH",
"142 61 OFFCURVE",
"117 99 OFFCURVE",
"117 175 CURVE SMOOTH",
"117 261 OFFCURVE",
"141 465 OFFCURVE",
"248 465 CURVE SMOOTH"
);
}
);
width = 456;
}
);
unicode = 00E5;
},
{
color = (31,255,0,1);
glyphname = aringacute;
lastChange = "2015-02-05 02:37:04 +0000";
layers = (
{
background = {
paths = (
{
closed = 1;
nodes = (
"138 538 OFFCURVE",
"33 424 OFFCURVE",
"33 183 CURVE SMOOTH",
"33 48 OFFCURVE",
"89 -12 OFFCURVE",
"166 -12 CURVE SMOOTH",
"213 -12 OFFCURVE",
"249 14 OFFCURVE",
"287 71 CURVE",
"288 12 OFFCURVE",
"317 -12 OFFCURVE",
"359 -12 CURVE SMOOTH",
"385 -12 OFFCURVE",
"405 -3 OFFCURVE",
"415 4 CURVE",
"423 61 LINE",
"391 61 LINE SMOOTH",
"378 61 OFFCURVE",
"367 69 OFFCURVE",
"367 89 CURVE SMOOTH",
"367 101 OFFCURVE",
"428 526 OFFCURVE",
"428 526 CURVE",
"386 526 LINE",
"345 453 LINE",
"325 518 OFFCURVE",
"284 538 OFFCURVE",
"236 538 CURVE SMOOTH"
);
},
{
closed = 1;
nodes = (
"294 465 OFFCURVE",
"317 427 OFFCURVE",
"317 352 CURVE SMOOTH",
"317 272 OFFCURVE",
"286 61 OFFCURVE",
"191 61 CURVE SMOOTH",
"142 61 OFFCURVE",
"117 99 OFFCURVE",
"117 175 CURVE SMOOTH",
"117 261 OFFCURVE",
"141 465 OFFCURVE",
"248 465 CURVE SMOOTH"
);
}
);
};
layerId = UUID0;
name = "Regular Italic";
paths = (
{
closed = 1;
nodes = (
"446 883 LINE",
"355 883 LINE",
"280 767 LINE",
"349 767 LINE",
"447 880 LINE"
);
},
{
closed = 1;
nodes = (
"236 737 OFFCURVE",
"188 697 OFFCURVE",
"188 639 CURVE SMOOTH",
"188 590 OFFCURVE",
"225 555 OFFCURVE",
"274 555 CURVE SMOOTH",
"326 555 OFFCURVE",
"373 598 OFFCURVE",
"373 653 CURVE SMOOTH",
"373 701 OFFCURVE",
"336 737 OFFCURVE",
"287 737 CURVE SMOOTH"
);
},
{
closed = 1;
nodes = (
"310 697 OFFCURVE",
"329 675 OFFCURVE",
"329 650 CURVE SMOOTH",
"329 618 OFFCURVE",
"305 595 OFFCURVE",
"277 595 CURVE SMOOTH",
"251 595 OFFCURVE",
"232 617 OFFCURVE",
"232 642 CURVE SMOOTH",
"232 674 OFFCURVE",
"255 697 OFFCURVE",
"284 697 CURVE SMOOTH"
);
},
{
closed = 1;
nodes = (
"138 538 OFFCURVE",
"33 424 OFFCURVE",
"33 183 CURVE SMOOTH",
"33 48 OFFCURVE",
"89 -12 OFFCURVE",
"166 -12 CURVE SMOOTH",
"213 -12 OFFCURVE",
"249 14 OFFCURVE",
"287 71 CURVE",
"288 12 OFFCURVE",
"317 -12 OFFCURVE",
"359 -12 CURVE SMOOTH",
"385 -12 OFFCURVE",
"405 -3 OFFCURVE",
"415 4 CURVE",
"423 61 LINE",
"391 61 LINE SMOOTH",
"378 61 OFFCURVE",
"367 69 OFFCURVE",
"367 89 CURVE SMOOTH",
"367 101 OFFCURVE",
"428 526 OFFCURVE",
"428 526 CURVE",
"363 526 LINE",
"345 453 LINE",
"325 518 OFFCURVE",
"284 538 OFFCURVE",
"236 538 CURVE SMOOTH"
);
},
{
closed = 1;
nodes = (
"294 465 OFFCURVE",
"317 427 OFFCURVE",
"317 352 CURVE SMOOTH",
"317 272 OFFCURVE",
"286 61 OFFCURVE",
"191 61 CURVE SMOOTH",
"142 61 OFFCURVE",
"117 99 OFFCURVE",
"117 175 CURVE SMOOTH",
"117 261 OFFCURVE",
"141 465 OFFCURVE",
"248 465 CURVE SMOOTH"
);
}
);
width = 456;
}
);
unicode = 01FB;
},
{
color = (31,255,0,1);
glyphname = atilde;
lastChange = "2015-02-05 02:37:04 +0000";
layers = (
{
background = {
paths = (
{
closed = 1;
nodes = (
"138 538 OFFCURVE",
"33 424 OFFCURVE",
"33 183 CURVE SMOOTH",
"33 48 OFFCURVE",
"89 -12 OFFCURVE",
"166 -12 CURVE SMOOTH",
"213 -12 OFFCURVE",
"249 14 OFFCURVE",
"287 71 CURVE",
"288 12 OFFCURVE",
"317 -12 OFFCURVE",
"359 -12 CURVE SMOOTH",
"385 -12 OFFCURVE",
"405 -3 OFFCURVE",
"415 4 CURVE",
"423 61 LINE",
"391 61 LINE SMOOTH",
"378 61 OFFCURVE",
"367 69 OFFCURVE",
"367 89 CURVE SMOOTH",
"367 101 OFFCURVE",
"428 526 OFFCURVE",
"428 526 CURVE",
"386 526 LINE",
"345 453 LINE",
"325 518 OFFCURVE",
"284 538 OFFCURVE",
"236 538 CURVE SMOOTH"
);
},
{
closed = 1;
nodes = (
"294 465 OFFCURVE",
"317 427 OFFCURVE",
"317 352 CURVE SMOOTH",
"317 272 OFFCURVE",
"286 61 OFFCURVE",
"191 61 CURVE SMOOTH",
"142 61 OFFCURVE",
"117 99 OFFCURVE",
"117 175 CURVE SMOOTH",
"117 261 OFFCURVE",
"141 465 OFFCURVE",
"248 465 CURVE SMOOTH"
);
}
);
};
layerId = UUID0;
name = "Regular Italic";
paths = (
{
closed = 1;
nodes = (
"377 723 LINE",
"372 700 OFFCURVE",
"356 692 OFFCURVE",
"339 692 CURVE SMOOTH",
"299 692 OFFCURVE",
"270 723 OFFCURVE",
"225 723 CURVE SMOOTH",
"167 723 OFFCURVE",
"137 665 OFFCURVE",
"129 619 CURVE",
"187 619 LINE",
"193 642 OFFCURVE",
"208 650 OFFCURVE",
"226 650 CURVE SMOOTH",
"266 650 OFFCURVE",
"294 619 OFFCURVE",
"340 619 CURVE SMOOTH",
"397 619 OFFCURVE",
"429 677 OFFCURVE",
"436 723 CURVE"
);
},
{
closed = 1;
nodes = (
"138 538 OFFCURVE",
"33 424 OFFCURVE",
"33 183 CURVE SMOOTH",
"33 48 OFFCURVE",
"89 -12 OFFCURVE",
"166 -12 CURVE SMOOTH",
"213 -12 OFFCURVE",
"249 14 OFFCURVE",
"287 71 CURVE",
"288 12 OFFCURVE",
"317 -12 OFFCURVE",
"359 -12 CURVE SMOOTH",
"385 -12 OFFCURVE",
"405 -3 OFFCURVE",
"415 4 CURVE",
"423 61 LINE",
"391 61 LINE SMOOTH",
"378 61 OFFCURVE",
"367 69 OFFCURVE",
"367 89 CURVE SMOOTH",
"367 101 OFFCURVE",
"428 526 OFFCURVE",
"428 526 CURVE",
"363 526 LINE",
"345 453 LINE",
"325 518 OFFCURVE",
"284 538 OFFCURVE",
"236 538 CURVE SMOOTH"
);
},
{
closed = 1;
nodes = (
"294 465 OFFCURVE",
"317 427 OFFCURVE",
"317 352 CURVE SMOOTH",
"317 272 OFFCURVE",
"286 61 OFFCURVE",
"191 61 CURVE SMOOTH",
"142 61 OFFCURVE",
"117 99 OFFCURVE",
"117 175 CURVE SMOOTH",
"117 261 OFFCURVE",
"141 465 OFFCURVE",
"248 465 CURVE SMOOTH"
);
}
);
width = 456;
}
);
unicode = 00E3;
},
{
glyphname = ae;
lastChange = "2015-02-05 02:37:04 +0000";
layers = (
{
anchors = (
{
name = top;
position = "{403, 526}";
}
);
layerId = UUID0;
name = "Regular Italic";
paths = (
{
closed = 1;
nodes = (
"472 538 OFFCURVE",
"429 516 OFFCURVE",
"396 482 CURVE",
"374 518 OFFCURVE",
"333 538 OFFCURVE",
"269 538 CURVE SMOOTH",
"163 538 OFFCURVE",
"83 474 OFFCURVE",
"83 370 CURVE",
"164 370 LINE",
"169 422 OFFCURVE",
"196 465 OFFCURVE",
"258 465 CURVE SMOOTH",
"314 465 OFFCURVE",
"331 440 OFFCURVE",
"331 403 CURVE SMOOTH",
"331 396 OFFCURVE",
"330 388 OFFCURVE",
"329 380 CURVE SMOOTH",
"319 312 LINE",
"160 312 OFFCURVE",
"26 278 OFFCURVE",
"26 113 CURVE SMOOTH",
"26 6 OFFCURVE",
"105 -12 OFFCURVE",
"166 -12 CURVE SMOOTH",
"226 -12 OFFCURVE",
"289 19 OFFCURVE",
"328 70 CURVE",
"355 14 OFFCURVE",
"406 -12 OFFCURVE",
"478 -12 CURVE SMOOTH",
"590 -12 OFFCURVE",
"656 76 OFFCURVE",
"672 178 CURVE",
"589 178 LINE",
"580 115 OFFCURVE",
"537 61 OFFCURVE",
"478 61 CURVE SMOOTH",
"421 61 OFFCURVE",
"393 102 OFFCURVE",
"393 186 CURVE SMOOTH",
"393 199 OFFCURVE",
"394 218 OFFCURVE",
"396 239 CURVE",
"685 239 LINE",
"691 277 OFFCURVE",
"693 315 OFFCURVE",
"693 349 CURVE SMOOTH",
"693 478 OFFCURVE",
"636 538 OFFCURVE",
"531 538 CURVE SMOOTH"
);
},
{
closed = 1;
nodes = (
"301 183 LINE SMOOTH",
"289 101 OFFCURVE",
"227 61 OFFCURVE",
"175 61 CURVE SMOOTH",
"135 61 OFFCURVE",
"113 79 OFFCURVE",
"113 129 CURVE SMOOTH",
"113 222 OFFCURVE",
"194 239 OFFCURVE",
"309 239 CURVE"
);
},
{
closed = 1;
nodes = (
"582 465 OFFCURVE",
"608 425 OFFCURVE",
"608 348 CURVE SMOOTH",
"608 339 OFFCURVE",
"608 325 OFFCURVE",
"607 312 CURVE",
"406 312 LINE",
"422 388 OFFCURVE",
"458 465 OFFCURVE",
"531 465 CURVE SMOOTH"
);
}
);
width = 729;
}
);
unicode = 00E6;
},
{
glyphname = aeacute;
lastChange = "2015-02-05 02:37:04 +0000";
layers = (
{
layerId = UUID0;
name = "Regular Italic";
paths = (
{
closed = 1;
nodes = (
"472 538 OFFCURVE",
"429 516 OFFCURVE",
"396 482 CURVE",
"374 518 OFFCURVE",
"333 538 OFFCURVE",
"269 538 CURVE SMOOTH",
"163 538 OFFCURVE",
"83 474 OFFCURVE",
"83 370 CURVE",
"164 370 LINE",
"169 422 OFFCURVE",
"196 465 OFFCURVE",
"258 465 CURVE SMOOTH",
"314 465 OFFCURVE",
"331 440 OFFCURVE",
"331 403 CURVE SMOOTH",
"331 396 OFFCURVE",
"330 388 OFFCURVE",
"329 380 CURVE SMOOTH",
"319 312 LINE",
"160 312 OFFCURVE",
"26 278 OFFCURVE",
"26 113 CURVE SMOOTH",
"26 6 OFFCURVE",
"105 -12 OFFCURVE",
"166 -12 CURVE SMOOTH",
"226 -12 OFFCURVE",
"289 19 OFFCURVE",
"328 70 CURVE",
"355 14 OFFCURVE",
"406 -12 OFFCURVE",
"478 -12 CURVE SMOOTH",
"590 -12 OFFCURVE",
"656 76 OFFCURVE",
"672 178 CURVE",
"589 178 LINE",
"580 115 OFFCURVE",
"537 61 OFFCURVE",
"478 61 CURVE SMOOTH",
"421 61 OFFCURVE",
"393 102 OFFCURVE",
"393 186 CURVE SMOOTH",
"393 199 OFFCURVE",
"394 218 OFFCURVE",
"396 239 CURVE",
"685 239 LINE",
"691 277 OFFCURVE",
"693 315 OFFCURVE",
"693 349 CURVE SMOOTH",
"693 478 OFFCURVE",
"636 538 OFFCURVE",
"531 538 CURVE SMOOTH"
);
},
{
closed = 1;
nodes = (
"301 183 LINE SMOOTH",
"289 101 OFFCURVE",
"227 61 OFFCURVE",
"175 61 CURVE SMOOTH",
"135 61 OFFCURVE",
"113 79 OFFCURVE",
"113 129 CURVE SMOOTH",
"113 222 OFFCURVE",
"194 239 OFFCURVE",
"309 239 CURVE"
);
},
{
closed = 1;
nodes = (
"582 465 OFFCURVE",
"608 425 OFFCURVE",
"608 348 CURVE SMOOTH",
"608 339 OFFCURVE",
"608 325 OFFCURVE",
"607 312 CURVE",
"406 312 LINE",
"422 388 OFFCURVE",
"458 465 OFFCURVE",
"531 465 CURVE SMOOTH"
);
},
{
closed = 1;
nodes = (
"536 723 LINE",
"445 723 LINE",
"359 591 LINE",
"429 591 LINE",
"537 720 LINE"
);
}
);
width = 729;
}
);
unicode = 01FD;
},
{
color = (31,255,0,1);
glyphname = b;
lastChange = "2015-02-05 02:37:04 +0000";
layers = (
{
background = {
paths = (
{
closed = 1;
nodes = (
"206 723 LINE",
"124 723 LINE",
"23 0 LINE",
"65 0 LINE",
"106 73 LINE",
"127 8 OFFCURVE",
"169 -12 OFFCURVE",
"219 -12 CURVE SMOOTH",
"317 -12 OFFCURVE",
"422 102 OFFCURVE",
"422 343 CURVE SMOOTH",
"422 478 OFFCURVE",
"366 538 OFFCURVE",
"289 538 CURVE SMOOTH",
"243 538 OFFCURVE",
"208 516 OFFCURVE",
"171 466 CURVE"
);
},
{
closed = 1;
nodes = (
"313 465 OFFCURVE",
"338 427 OFFCURVE",
"338 351 CURVE SMOOTH",
"338 265 OFFCURVE",
"314 61 OFFCURVE",
"207 61 CURVE SMOOTH",
"158 61 OFFCURVE",
"134 99 OFFCURVE",
"134 174 CURVE SMOOTH",
"134 254 OFFCURVE",
"160 465 OFFCURVE",
"264 465 CURVE SMOOTH"
);
}
);
};
layerId = UUID0;
name = "Regular Italic";
paths = (
{
closed = 1;
nodes = (
"124 723 LINE",
"23 0 LINE",
"88 0 LINE",
"106 73 LINE",
"127 8 OFFCURVE",
"169 -12 OFFCURVE",
"219 -12 CURVE SMOOTH",
"317 -12 OFFCURVE",
"422 102 OFFCURVE",
"422 343 CURVE SMOOTH",
"422 478 OFFCURVE",
"366 538 OFFCURVE",
"289 538 CURVE SMOOTH",
"243 538 OFFCURVE",
"208 516 OFFCURVE",
"171 466 CURVE",
"206 723 LINE"
);
},
{
closed = 1;
nodes = (
"158 61 OFFCURVE",
"134 99 OFFCURVE",
"134 174 CURVE SMOOTH",
"134 254 OFFCURVE",
"160 465 OFFCURVE",
"264 465 CURVE SMOOTH",
"313 465 OFFCURVE",
"338 427 OFFCURVE",
"338 351 CURVE SMOOTH",
"338 265 OFFCURVE",
"314 61 OFFCURVE",
"207 61 CURVE SMOOTH"
);
}
);
width = 456;
}
);
unicode = 0062;
},
{
glyphname = c;
lastChange = "2015-02-05 02:37:04 +0000";
layers = (
{
anchors = (
{
name = bottom;
position = "{175, 0}";
},
{
name = top;
position = "{250, 526}";
}
);
layerId = UUID0;
name = "Regular Italic";
paths = (
{
closed = 1;
nodes = (
"69 538 OFFCURVE",
"31 334 OFFCURVE",
"31 179 CURVE SMOOTH",
"31 48 OFFCURVE",
"93 -12 OFFCURVE",
"192 -12 CURVE SMOOTH",
"299 -12 OFFCURVE",
"361 85 OFFCURVE",
"374 192 CURVE",
"292 192 LINE",
"284 123 OFFCURVE",
"246 61 OFFCURVE",
"190 61 CURVE SMOOTH",
"142 61 OFFCURVE",
"116 107 OFFCURVE",
"116 186 CURVE SMOOTH",
"116 242 OFFCURVE",
"130 465 OFFCURVE",
"240 465 CURVE SMOOTH",
"284 465 OFFCURVE",
"305 425 OFFCURVE",
"305 348 CURVE SMOOTH",
"305 331 LINE",
"390 331 LINE",
"390 349 LINE SMOOTH",
"390 478 OFFCURVE",
"338 538 OFFCURVE",
"240 538 CURVE SMOOTH"
);
}
);
width = 410;
}
);
unicode = 0063;
},
{
glyphname = cacute;
lastChange = "2015-02-05 02:37:04 +0000";
layers = (
{
layerId = UUID0;
name = "Regular Italic";
paths = (
{
closed = 1;
nodes = (
"69 538 OFFCURVE",
"31 334 OFFCURVE",
"31 179 CURVE SMOOTH",
"31 48 OFFCURVE",
"93 -12 OFFCURVE",
"192 -12 CURVE SMOOTH",
"299 -12 OFFCURVE",
"361 85 OFFCURVE",
"374 192 CURVE",
"292 192 LINE",
"284 123 OFFCURVE",
"246 61 OFFCURVE",
"190 61 CURVE SMOOTH",
"142 61 OFFCURVE",
"116 107 OFFCURVE",
"116 186 CURVE SMOOTH",
"116 242 OFFCURVE",
"130 465 OFFCURVE",
"240 465 CURVE SMOOTH",
"284 465 OFFCURVE",
"305 425 OFFCURVE",
"305 348 CURVE SMOOTH",
"305 331 LINE",
"390 331 LINE",
"390 349 LINE SMOOTH",
"390 478 OFFCURVE",
"338 538 OFFCURVE",
"240 538 CURVE SMOOTH"
);
},
{
closed = 1;
nodes = (
"382 723 LINE",
"292 723 LINE",
"206 591 LINE",
"275 591 LINE",
"383 720 LINE"
);
}
);
width = 410;
}
);
unicode = 0107;
},
{
glyphname = ccaron;
lastChange = "2015-02-05 02:37:04 +0000";
layers = (
{
layerId = UUID0;
name = "Regular Italic";
paths = (
{
closed = 1;
nodes = (
"69 538 OFFCURVE",
"31 334 OFFCURVE",
"31 179 CURVE SMOOTH",
"31 48 OFFCURVE",
"93 -12 OFFCURVE",
"192 -12 CURVE SMOOTH",
"299 -12 OFFCURVE",
"361 85 OFFCURVE",
"374 192 CURVE",
"292 192 LINE",
"284 123 OFFCURVE",
"246 61 OFFCURVE",
"190 61 CURVE SMOOTH",
"142 61 OFFCURVE",
"116 107 OFFCURVE",
"116 186 CURVE SMOOTH",
"116 242 OFFCURVE",
"130 465 OFFCURVE",
"240 465 CURVE SMOOTH",
"284 465 OFFCURVE",
"305 425 OFFCURVE",
"305 348 CURVE SMOOTH",
"305 331 LINE",
"390 331 LINE",
"390 349 LINE SMOOTH",
"390 478 OFFCURVE",
"338 538 OFFCURVE",
"240 538 CURVE SMOOTH"
);
},
{
closed = 1;
nodes = (
"400 723 LINE",
"317 723 LINE",
"264 644 LINE",
"231 723 LINE",
"151 723 LINE",
"217 588 LINE",
"295 588 LINE"
);
}
);
width = 410;
}
);
unicode = 010D;
},
{
glyphname = ccedilla;
lastChange = "2015-02-05 02:37:04 +0000";
layers = (
{
layerId = UUID0;
name = "Regular Italic";
paths = (
{
closed = 1;
nodes = (
"305 331 LINE",
"390 331 LINE",
"390 349 LINE SMOOTH",
"390 478 OFFCURVE",
"338 538 OFFCURVE",
"240 538 CURVE SMOOTH",
"69 538 OFFCURVE",
"31 334 OFFCURVE",
"31 179 CURVE SMOOTH",
"31 70 OFFCURVE",
"74 10 OFFCURVE",
"146 -7 CURVE",
"125 -77 LINE",
"158 -77 LINE SMOOTH",
"180 -77 OFFCURVE",
"189 -83 OFFCURVE",
"189 -95 CURVE SMOOTH",
"189 -119 OFFCURVE",
"173 -125 OFFCURVE",
"149 -125 CURVE SMOOTH",
"73 -125 LINE",
"66 -174 LINE",
"89 -179 OFFCURVE",
"121 -182 OFFCURVE",
"149 -182 CURVE SMOOTH",
"190 -182 OFFCURVE",
"265 -167 OFFCURVE",
"265 -90 CURVE SMOOTH",
"265 -53 OFFCURVE",
"231 -39 OFFCURVE",
"192 -36 CURVE",
"199 -12 LINE",
"302 -8 OFFCURVE",
"361 87 OFFCURVE",
"374 192 CURVE",
"292 192 LINE",
"284 123 OFFCURVE",
"246 61 OFFCURVE",
"190 61 CURVE SMOOTH",
"142 61 OFFCURVE",
"116 107 OFFCURVE",
"116 186 CURVE SMOOTH",
"116 242 OFFCURVE",
"130 465 OFFCURVE",
"240 465 CURVE SMOOTH",
"284 465 OFFCURVE",
"305 425 OFFCURVE",
"305 348 CURVE SMOOTH"
);
}
);
width = 410;
}
);
unicode = 00E7;
},
{
glyphname = ccircumflex;
lastChange = "2015-02-05 02:37:04 +0000";
layers = (
{
layerId = UUID0;
name = "Regular Italic";
paths = (
{
closed = 1;
nodes = (
"69 538 OFFCURVE",
"31 334 OFFCURVE",
"31 179 CURVE SMOOTH",
"31 48 OFFCURVE",
"93 -12 OFFCURVE",
"192 -12 CURVE SMOOTH",
"299 -12 OFFCURVE",
"361 85 OFFCURVE",
"374 192 CURVE",
"292 192 LINE",
"284 123 OFFCURVE",
"246 61 OFFCURVE",
"190 61 CURVE SMOOTH",
"142 61 OFFCURVE",
"116 107 OFFCURVE",
"116 186 CURVE SMOOTH",
"116 242 OFFCURVE",
"130 465 OFFCURVE",
"240 465 CURVE SMOOTH",
"284 465 OFFCURVE",
"305 425 OFFCURVE",
"305 348 CURVE SMOOTH",
"305 331 LINE",
"390 331 LINE",
"390 349 LINE SMOOTH",
"390 478 OFFCURVE",
"338 538 OFFCURVE",
"240 538 CURVE SMOOTH"
);
},
{
closed = 1;
nodes = (
"313 723 LINE",
"235 723 LINE",
"130 588 LINE",
"213 588 LINE",
"269 667 LINE",
"302 588 LINE",
"379 588 LINE"
);
}
);
width = 410;
}
);
unicode = 0109;
},
{
glyphname = cdotaccent;
lastChange = "2015-02-05 02:37:04 +0000";
layers = (
{
layerId = UUID0;
name = "Regular Italic";
paths = (
{
closed = 1;
nodes = (
"69 538 OFFCURVE",
"31 334 OFFCURVE",
"31 179 CURVE SMOOTH",
"31 48 OFFCURVE",
"93 -12 OFFCURVE",
"192 -12 CURVE SMOOTH",
"299 -12 OFFCURVE",
"361 85 OFFCURVE",
"374 192 CURVE",
"292 192 LINE",
"284 123 OFFCURVE",
"246 61 OFFCURVE",
"190 61 CURVE SMOOTH",
"142 61 OFFCURVE",
"116 107 OFFCURVE",
"116 186 CURVE SMOOTH",
"116 242 OFFCURVE",
"130 465 OFFCURVE",
"240 465 CURVE SMOOTH",
"284 465 OFFCURVE",
"305 425 OFFCURVE",
"305 348 CURVE SMOOTH",
"305 331 LINE",
"390 331 LINE",
"390 349 LINE SMOOTH",
"390 478 OFFCURVE",
"338 538 OFFCURVE",
"240 538 CURVE SMOOTH"
);
},
{
closed = 1;
nodes = (
"321 723 LINE",
"234 723 LINE",
"221 628 LINE",
"308 628 LINE"
);
}
);
width = 410;
}
);
unicode = 010B;
},
{
glyphname = d;
lastChange = "2015-02-05 02:37:04 +0000";
layers = (
{
anchors = (
{
name = center;
position = "{228, 263}";
}
);
layerId = UUID0;
name = "Regular Italic";
paths = (
{
closed = 1;
nodes = (
"460 723 LINE",
"378 723 LINE",
"342 468 LINE",
"319 518 OFFCURVE",
"281 538 OFFCURVE",
"237 538 CURVE SMOOTH",
"139 538 OFFCURVE",
"34 424 OFFCURVE",
"34 183 CURVE SMOOTH",
"34 48 OFFCURVE",
"90 -12 OFFCURVE",
"167 -12 CURVE SMOOTH",
"215 -12 OFFCURVE",
"259 14 OFFCURVE",
"294 71 CURVE",
"294 0 LINE",
"359 0 LINE"
);
},
{
closed = 1;
nodes = (
"298 465 OFFCURVE",
"322 427 OFFCURVE",
"322 352 CURVE SMOOTH",
"322 272 OFFCURVE",
"296 61 OFFCURVE",
"192 61 CURVE SMOOTH",
"143 61 OFFCURVE",
"118 99 OFFCURVE",
"118 175 CURVE SMOOTH",
"118 261 OFFCURVE",
"142 465 OFFCURVE",
"249 465 CURVE SMOOTH"
);
}
);
width = 456;
}
);
unicode = 0064;
},
{
glyphname = eth;
lastChange = "2015-02-05 02:37:04 +0000";
layers = (
{
layerId = UUID0;
name = "Regular Italic";
paths = (
{
closed = 1;
nodes = (
"186 723 LINE",
"184 719 LINE",
"198 701 OFFCURVE",
"211 683 OFFCURVE",
"223 666 CURVE",
"151 660 LINE",
"143 600 LINE",
"262 610 LINE",
"279 582 OFFCURVE",
"295 555 OFFCURVE",
"306 526 CURVE",
"289 533 OFFCURVE",
"270 538 OFFCURVE",
"248 538 CURVE SMOOTH",
"144 538 OFFCURVE",
"35 433 OFFCURVE",
"35 177 CURVE SMOOTH",
"35 48 OFFCURVE",
"93 -12 OFFCURVE",
"202 -12 CURVE SMOOTH",
"328 -12 OFFCURVE",
"424 101 OFFCURVE",
"424 351 CURVE SMOOTH",
"424 455 OFFCURVE",
"396 542 OFFCURVE",
"350 618 CURVE",
"422 625 LINE",
"431 685 LINE",
"312 674 LINE",
"301 691 OFFCURVE",
"287 707 OFFCURVE",
"274 723 CURVE"
);
},
{
closed = 1;
nodes = (
"312 465 OFFCURVE",
"339 425 OFFCURVE",
"339 348 CURVE SMOOTH",
"339 277 OFFCURVE",
"323 61 OFFCURVE",
"201 61 CURVE SMOOTH",
"144 61 OFFCURVE",
"120 102 OFFCURVE",
"120 186 CURVE SMOOTH",
"120 255 OFFCURVE",
"137 465 OFFCURVE",
"258 465 CURVE SMOOTH"
);
}
);
width = 456;
}
);
unicode = 00F0;
},
{
glyphname = dcaron;
lastChange = "2015-02-05 02:37:04 +0000";
layers = (
{
layerId = UUID0;
name = "Regular Italic";
paths = (
{
closed = 1;
nodes = (
"460 723 LINE",
"378 723 LINE",
"342 468 LINE",
"319 518 OFFCURVE",
"281 538 OFFCURVE",
"237 538 CURVE SMOOTH",
"139 538 OFFCURVE",
"34 424 OFFCURVE",
"34 183 CURVE SMOOTH",
"34 48 OFFCURVE",
"90 -12 OFFCURVE",
"167 -12 CURVE SMOOTH",
"215 -12 OFFCURVE",
"259 14 OFFCURVE",
"294 71 CURVE",
"294 0 LINE",
"359 0 LINE"
);
},
{
closed = 1;
nodes = (
"298 465 OFFCURVE",
"322 427 OFFCURVE",
"322 352 CURVE SMOOTH",
"322 272 OFFCURVE",
"296 61 OFFCURVE",
"192 61 CURVE SMOOTH",
"143 61 OFFCURVE",
"118 99 OFFCURVE",
"118 175 CURVE SMOOTH",
"118 261 OFFCURVE",
"142 465 OFFCURVE",
"249 465 CURVE SMOOTH"
);
},
{
closed = 1;
nodes = (
"616 686 LINE",
"516 686 LINE",
"501 578 LINE",
"534 578 LINE",
"483 454 LINE",
"538 454 LINE",
"602 587 LINE"
);
}
);
width = 512;
}
);
unicode = 010F;
},
{
glyphname = dcroat;
lastChange = "2015-02-05 02:37:04 +0000";
layers = (
{
layerId = UUID0;
name = "Regular Italic";
paths = (
{
closed = 1;
nodes = (
"496 583 LINE",
"506 651 LINE",
"450 651 LINE",
"460 723 LINE",
"378 723 LINE",
"368 651 LINE",
"253 651 LINE",
"243 583 LINE",
"358 583 LINE",
"342 468 LINE",
"319 518 OFFCURVE",
"281 538 OFFCURVE",
"237 538 CURVE SMOOTH",
"139 538 OFFCURVE",
"34 424 OFFCURVE",
"34 183 CURVE SMOOTH",
"34 48 OFFCURVE",
"90 -12 OFFCURVE",
"167 -12 CURVE SMOOTH",
"215 -12 OFFCURVE",
"259 14 OFFCURVE",
"294 71 CURVE",
"294 0 LINE",
"359 0 LINE",
"440 583 LINE"
);
},
{
closed = 1;
nodes = (
"143 61 OFFCURVE",
"118 99 OFFCURVE",
"118 175 CURVE SMOOTH",
"118 261 OFFCURVE",
"142 465 OFFCURVE",
"249 465 CURVE SMOOTH",
"298 465 OFFCURVE",
"322 427 OFFCURVE",
"322 352 CURVE SMOOTH",
"322 272 OFFCURVE",
"296 61 OFFCURVE",
"192 61 CURVE SMOOTH"
);
}
);
width = 453;
}
);
unicode = 0111;
},
{
glyphname = e;
lastChange = "2015-02-05 02:37:04 +0000";
layers = (
{
anchors = (
{
name = bottom;
position = "{191, 0}";
},
{
name = ogonek;
position = "{284, 5}";
},
{
name = top;
position = "{266, 526}";
}
);
layerId = UUID0;
name = "Regular Italic";
paths = (
{
closed = 1;
nodes = (
"76 538 OFFCURVE",
"35 329 OFFCURVE",
"35 179 CURVE SMOOTH",
"35 48 OFFCURVE",
"97 -12 OFFCURVE",
"205 -12 CURVE SMOOTH",
"317 -12 OFFCURVE",
"383 76 OFFCURVE",
"399 178 CURVE",
"316 178 LINE",
"307 115 OFFCURVE",
"264 61 OFFCURVE",
"205 61 CURVE SMOOTH",
"148 61 OFFCURVE",
"120 102 OFFCURVE",
"120 186 CURVE SMOOTH",
"120 199 OFFCURVE",
"121 218 OFFCURVE",
"123 239 CURVE",
"412 239 LINE",
"418 277 OFFCURVE",
"420 315 OFFCURVE",
"420 349 CURVE SMOOTH",
"420 478 OFFCURVE",
"363 538 OFFCURVE",
"258 538 CURVE SMOOTH"
);
},
{
closed = 1;
nodes = (
"309 465 OFFCURVE",
"335 425 OFFCURVE",
"335 348 CURVE SMOOTH",
"335 339 OFFCURVE",
"335 325 OFFCURVE",
"334 312 CURVE",
"133 312 LINE",
"149 388 OFFCURVE",
"185 465 OFFCURVE",
"258 465 CURVE SMOOTH"
);
}
);
width = 456;
}
);
unicode = 0065;
},
{
glyphname = eacute;
lastChange = "2015-02-05 02:37:04 +0000";
layers = (
{
layerId = UUID0;
name = "Regular Italic";
paths = (
{
closed = 1;
nodes = (
"76 538 OFFCURVE",
"35 329 OFFCURVE",
"35 179 CURVE SMOOTH",
"35 48 OFFCURVE",
"97 -12 OFFCURVE",
"205 -12 CURVE SMOOTH",
"317 -12 OFFCURVE",
"383 76 OFFCURVE",
"399 178 CURVE",
"316 178 LINE",
"307 115 OFFCURVE",
"264 61 OFFCURVE",
"205 61 CURVE SMOOTH",
"148 61 OFFCURVE",
"120 102 OFFCURVE",
"120 186 CURVE SMOOTH",
"120 199 OFFCURVE",
"121 218 OFFCURVE",
"123 239 CURVE",
"412 239 LINE",
"418 277 OFFCURVE",
"420 315 OFFCURVE",
"420 349 CURVE SMOOTH",
"420 478 OFFCURVE",
"363 538 OFFCURVE",
"258 538 CURVE SMOOTH"
);
},
{
closed = 1;
nodes = (
"309 465 OFFCURVE",
"335 425 OFFCURVE",
"335 348 CURVE SMOOTH",
"335 339 OFFCURVE",
"335 325 OFFCURVE",
"334 312 CURVE",
"133 312 LINE",
"149 388 OFFCURVE",
"185 465 OFFCURVE",
"258 465 CURVE SMOOTH"
);
},
{
closed = 1;
nodes = (
"398 723 LINE",
"308 723 LINE",
"222 591 LINE",
"292 591 LINE",
"399 720 LINE"
);
}
);
width = 456;
}
);
unicode = 00E9;
},
{
glyphname = ebreve;
lastChange = "2015-02-05 02:37:04 +0000";
layers = (
{
layerId = UUID0;
name = "Regular Italic";
paths = (
{
closed = 1;
nodes = (
"76 538 OFFCURVE",
"35 329 OFFCURVE",
"35 179 CURVE SMOOTH",
"35 48 OFFCURVE",
"97 -12 OFFCURVE",
"205 -12 CURVE SMOOTH",
"317 -12 OFFCURVE",
"383 76 OFFCURVE",
"399 178 CURVE",
"316 178 LINE",
"307 115 OFFCURVE",
"264 61 OFFCURVE",
"205 61 CURVE SMOOTH",
"148 61 OFFCURVE",
"120 102 OFFCURVE",
"120 186 CURVE SMOOTH",
"120 199 OFFCURVE",
"121 218 OFFCURVE",
"123 239 CURVE",
"412 239 LINE",
"418 277 OFFCURVE",
"420 315 OFFCURVE",
"420 349 CURVE SMOOTH",
"420 478 OFFCURVE",
"363 538 OFFCURVE",
"258 538 CURVE SMOOTH"
);
},
{
closed = 1;
nodes = (
"309 465 OFFCURVE",
"335 425 OFFCURVE",
"335 348 CURVE SMOOTH",
"335 339 OFFCURVE",
"335 325 OFFCURVE",
"334 312 CURVE",
"133 312 LINE",
"149 388 OFFCURVE",
"185 465 OFFCURVE",
"258 465 CURVE SMOOTH"
);
},
{
closed = 1;
nodes = (
"353 723 LINE",
"349 709 OFFCURVE",
"323 690 OFFCURVE",
"289 690 CURVE SMOOTH",
"256 690 OFFCURVE",
"235 709 OFFCURVE",
"234 723 CURVE",
"170 723 LINE",
"169 720 OFFCURVE",
"169 717 OFFCURVE",
"169 714 CURVE SMOOTH",
"169 671 OFFCURVE",
"211 626 OFFCURVE",
"285 626 CURVE SMOOTH",
"359 626 OFFCURVE",
"411 678 OFFCURVE",
"417 723 CURVE"
);
}
);
width = 456;
}
);
unicode = 0115;
},
{
glyphname = ecaron;
lastChange = "2015-02-05 02:37:04 +0000";
layers = (
{
layerId = UUID0;
name = "Regular Italic";
paths = (
{
closed = 1;
nodes = (
"76 538 OFFCURVE",
"35 329 OFFCURVE",
"35 179 CURVE SMOOTH",
"35 48 OFFCURVE",
"97 -12 OFFCURVE",
"205 -12 CURVE SMOOTH",
"317 -12 OFFCURVE",
"383 76 OFFCURVE",
"399 178 CURVE",
"316 178 LINE",
"307 115 OFFCURVE",
"264 61 OFFCURVE",
"205 61 CURVE SMOOTH",
"148 61 OFFCURVE",
"120 102 OFFCURVE",
"120 186 CURVE SMOOTH",
"120 199 OFFCURVE",
"121 218 OFFCURVE",
"123 239 CURVE",
"412 239 LINE",
"418 277 OFFCURVE",
"420 315 OFFCURVE",
"420 349 CURVE SMOOTH",
"420 478 OFFCURVE",
"363 538 OFFCURVE",
"258 538 CURVE SMOOTH"
);
},
{
closed = 1;
nodes = (
"309 465 OFFCURVE",
"335 425 OFFCURVE",
"335 348 CURVE SMOOTH",
"335 339 OFFCURVE",
"335 325 OFFCURVE",
"334 312 CURVE",
"133 312 LINE",
"149 388 OFFCURVE",
"185 465 OFFCURVE",
"258 465 CURVE SMOOTH"
);
},
{
closed = 1;
nodes = (
"416 723 LINE",
"333 723 LINE",
"280 644 LINE",
"247 723 LINE",
"167 723 LINE",
"233 588 LINE",
"311 588 LINE"
);
}
);
width = 456;
}
);
unicode = 011B;
},
{
glyphname = ecircumflex;
lastChange = "2015-02-05 02:37:04 +0000";
layers = (
{
layerId = UUID0;
name = "Regular Italic";
paths = (
{
closed = 1;
nodes = (
"76 538 OFFCURVE",
"35 329 OFFCURVE",
"35 179 CURVE SMOOTH",
"35 48 OFFCURVE",
"97 -12 OFFCURVE",
"205 -12 CURVE SMOOTH",
"317 -12 OFFCURVE",
"383 76 OFFCURVE",
"399 178 CURVE",
"316 178 LINE",
"307 115 OFFCURVE",
"264 61 OFFCURVE",
"205 61 CURVE SMOOTH",
"148 61 OFFCURVE",
"120 102 OFFCURVE",
"120 186 CURVE SMOOTH",
"120 199 OFFCURVE",
"121 218 OFFCURVE",
"123 239 CURVE",
"412 239 LINE",
"418 277 OFFCURVE",
"420 315 OFFCURVE",
"420 349 CURVE SMOOTH",
"420 478 OFFCURVE",
"363 538 OFFCURVE",
"258 538 CURVE SMOOTH"
);
},
{
closed = 1;
nodes = (
"309 465 OFFCURVE",
"335 425 OFFCURVE",
"335 348 CURVE SMOOTH",
"335 339 OFFCURVE",
"335 325 OFFCURVE",
"334 312 CURVE",
"133 312 LINE",
"149 388 OFFCURVE",
"185 465 OFFCURVE",
"258 465 CURVE SMOOTH"
);
},
{
closed = 1;
nodes = (
"329 723 LINE",
"251 723 LINE",
"146 588 LINE",
"229 588 LINE",
"285 667 LINE",
"318 588 LINE",
"395 588 LINE"
);
}
);
width = 456;
}
);
unicode = 00EA;
},
{
glyphname = edieresis;
lastChange = "2015-02-05 02:37:04 +0000";
layers = (
{
layerId = UUID0;
name = "Regular Italic";
paths = (
{
closed = 1;
nodes = (
"76 538 OFFCURVE",
"35 329 OFFCURVE",
"35 179 CURVE SMOOTH",
"35 48 OFFCURVE",
"97 -12 OFFCURVE",
"205 -12 CURVE SMOOTH",
"317 -12 OFFCURVE",
"383 76 OFFCURVE",
"399 178 CURVE",
"316 178 LINE",
"307 115 OFFCURVE",
"264 61 OFFCURVE",
"205 61 CURVE SMOOTH",
"148 61 OFFCURVE",
"120 102 OFFCURVE",
"120 186 CURVE SMOOTH",
"120 199 OFFCURVE",
"121 218 OFFCURVE",
"123 239 CURVE",
"412 239 LINE",
"418 277 OFFCURVE",
"420 315 OFFCURVE",
"420 349 CURVE SMOOTH",
"420 478 OFFCURVE",
"363 538 OFFCURVE",
"258 538 CURVE SMOOTH"
);
},
{
closed = 1;
nodes = (
"309 465 OFFCURVE",
"335 425 OFFCURVE",
"335 348 CURVE SMOOTH",
"335 339 OFFCURVE",
"335 325 OFFCURVE",
"334 312 CURVE",
"133 312 LINE",
"149 388 OFFCURVE",
"185 465 OFFCURVE",
"258 465 CURVE SMOOTH"
);
},
{
closed = 1;
nodes = (
"413 723 LINE",
"326 723 LINE",
"313 628 LINE",
"400 628 LINE"
);
},
{
closed = 1;
nodes = (
"263 723 LINE",
"176 723 LINE",
"163 628 LINE",
"250 628 LINE"
);
}
);
width = 456;
}
);
unicode = 00EB;
},
{
glyphname = edotaccent;
lastChange = "2015-02-05 02:37:04 +0000";
layers = (
{
layerId = UUID0;
name = "Regular Italic";
paths = (
{
closed = 1;
nodes = (
"76 538 OFFCURVE",
"35 329 OFFCURVE",
"35 179 CURVE SMOOTH",
"35 48 OFFCURVE",
"97 -12 OFFCURVE",
"205 -12 CURVE SMOOTH",
"317 -12 OFFCURVE",
"383 76 OFFCURVE",
"399 178 CURVE",
"316 178 LINE",
"307 115 OFFCURVE",
"264 61 OFFCURVE",
"205 61 CURVE SMOOTH",
"148 61 OFFCURVE",
"120 102 OFFCURVE",
"120 186 CURVE SMOOTH",
"120 199 OFFCURVE",
"121 218 OFFCURVE",
"123 239 CURVE",
"412 239 LINE",
"418 277 OFFCURVE",
"420 315 OFFCURVE",
"420 349 CURVE SMOOTH",
"420 478 OFFCURVE",
"363 538 OFFCURVE",
"258 538 CURVE SMOOTH"
);
},
{
closed = 1;
nodes = (
"309 465 OFFCURVE",
"335 425 OFFCURVE",
"335 348 CURVE SMOOTH",
"335 339 OFFCURVE",
"335 325 OFFCURVE",
"334 312 CURVE",
"133 312 LINE",
"149 388 OFFCURVE",
"185 465 OFFCURVE",
"258 465 CURVE SMOOTH"
);
},
{
closed = 1;
nodes = (
"337 723 LINE",
"250 723 LINE",
"237 628 LINE",
"324 628 LINE"
);
}
);
width = 456;
}
);
unicode = 0117;
},
{
glyphname = egrave;
lastChange = "2015-02-05 02:37:04 +0000";
layers = (
{
layerId = UUID0;
name = "Regular Italic";
paths = (
{
closed = 1;
nodes = (
"76 538 OFFCURVE",
"35 329 OFFCURVE",
"35 179 CURVE SMOOTH",
"35 48 OFFCURVE",
"97 -12 OFFCURVE",
"205 -12 CURVE SMOOTH",
"317 -12 OFFCURVE",
"383 76 OFFCURVE",
"399 178 CURVE",
"316 178 LINE",
"307 115 OFFCURVE",
"264 61 OFFCURVE",
"205 61 CURVE SMOOTH",
"148 61 OFFCURVE",
"120 102 OFFCURVE",
"120 186 CURVE SMOOTH",
"120 199 OFFCURVE",
"121 218 OFFCURVE",
"123 239 CURVE",
"412 239 LINE",
"418 277 OFFCURVE",
"420 315 OFFCURVE",
"420 349 CURVE SMOOTH",
"420 478 OFFCURVE",
"363 538 OFFCURVE",
"258 538 CURVE SMOOTH"
);
},
{
closed = 1;
nodes = (
"309 465 OFFCURVE",
"335 425 OFFCURVE",
"335 348 CURVE SMOOTH",
"335 339 OFFCURVE",
"335 325 OFFCURVE",
"334 312 CURVE",
"133 312 LINE",
"149 388 OFFCURVE",
"185 465 OFFCURVE",
"258 465 CURVE SMOOTH"
);
},
{
closed = 1;
nodes = (
"267 723 LINE",
"177 723 LINE",
"175 720 LINE",
"265 591 LINE",
"334 591 LINE"
);
}
);
width = 456;
}
);
unicode = 00E8;
},
{
glyphname = emacron;
lastChange = "2015-02-05 02:37:04 +0000";
layers = (
{
layerId = UUID0;
name = "Regular Italic";
paths = (
{
closed = 1;
nodes = (
"76 538 OFFCURVE",
"35 329 OFFCURVE",
"35 179 CURVE SMOOTH",
"35 48 OFFCURVE",
"97 -12 OFFCURVE",
"205 -12 CURVE SMOOTH",
"317 -12 OFFCURVE",
"383 76 OFFCURVE",
"399 178 CURVE",
"316 178 LINE",
"307 115 OFFCURVE",
"264 61 OFFCURVE",
"205 61 CURVE SMOOTH",
"148 61 OFFCURVE",
"120 102 OFFCURVE",
"120 186 CURVE SMOOTH",
"120 199 OFFCURVE",
"121 218 OFFCURVE",
"123 239 CURVE",
"412 239 LINE",
"418 277 OFFCURVE",
"420 315 OFFCURVE",
"420 349 CURVE SMOOTH",
"420 478 OFFCURVE",
"363 538 OFFCURVE",
"258 538 CURVE SMOOTH"
);
},
{
closed = 1;
nodes = (
"309 465 OFFCURVE",
"335 425 OFFCURVE",
"335 348 CURVE SMOOTH",
"335 339 OFFCURVE",
"335 325 OFFCURVE",
"334 312 CURVE",
"133 312 LINE",
"149 388 OFFCURVE",
"185 465 OFFCURVE",
"258 465 CURVE SMOOTH"
);
},
{
closed = 1;
nodes = (
"408 671 LINE",
"158 671 LINE",
"147 599 LINE",
"397 599 LINE"
);
}
);
width = 456;
}
);
unicode = 0113;
},
{
glyphname = eogonek;
lastChange = "2015-02-05 02:37:04 +0000";
layers = (
{
layerId = UUID0;
name = "Regular Italic";
paths = (
{
closed = 1;
nodes = (
"412 239 LINE",
"418 277 OFFCURVE",
"420 315 OFFCURVE",
"420 349 CURVE SMOOTH",
"420 478 OFFCURVE",
"363 538 OFFCURVE",
"258 538 CURVE SMOOTH",
"76 538 OFFCURVE",
"35 329 OFFCURVE",
"35 179 CURVE SMOOTH",
"35 49 OFFCURVE",
"96 -11 OFFCURVE",
"201 -12 CURVE",
"179 -36 OFFCURVE",
"161 -64 OFFCURVE",
"161 -106 CURVE SMOOTH",
"161 -167 OFFCURVE",
"202 -185 OFFCURVE",
"243 -185 CURVE SMOOTH",
"263 -185 OFFCURVE",
"284 -180 OFFCURVE",
"306 -171 CURVE",
"313 -120 LINE",
"281 -120 LINE SMOOTH",
"253 -120 OFFCURVE",
"243 -101 OFFCURVE",
"243 -78 CURVE SMOOTH",
"243 -45 OFFCURVE",
"267 -12 OFFCURVE",
"284 5 CURVE",
"348 35 OFFCURVE",
"387 103 OFFCURVE",
"399 178 CURVE",
"316 178 LINE",
"307 115 OFFCURVE",
"264 61 OFFCURVE",
"205 61 CURVE SMOOTH",
"148 61 OFFCURVE",
"120 102 OFFCURVE",
"120 186 CURVE SMOOTH",
"120 199 OFFCURVE",
"121 218 OFFCURVE",
"123 239 CURVE"
);
},
{
closed = 1;
nodes = (
"133 312 LINE",
"149 388 OFFCURVE",
"185 465 OFFCURVE",
"258 465 CURVE SMOOTH",
"309 465 OFFCURVE",
"335 425 OFFCURVE",
"335 348 CURVE SMOOTH",
"335 339 OFFCURVE",
"335 325 OFFCURVE",
"334 312 CURVE"
);
}
);
width = 456;
}
);
unicode = 0119;
},
{
glyphname = f;
lastChange = "2015-02-05 02:37:04 +0000";
layers = (
{
layerId = UUID0;
name = "Regular Italic";
paths = (
{
closed = 1;
nodes = (
"147 731 OFFCURVE",
"114 670 OFFCURVE",
"106 610 CURVE",
"94 526 LINE",
"48 526 LINE",
"38 453 LINE",
"84 453 LINE",
"16 -65 LINE SMOOTH",
"12 -96 OFFCURVE",
"-6 -113 OFFCURVE",
"-37 -113 CURVE SMOOTH",
"-81 -113 LINE",
"-89 -170 LINE",
"-73 -176 OFFCURVE",
"-46 -182 OFFCURVE",
"-22 -182 CURVE SMOOTH",
"57 -182 OFFCURVE",
"90 -121 OFFCURVE",
"98 -61 CURVE",
"166 453 LINE",
"257 453 LINE",
"267 526 LINE",
"176 526 LINE",
"188 614 LINE",
"192 645 OFFCURVE",
"211 662 OFFCURVE",
"242 662 CURVE SMOOTH",
"286 662 LINE",
"294 719 LINE",
"278 725 OFFCURVE",
"251 731 OFFCURVE",
"227 731 CURVE SMOOTH"
);
}
);
width = 228;
}
);
unicode = 0066;
},
{
color = (31,255,0,1);
glyphname = g;
lastChange = "2015-02-05 02:37:04 +0000";
layers = (
{
anchors = (
{
name = top;
position = "{264, 526}";
}
);
background = {
paths = (
{
closed = 1;
nodes = (
"141 538 OFFCURVE",
"37 430 OFFCURVE",
"37 190 CURVE SMOOTH",
"37 101 OFFCURVE",
"72 8 OFFCURVE",
"171 8 CURVE SMOOTH",
"220 8 OFFCURVE",
"257 34 OFFCURVE",
"293 91 CURVE",
"282 25 LINE SMOOTH",
"267 -67 OFFCURVE",
"233 -110 OFFCURVE",
"168 -110 CURVE SMOOTH",
"115 -110 OFFCURVE",
"89 -81 OFFCURVE",
"89 -24 CURVE",
"7 -24 LINE",
"7 -108 OFFCURVE",
"57 -182 OFFCURVE",
"165 -182 CURVE SMOOTH",
"278 -182 OFFCURVE",
"344 -115 OFFCURVE",
"367 49 CURVE SMOOTH",
"434 526 LINE",
"392 526 LINE",
"352 453 LINE",
"331 518 OFFCURVE",
"289 538 OFFCURVE",
"239 538 CURVE SMOOTH"
);
},
{
closed = 1;
nodes = (
"299 465 OFFCURVE",
"323 427 OFFCURVE",
"324 352 CURVE",
"324 278 OFFCURVE",
"295 81 OFFCURVE",
"197 81 CURVE SMOOTH",
"148 81 OFFCURVE",
"121 113 OFFCURVE",
"121 182 CURVE SMOOTH",
"121 265 OFFCURVE",
"141 465 OFFCURVE",
"250 465 CURVE SMOOTH"
);
}
);
};
layerId = UUID0;
name = "Regular Italic";
paths = (
{
closed = 1;
nodes = (
"299 465 OFFCURVE",
"323 427 OFFCURVE",
"324 352 CURVE SMOOTH",
"324 278 OFFCURVE",
"295 81 OFFCURVE",
"197 81 CURVE SMOOTH",
"148 81 OFFCURVE",
"121 113 OFFCURVE",
"121 182 CURVE SMOOTH",
"121 265 OFFCURVE",
"141 465 OFFCURVE",
"250 465 CURVE SMOOTH"
);
},
{
closed = 1;
nodes = (
"282 25 LINE",
"267 -67 OFFCURVE",
"233 -110 OFFCURVE",
"168 -110 CURVE SMOOTH",
"115 -110 OFFCURVE",
"89 -81 OFFCURVE",
"89 -24 CURVE",
"7 -24 LINE",
"7 -108 OFFCURVE",
"57 -182 OFFCURVE",
"165 -182 CURVE SMOOTH",
"278 -182 OFFCURVE",
"344 -115 OFFCURVE",
"367 49 CURVE SMOOTH",
"434 526 LINE",
"369 526 LINE",
"352 453 LINE",
"331 518 OFFCURVE",
"289 538 OFFCURVE",
"239 538 CURVE SMOOTH",
"141 538 OFFCURVE",
"37 430 OFFCURVE",
"37 190 CURVE SMOOTH",
"37 101 OFFCURVE",
"72 8 OFFCURVE",
"171 8 CURVE SMOOTH",
"220 8 OFFCURVE",
"257 34 OFFCURVE",
"293 91 CURVE"
);
}
);
width = 456;
}
);
unicode = 0067;
},
{
color = (31,255,0,1);
glyphname = gbreve;
lastChange = "2015-02-05 02:37:04 +0000";
layers = (
{
background = {
paths = (
{
closed = 1;
nodes = (
"141 538 OFFCURVE",
"37 430 OFFCURVE",
"37 190 CURVE SMOOTH",
"37 101 OFFCURVE",
"72 8 OFFCURVE",
"171 8 CURVE SMOOTH",
"220 8 OFFCURVE",
"257 34 OFFCURVE",
"293 91 CURVE",
"282 25 LINE SMOOTH",
"267 -67 OFFCURVE",
"233 -110 OFFCURVE",
"168 -110 CURVE SMOOTH",
"115 -110 OFFCURVE",
"89 -81 OFFCURVE",
"89 -24 CURVE",
"7 -24 LINE",
"7 -108 OFFCURVE",
"57 -182 OFFCURVE",
"165 -182 CURVE SMOOTH",
"278 -182 OFFCURVE",
"344 -115 OFFCURVE",
"367 49 CURVE SMOOTH",
"434 526 LINE",
"392 526 LINE",
"352 453 LINE",
"331 518 OFFCURVE",
"289 538 OFFCURVE",
"239 538 CURVE SMOOTH"
);
},
{
closed = 1;
nodes = (
"299 465 OFFCURVE",
"323 427 OFFCURVE",
"324 352 CURVE SMOOTH",
"324 278 OFFCURVE",
"295 81 OFFCURVE",
"197 81 CURVE SMOOTH",
"148 81 OFFCURVE",
"121 113 OFFCURVE",
"121 182 CURVE SMOOTH",
"121 265 OFFCURVE",
"141 465 OFFCURVE",
"250 465 CURVE SMOOTH"
);
}
);
};
layerId = UUID0;
name = "Regular Italic";
paths = (
{
closed = 1;
nodes = (
"351 723 LINE",
"347 709 OFFCURVE",
"321 690 OFFCURVE",
"287 690 CURVE SMOOTH",
"254 690 OFFCURVE",
"233 709 OFFCURVE",
"232 723 CURVE",
"168 723 LINE",
"167 720 OFFCURVE",
"167 717 OFFCURVE",
"167 714 CURVE SMOOTH",
"167 671 OFFCURVE",
"209 626 OFFCURVE",
"283 626 CURVE SMOOTH",
"357 626 OFFCURVE",
"409 678 OFFCURVE",
"415 723 CURVE"
);
},
{
closed = 1;
nodes = (
"299 465 OFFCURVE",
"323 427 OFFCURVE",
"324 352 CURVE SMOOTH",
"324 278 OFFCURVE",
"295 81 OFFCURVE",
"197 81 CURVE SMOOTH",
"148 81 OFFCURVE",
"121 113 OFFCURVE",
"121 182 CURVE SMOOTH",
"121 265 OFFCURVE",
"141 465 OFFCURVE",
"250 465 CURVE SMOOTH"
);
},
{
closed = 1;
nodes = (
"282 25 LINE SMOOTH",
"267 -67 OFFCURVE",
"233 -110 OFFCURVE",
"168 -110 CURVE SMOOTH",
"115 -110 OFFCURVE",
"89 -81 OFFCURVE",
"89 -24 CURVE",
"7 -24 LINE",
"7 -108 OFFCURVE",
"57 -182 OFFCURVE",
"165 -182 CURVE SMOOTH",
"278 -182 OFFCURVE",
"344 -115 OFFCURVE",
"367 49 CURVE SMOOTH",
"434 526 LINE",
"369 526 LINE",
"352 453 LINE",
"331 518 OFFCURVE",
"289 538 OFFCURVE",
"239 538 CURVE SMOOTH",
"141 538 OFFCURVE",
"37 430 OFFCURVE",
"37 190 CURVE SMOOTH",
"37 101 OFFCURVE",
"72 8 OFFCURVE",
"171 8 CURVE SMOOTH",
"220 8 OFFCURVE",
"257 34 OFFCURVE",
"293 91 CURVE"
);
}
);
width = 456;
}
);
unicode = 011F;
},
{
color = (31,255,0,1);
glyphname = gcircumflex;
lastChange = "2015-02-05 02:37:04 +0000";
layers = (
{
background = {
paths = (
{
closed = 1;
nodes = (
"141 538 OFFCURVE",
"37 430 OFFCURVE",
"37 190 CURVE SMOOTH",
"37 101 OFFCURVE",
"72 8 OFFCURVE",
"171 8 CURVE SMOOTH",
"220 8 OFFCURVE",
"257 34 OFFCURVE",
"293 91 CURVE",
"282 25 LINE SMOOTH",
"267 -67 OFFCURVE",
"233 -110 OFFCURVE",
"168 -110 CURVE SMOOTH",
"115 -110 OFFCURVE",
"89 -81 OFFCURVE",
"89 -24 CURVE",
"7 -24 LINE",
"7 -108 OFFCURVE",
"57 -182 OFFCURVE",
"165 -182 CURVE SMOOTH",
"278 -182 OFFCURVE",
"344 -115 OFFCURVE",
"367 49 CURVE SMOOTH",
"434 526 LINE",
"392 526 LINE",
"352 453 LINE",
"331 518 OFFCURVE",
"289 538 OFFCURVE",
"239 538 CURVE SMOOTH"
);
},
{
closed = 1;
nodes = (
"299 465 OFFCURVE",
"323 427 OFFCURVE",
"324 352 CURVE SMOOTH",
"324 278 OFFCURVE",
"295 81 OFFCURVE",
"197 81 CURVE SMOOTH",
"148 81 OFFCURVE",
"121 113 OFFCURVE",
"121 182 CURVE SMOOTH",
"121 265 OFFCURVE",
"141 465 OFFCURVE",
"250 465 CURVE SMOOTH"
);
}
);
};
layerId = UUID0;
name = "Regular Italic";
paths = (
{
closed = 1;
nodes = (
"327 723 LINE",
"249 723 LINE",
"144 588 LINE",
"227 588 LINE",
"283 667 LINE",
"316 588 LINE",
"393 588 LINE"
);
},
{
closed = 1;
nodes = (
"299 465 OFFCURVE",
"323 427 OFFCURVE",
"324 352 CURVE SMOOTH",
"324 278 OFFCURVE",
"295 81 OFFCURVE",
"197 81 CURVE SMOOTH",
"148 81 OFFCURVE",
"121 113 OFFCURVE",
"121 182 CURVE SMOOTH",
"121 265 OFFCURVE",
"141 465 OFFCURVE",
"250 465 CURVE SMOOTH"
);
},
{
closed = 1;
nodes = (
"282 25 LINE SMOOTH",
"267 -67 OFFCURVE",
"233 -110 OFFCURVE",
"168 -110 CURVE SMOOTH",
"115 -110 OFFCURVE",
"89 -81 OFFCURVE",
"89 -24 CURVE",
"7 -24 LINE",
"7 -108 OFFCURVE",
"57 -182 OFFCURVE",
"165 -182 CURVE SMOOTH",
"278 -182 OFFCURVE",
"344 -115 OFFCURVE",
"367 49 CURVE SMOOTH",
"434 526 LINE",
"369 526 LINE",
"352 453 LINE",
"331 518 OFFCURVE",
"289 538 OFFCURVE",
"239 538 CURVE SMOOTH",
"141 538 OFFCURVE",
"37 430 OFFCURVE",
"37 190 CURVE SMOOTH",
"37 101 OFFCURVE",
"72 8 OFFCURVE",
"171 8 CURVE SMOOTH",
"220 8 OFFCURVE",
"257 34 OFFCURVE",
"293 91 CURVE"
);
}
);
width = 456;
}
);
unicode = 011D;
},
{
color = (31,255,0,1);
glyphname = gcommaaccent;
lastChange = "2015-02-05 02:37:04 +0000";
layers = (
{
background = {
paths = (
{
closed = 1;
nodes = (
"141 538 OFFCURVE",
"37 430 OFFCURVE",
"37 190 CURVE SMOOTH",
"37 101 OFFCURVE",
"72 8 OFFCURVE",
"171 8 CURVE SMOOTH",
"220 8 OFFCURVE",
"257 34 OFFCURVE",
"293 91 CURVE",
"282 25 LINE SMOOTH",
"267 -67 OFFCURVE",
"233 -110 OFFCURVE",
"168 -110 CURVE SMOOTH",
"115 -110 OFFCURVE",
"89 -81 OFFCURVE",
"89 -24 CURVE",
"7 -24 LINE",
"7 -108 OFFCURVE",
"57 -182 OFFCURVE",
"165 -182 CURVE SMOOTH",
"278 -182 OFFCURVE",
"344 -115 OFFCURVE",
"367 49 CURVE SMOOTH",
"434 526 LINE",
"392 526 LINE",
"352 453 LINE",
"331 518 OFFCURVE",
"289 538 OFFCURVE",
"239 538 CURVE SMOOTH"
);
},
{
closed = 1;
nodes = (
"299 465 OFFCURVE",
"323 427 OFFCURVE",
"324 352 CURVE SMOOTH",
"324 278 OFFCURVE",
"295 81 OFFCURVE",
"197 81 CURVE SMOOTH",
"148 81 OFFCURVE",
"121 113 OFFCURVE",
"121 182 CURVE SMOOTH",
"121 265 OFFCURVE",
"141 465 OFFCURVE",
"250 465 CURVE SMOOTH"
);
}
);
};
layerId = UUID0;
name = "Regular Italic";
paths = (
{
closed = 1;
nodes = (
"229 595 LINE",
"314 595 LINE",
"327 686 LINE",
"293 686 LINE",
"325 755 LINE",
"276 755 LINE",
"241 679 LINE"
);
},
{
closed = 1;
nodes = (
"299 465 OFFCURVE",
"323 427 OFFCURVE",
"324 352 CURVE SMOOTH",
"324 278 OFFCURVE",
"295 81 OFFCURVE",
"197 81 CURVE SMOOTH",
"148 81 OFFCURVE",
"121 113 OFFCURVE",
"121 182 CURVE SMOOTH",
"121 265 OFFCURVE",
"141 465 OFFCURVE",
"250 465 CURVE SMOOTH"
);
},
{
closed = 1;
nodes = (
"282 25 LINE SMOOTH",
"267 -67 OFFCURVE",
"233 -110 OFFCURVE",
"168 -110 CURVE SMOOTH",
"115 -110 OFFCURVE",
"89 -81 OFFCURVE",
"89 -24 CURVE",
"7 -24 LINE",
"7 -108 OFFCURVE",
"57 -182 OFFCURVE",
"165 -182 CURVE SMOOTH",
"278 -182 OFFCURVE",
"344 -115 OFFCURVE",
"367 49 CURVE SMOOTH",
"434 526 LINE",
"369 526 LINE",
"352 453 LINE",
"331 518 OFFCURVE",
"289 538 OFFCURVE",
"239 538 CURVE SMOOTH",
"141 538 OFFCURVE",
"37 430 OFFCURVE",
"37 190 CURVE SMOOTH",
"37 101 OFFCURVE",
"72 8 OFFCURVE",
"171 8 CURVE SMOOTH",
"220 8 OFFCURVE",
"257 34 OFFCURVE",
"293 91 CURVE"
);
}
);
width = 456;
}
);
unicode = 0123;
},
{
color = (31,255,0,1);
glyphname = gdotaccent;
lastChange = "2015-02-05 02:37:04 +0000";
layers = (
{
background = {
paths = (
{
closed = 1;
nodes = (
"141 538 OFFCURVE",
"37 430 OFFCURVE",
"37 190 CURVE SMOOTH",
"37 101 OFFCURVE",
"72 8 OFFCURVE",
"171 8 CURVE SMOOTH",
"220 8 OFFCURVE",
"257 34 OFFCURVE",
"293 91 CURVE",
"282 25 LINE SMOOTH",
"267 -67 OFFCURVE",
"233 -110 OFFCURVE",
"168 -110 CURVE SMOOTH",
"115 -110 OFFCURVE",
"89 -81 OFFCURVE",
"89 -24 CURVE",
"7 -24 LINE",
"7 -108 OFFCURVE",
"57 -182 OFFCURVE",
"165 -182 CURVE SMOOTH",
"278 -182 OFFCURVE",
"344 -115 OFFCURVE",
"367 49 CURVE SMOOTH",
"434 526 LINE",
"392 526 LINE",
"352 453 LINE",
"331 518 OFFCURVE",
"289 538 OFFCURVE",
"239 538 CURVE SMOOTH"
);
},
{
closed = 1;
nodes = (
"299 465 OFFCURVE",
"323 427 OFFCURVE",
"324 352 CURVE SMOOTH",
"324 278 OFFCURVE",
"295 81 OFFCURVE",
"197 81 CURVE SMOOTH",
"148 81 OFFCURVE",
"121 113 OFFCURVE",
"121 182 CURVE SMOOTH",
"121 265 OFFCURVE",
"141 465 OFFCURVE",
"250 465 CURVE SMOOTH"
);
}
);
};
layerId = UUID0;
name = "Regular Italic";
paths = (
{
closed = 1;
nodes = (
"335 723 LINE",
"248 723 LINE",
"235 628 LINE",
"322 628 LINE"
);
},
{
closed = 1;
nodes = (
"299 465 OFFCURVE",
"323 427 OFFCURVE",
"324 352 CURVE SMOOTH",
"324 278 OFFCURVE",
"295 81 OFFCURVE",
"197 81 CURVE SMOOTH",
"148 81 OFFCURVE",
"121 113 OFFCURVE",
"121 182 CURVE SMOOTH",
"121 265 OFFCURVE",
"141 465 OFFCURVE",
"250 465 CURVE SMOOTH"
);
},
{
closed = 1;
nodes = (
"282 25 LINE SMOOTH",
"267 -67 OFFCURVE",
"233 -110 OFFCURVE",
"168 -110 CURVE SMOOTH",
"115 -110 OFFCURVE",
"89 -81 OFFCURVE",
"89 -24 CURVE",
"7 -24 LINE",
"7 -108 OFFCURVE",
"57 -182 OFFCURVE",
"165 -182 CURVE SMOOTH",
"278 -182 OFFCURVE",
"344 -115 OFFCURVE",
"367 49 CURVE SMOOTH",
"434 526 LINE",
"369 526 LINE",
"352 453 LINE",
"331 518 OFFCURVE",
"289 538 OFFCURVE",
"239 538 CURVE SMOOTH",
"141 538 OFFCURVE",
"37 430 OFFCURVE",
"37 190 CURVE SMOOTH",
"37 101 OFFCURVE",
"72 8 OFFCURVE",
"171 8 CURVE SMOOTH",
"220 8 OFFCURVE",
"257 34 OFFCURVE",
"293 91 CURVE"
);
}
);
width = 456;
}
);
unicode = 0121;
},
{
glyphname = h;
lastChange = "2015-02-05 02:37:04 +0000";
layers = (
{
anchors = (
{
name = center;
position = "{228, 263}";
},
{
name = top;
position = "{158, 686}";
}
);
layerId = UUID0;
name = "Regular Italic";
paths = (
{
closed = 1;
nodes = (
"205 723 LINE",
"123 723 LINE",
"22 0 LINE",
"103 0 LINE",
"144 294 LINE SMOOTH",
"158 395 OFFCURVE",
"202 465 OFFCURVE",
"269 465 CURVE SMOOTH",
"308 465 OFFCURVE",
"329 446 OFFCURVE",
"329 401 CURVE SMOOTH",
"329 369 OFFCURVE",
"275 0 OFFCURVE",
"275 0 CURVE",
"357 0 LINE",
"357 0 OFFCURVE",
"413 388 OFFCURVE",
"413 420 CURVE SMOOTH",
"413 480 OFFCURVE",
"386 538 OFFCURVE",
"299 538 CURVE SMOOTH",
"229 538 OFFCURVE",
"189 496 OFFCURVE",
"169 465 CURVE"
);
}
);
width = 456;
}
);
unicode = 0068;
},
{
glyphname = hbar;
lastChange = "2015-02-05 02:37:04 +0000";
layers = (
{
layerId = UUID0;
name = "Regular Italic";
paths = (
{
closed = 1;
nodes = (
"186 583 LINE",
"300 583 LINE",
"310 651 LINE",
"195 651 LINE",
"205 723 LINE",
"123 723 LINE",
"113 651 LINE",
"58 651 LINE",
"47 583 LINE",
"104 583 LINE",
"22 0 LINE",
"103 0 LINE",
"144 294 LINE SMOOTH",
"158 395 OFFCURVE",
"202 465 OFFCURVE",
"269 465 CURVE SMOOTH",
"308 465 OFFCURVE",
"329 446 OFFCURVE",
"329 401 CURVE SMOOTH",
"329 369 OFFCURVE",
"275 0 OFFCURVE",
"275 0 CURVE",
"357 0 LINE",
"357 0 OFFCURVE",
"413 388 OFFCURVE",
"413 420 CURVE SMOOTH",
"413 480 OFFCURVE",
"386 538 OFFCURVE",
"299 538 CURVE SMOOTH",
"229 538 OFFCURVE",
"189 496 OFFCURVE",
"169 465 CURVE"
);
}
);
width = 456;
}
);
unicode = 0127;
},
{
glyphname = hcircumflex;
lastChange = "2015-02-05 02:37:04 +0000";
layers = (
{
layerId = UUID0;
name = "Regular Italic";
paths = (
{
closed = 1;
nodes = (
"205 723 LINE",
"123 723 LINE",
"22 0 LINE",
"103 0 LINE",
"144 294 LINE SMOOTH",
"158 395 OFFCURVE",
"202 465 OFFCURVE",
"269 465 CURVE SMOOTH",
"308 465 OFFCURVE",
"329 446 OFFCURVE",
"329 401 CURVE SMOOTH",
"329 369 OFFCURVE",
"275 0 OFFCURVE",
"275 0 CURVE",
"357 0 LINE",
"357 0 OFFCURVE",
"413 388 OFFCURVE",
"413 420 CURVE SMOOTH",
"413 480 OFFCURVE",
"386 538 OFFCURVE",
"299 538 CURVE SMOOTH",
"229 538 OFFCURVE",
"189 496 OFFCURVE",
"169 465 CURVE"
);
},
{
closed = 1;
nodes = (
"222 883 LINE",
"144 883 LINE",
"39 748 LINE",
"122 748 LINE",
"178 827 LINE",
"210 748 LINE",
"288 748 LINE"
);
}
);
width = 456;
}
);
unicode = 0125;
},
{
glyphname = i;
lastChange = "2015-02-05 02:37:04 +0000";
layers = (
{
layerId = UUID0;
name = "Regular Italic";
paths = (
{
closed = 1;
nodes = (
"171 526 LINE",
"89 526 LINE",
"16 0 LINE",
"97 0 LINE"
);
},
{
closed = 1;
nodes = (
"198 723 LINE",
"116 723 LINE",
"103 625 LINE",
"185 625 LINE"
);
}
);
width = 182;
}
);
unicode = 0069;
},
{
glyphname = dotlessi;
lastChange = "2015-02-05 02:37:04 +0000";
layers = (
{
anchors = (
{
name = ogonek;
position = "{119, 0}";
},
{
name = top;
position = "{152, 526}";
}
);
layerId = UUID0;
name = "Regular Italic";
paths = (
{
closed = 1;
nodes = (
"193 526 LINE",
"111 526 LINE",
"38 0 LINE",
"119 0 LINE"
);
}
);
width = 228;
}
);
unicode = 0131;
},
{
glyphname = iacute;
lastChange = "2015-02-05 02:37:04 +0000";
layers = (
{
layerId = UUID0;
name = "Regular Italic";
paths = (
{
closed = 1;
nodes = (
"193 526 LINE",
"111 526 LINE",
"38 0 LINE",
"119 0 LINE"
);
},
{
closed = 1;
nodes = (
"285 723 LINE",
"194 723 LINE",
"108 591 LINE",
"178 591 LINE",
"286 720 LINE"
);
}
);
width = 228;
}
);
unicode = 00ED;
},
{
glyphname = ibreve;
lastChange = "2015-02-05 02:37:04 +0000";
layers = (
{
layerId = UUID0;
name = "Regular Italic";
paths = (
{
closed = 1;
nodes = (
"193 526 LINE",
"111 526 LINE",
"38 0 LINE",
"119 0 LINE"
);
},
{
closed = 1;
nodes = (
"239 723 LINE",
"235 709 OFFCURVE",
"209 690 OFFCURVE",
"175 690 CURVE SMOOTH",
"142 690 OFFCURVE",
"121 709 OFFCURVE",
"120 723 CURVE",
"56 723 LINE",
"55 720 OFFCURVE",
"55 717 OFFCURVE",
"55 714 CURVE SMOOTH",
"55 671 OFFCURVE",
"97 626 OFFCURVE",
"171 626 CURVE SMOOTH",
"245 626 OFFCURVE",
"297 678 OFFCURVE",
"303 723 CURVE"
);
}
);
width = 228;
}
);
unicode = 012D;
},
{
glyphname = icircumflex;
lastChange = "2015-02-05 02:37:04 +0000";
layers = (
{
layerId = UUID0;
name = "Regular Italic";
paths = (
{
closed = 1;
nodes = (
"193 526 LINE",
"111 526 LINE",
"38 0 LINE",
"119 0 LINE"
);
},
{
closed = 1;
nodes = (
"215 723 LINE",
"137 723 LINE",
"32 588 LINE",
"115 588 LINE",
"171 667 LINE",
"204 588 LINE",
"281 588 LINE"
);
}
);
width = 228;
}
);
unicode = 00EE;
},
{
glyphname = idieresis;
lastChange = "2015-02-05 02:37:04 +0000";
layers = (
{
layerId = UUID0;
name = "Regular Italic";
paths = (
{
closed = 1;
nodes = (
"193 526 LINE",
"111 526 LINE",
"38 0 LINE",
"119 0 LINE"
);
},
{
closed = 1;
nodes = (
"299 723 LINE",
"212 723 LINE",
"199 628 LINE",
"286 628 LINE"
);
},
{
closed = 1;
nodes = (
"149 723 LINE",
"62 723 LINE",
"49 628 LINE",
"136 628 LINE"
);
}
);
width = 228;
}
);
unicode = 00EF;
},
{
glyphname = igrave;
lastChange = "2015-02-05 02:37:04 +0000";
layers = (
{
layerId = UUID0;
name = "Regular Italic";
paths = (
{
closed = 1;
nodes = (
"193 526 LINE",
"111 526 LINE",
"38 0 LINE",
"119 0 LINE"
);
},
{
closed = 1;
nodes = (
"153 723 LINE",
"63 723 LINE",
"62 720 LINE",
"151 591 LINE",
"221 591 LINE"
);
}
);
width = 228;
}
);
unicode = 00EC;
},
{
glyphname = ij;
lastChange = "2015-02-05 02:37:04 +0000";
layers = (
{
layerId = UUID0;
name = "Regular Italic";
paths = (
{
closed = 1;
nodes = (
"171 526 LINE",
"89 526 LINE",
"16 0 LINE",
"97 0 LINE"
);
},
{
closed = 1;
nodes = (
"198 723 LINE",
"116 723 LINE",
"103 625 LINE",
"185 625 LINE"
);
},
{
closed = 1;
nodes = (
"352 526 LINE",
"270 526 LINE",
"187 -65 LINE",
"184 -96 OFFCURVE",
"166 -113 OFFCURVE",
"135 -113 CURVE SMOOTH",
"91 -113 LINE",
"83 -170 LINE",
"99 -176 OFFCURVE",
"126 -182 OFFCURVE",
"150 -182 CURVE SMOOTH",
"229 -182 OFFCURVE",
"261 -121 OFFCURVE",
"270 -61 CURVE"
);
},
{
closed = 1;
nodes = (
"380 723 LINE",
"298 723 LINE",
"284 625 LINE",
"366 625 LINE"
);
}
);
width = 364;
}
);
unicode = 0133;
},
{
glyphname = imacron;
lastChange = "2015-02-05 02:37:04 +0000";
layers = (
{
layerId = UUID0;
name = "Regular Italic";
paths = (
{
closed = 1;
nodes = (
"193 526 LINE",
"111 526 LINE",
"38 0 LINE",
"119 0 LINE"
);
},
{
closed = 1;
nodes = (
"294 671 LINE",
"44 671 LINE",
"33 599 LINE",
"283 599 LINE"
);
}
);
width = 228;
}
);
unicode = 012B;
},
{
glyphname = iogonek;
lastChange = "2015-02-05 02:37:04 +0000";
layers = (
{
layerId = UUID0;
name = "Regular Italic";
paths = (
{
closed = 1;
nodes = (
"223 723 LINE",
"136 723 LINE",
"123 628 LINE",
"210 628 LINE"
);
},
{
closed = 1;
nodes = (
"193 526 LINE",
"111 526 LINE",
"38 0 LINE",
"54 0 LINE",
"25 -26 OFFCURVE",
"-4 -59 OFFCURVE",
"-4 -111 CURVE SMOOTH",
"-4 -172 OFFCURVE",
"37 -190 OFFCURVE",
"78 -190 CURVE SMOOTH",
"98 -190 OFFCURVE",
"119 -185 OFFCURVE",
"141 -176 CURVE",
"148 -125 LINE",
"116 -125 LINE SMOOTH",
"88 -125 OFFCURVE",
"78 -106 OFFCURVE",
"78 -83 CURVE SMOOTH",
"78 -50 OFFCURVE",
"102 -17 OFFCURVE",
"119 0 CURVE"
);
}
);
width = 182;
}
);
unicode = 012F;
},
{
glyphname = itilde;
lastChange = "2015-02-05 02:37:04 +0000";
layers = (
{
layerId = UUID0;
name = "Regular Italic";
paths = (
{
closed = 1;
nodes = (
"193 526 LINE",
"111 526 LINE",
"38 0 LINE",
"119 0 LINE"
);
},
{
closed = 1;
nodes = (
"265 723 LINE",
"259 700 OFFCURVE",
"244 692 OFFCURVE",
"226 692 CURVE SMOOTH",
"186 692 OFFCURVE",
"157 723 OFFCURVE",
"112 723 CURVE SMOOTH",
"54 723 OFFCURVE",
"24 665 OFFCURVE",
"17 619 CURVE",
"74 619 LINE",
"80 642 OFFCURVE",
"95 650 OFFCURVE",
"113 650 CURVE SMOOTH",
"153 650 OFFCURVE",
"182 619 OFFCURVE",
"227 619 CURVE SMOOTH",
"285 619 OFFCURVE",
"316 677 OFFCURVE",
"323 723 CURVE"
);
}
);
width = 228;
}
);
unicode = 0129;
},
{
glyphname = j;
lastChange = "2015-02-05 02:37:04 +0000";
layers = (
{
layerId = UUID0;
name = "Regular Italic";
paths = (
{
closed = 1;
nodes = (
"170 526 LINE",
"88 526 LINE",
"5 -65 LINE",
"2 -96 OFFCURVE",
"-16 -113 OFFCURVE",
"-47 -113 CURVE SMOOTH",
"-91 -113 LINE",
"-99 -170 LINE",
"-83 -176 OFFCURVE",
"-56 -182 OFFCURVE",
"-32 -182 CURVE SMOOTH",
"47 -182 OFFCURVE",
"79 -121 OFFCURVE",
"88 -61 CURVE"
);
},
{
closed = 1;
nodes = (
"198 723 LINE",
"116 723 LINE",
"102 625 LINE",
"184 625 LINE"
);
}
);
width = 182;
}
);
unicode = 006A;
},
{
glyphname = jcircumflex;
lastChange = "2015-02-05 02:37:04 +0000";
layers = (
{
layerId = UUID0;
name = "Regular Italic";
paths = (
{
closed = 1;
nodes = (
"170 526 LINE",
"88 526 LINE",
"5 -65 LINE",
"2 -96 OFFCURVE",
"-16 -113 OFFCURVE",
"-47 -113 CURVE SMOOTH",
"-91 -113 LINE",
"-99 -170 LINE",
"-83 -176 OFFCURVE",
"-56 -182 OFFCURVE",
"-32 -182 CURVE SMOOTH",
"47 -182 OFFCURVE",
"79 -121 OFFCURVE",
"88 -61 CURVE"
);
},
{
closed = 1;
nodes = (
"201 723 LINE",
"123 723 LINE",
"18 588 LINE",
"101 588 LINE",
"157 667 LINE",
"190 588 LINE",
"267 588 LINE"
);
}
);
width = 182;
}
);
unicode = 0135;
},
{
glyphname = k;
lastChange = "2015-02-05 02:37:04 +0000";
layers = (
{
anchors = (
{
name = bottom;
position = "{182, 0}";
}
);
layerId = UUID0;
name = "Regular Italic";
paths = (
{
closed = 1;
nodes = (
"202 723 LINE",
"120 723 LINE",
"19 0 LINE",
"101 0 LINE",
"127 187 LINE",
"192 242 LINE",
"280 0 LINE",
"370 0 LINE",
"250 310 LINE",
"436 526 LINE",
"338 526 LINE",
"141 292 LINE"
);
}
);
width = 410;
}
);
unicode = 006B;
},
{
glyphname = kcommaaccent;
lastChange = "2015-02-05 02:37:04 +0000";
layers = (
{
layerId = UUID0;
name = "Regular Italic";
paths = (
{
closed = 1;
nodes = (
"202 723 LINE",
"120 723 LINE",
"19 0 LINE",
"101 0 LINE",
"127 187 LINE",
"192 242 LINE",
"280 0 LINE",
"370 0 LINE",
"250 310 LINE",
"436 526 LINE",
"338 526 LINE",
"141 292 LINE"
);
},
{
closed = 1;
nodes = (
"217 -60 LINE",
"132 -60 LINE",
"119 -151 LINE",
"153 -151 LINE",
"121 -220 LINE",
"169 -220 LINE",
"205 -144 LINE"
);
}
);
width = 410;
}
);
unicode = 0137;
},
{
color = (31,255,0,1);
glyphname = kgreenlandic;
lastChange = "2015-02-05 02:37:04 +0000";
layers = (
{
background = {
paths = (
{
closed = 1;
nodes = (
"436 526 LINE",
"338 526 LINE",
"141 292 LINE",
"174 526 LINE",
"92 526 LINE",
"19 0 LINE",
"101 0 LINE",
"127 187 LINE",
"192 242 LINE",
"280 0 LINE",
"370 0 LINE",
"250 310 LINE"
);
}
);
};
layerId = UUID0;
name = "Regular Italic";
paths = (
{
closed = 1;
nodes = (
"92 526 LINE",
"19 0 LINE",
"101 0 LINE",
"127 187 LINE",
"192 242 LINE",
"280 0 LINE",
"370 0 LINE",
"250 310 LINE",
"436 526 LINE",
"338 526 LINE",
"141 292 LINE",
"174 526 LINE"
);
}
);
width = 410;
}
);
unicode = 0138;
},
{
glyphname = l;
lastChange = "2015-02-05 02:37:04 +0000";
layers = (
{
anchors = (
{
name = bottom;
position = "{56, 0}";
},
{
name = top;
position = "{153, 686}";
},
{
name = topright;
position = "{219, 526}";
}
);
layerId = UUID0;
name = "Regular Italic";
paths = (
{
closed = 1;
nodes = (
"198 723 LINE",
"116 723 LINE",
"16 0 LINE",
"97 0 LINE"
);
}
);
width = 182;
}
);
unicode = 006C;
},
{
glyphname = lacute;
lastChange = "2015-02-05 02:37:04 +0000";
layers = (
{
layerId = UUID0;
name = "Regular Italic";
paths = (
{
closed = 1;
nodes = (
"198 723 LINE",
"116 723 LINE",
"16 0 LINE",
"97 0 LINE"
);
},
{
closed = 1;
nodes = (
"286 883 LINE",
"196 883 LINE",
"110 751 LINE",
"179 751 LINE",
"287 880 LINE"
);
}
);
width = 182;
}
);
unicode = 013A;
},
{
glyphname = lcaron;
lastChange = "2015-02-05 02:37:04 +0000";
layers = (
{
layerId = UUID0;
name = "Regular Italic";
paths = (
{
closed = 1;
nodes = (
"198 723 LINE",
"116 723 LINE",
"16 0 LINE",
"97 0 LINE"
);
},
{
closed = 1;
nodes = (
"321 686 LINE",
"222 686 LINE",
"207 578 LINE",
"240 578 LINE",
"188 454 LINE",
"244 454 LINE",
"308 587 LINE"
);
}
);
width = 231;
}
);
unicode = 013E;
},
{
glyphname = lcommaaccent;
lastChange = "2015-02-05 02:37:04 +0000";
layers = (
{
layerId = UUID0;
name = "Regular Italic";
paths = (
{
closed = 1;
nodes = (
"198 723 LINE",
"116 723 LINE",
"16 0 LINE",
"97 0 LINE"
);
},
{
closed = 1;
nodes = (
"90 -60 LINE",
"5 -60 LINE",
"-8 -151 LINE",
"26 -151 LINE",
"-5 -220 LINE",
"43 -220 LINE",
"78 -144 LINE"
);
}
);
width = 182;
}
);
unicode = 013C;
},
{
glyphname = ldot;
lastChange = "2015-02-05 02:37:04 +0000";
layers = (
{
layerId = UUID0;
name = "Regular Italic";
paths = (
{
closed = 1;
nodes = (
"198 723 LINE",
"116 723 LINE",
"16 0 LINE",
"97 0 LINE"
);
},
{
closed = 1;
nodes = (
"302 399 LINE",
"201 399 LINE",
"186 288 LINE",
"287 288 LINE"
);
}
);
width = 269;
}
);
unicode = 0140;
},
{
glyphname = lslash;
lastChange = "2015-02-05 02:37:04 +0000";
layers = (
{
layerId = UUID0;
name = "Regular Italic";
paths = (
{
closed = 1;
nodes = (
"239 396 LINE",
"251 479 LINE",
"153 400 LINE",
"198 723 LINE",
"116 723 LINE",
"62 328 LINE",
"-19 264 LINE",
"-31 183 LINE",
"50 247 LINE",
"16 0 LINE",
"97 0 LINE",
"142 319 LINE"
);
}
);
width = 182;
}
);
unicode = 0142;
},
{
glyphname = m;
lastChange = "2015-02-05 02:37:04 +0000";
layers = (
{
layerId = UUID0;
name = "Regular Italic";
paths = (
{
closed = 1;
nodes = (
"452 538 OFFCURVE",
"413 475 OFFCURVE",
"399 446 CURVE",
"392 496 OFFCURVE",
"363 538 OFFCURVE",
"295 538 CURVE SMOOTH",
"214 538 OFFCURVE",
"174 478 OFFCURVE",
"160 448 CURVE",
"160 526 LINE",
"96 526 LINE",
"22 0 LINE",
"104 0 LINE",
"145 294 LINE SMOOTH",
"159 395 OFFCURVE",
"201 465 OFFCURVE",
"265 465 CURVE SMOOTH",
"297 465 OFFCURVE",
"317 446 OFFCURVE",
"317 401 CURVE SMOOTH",
"317 369 OFFCURVE",
"263 0 OFFCURVE",
"263 0 CURVE",
"345 0 LINE",
"388 307 LINE",
"401 402 OFFCURVE",
"444 465 OFFCURVE",
"505 465 CURVE SMOOTH",
"537 465 OFFCURVE",
"557 446 OFFCURVE",
"557 401 CURVE SMOOTH",
"557 369 OFFCURVE",
"503 0 OFFCURVE",
"503 0 CURVE",
"585 0 LINE",
"585 0 OFFCURVE",
"641 388 OFFCURVE",
"641 420 CURVE SMOOTH",
"641 480 OFFCURVE",
"615 538 OFFCURVE",
"535 538 CURVE SMOOTH"
);
}
);
width = 683;
}
);
unicode = 006D;
},
{
glyphname = n;
lastChange = "2015-02-05 02:37:04 +0000";
layers = (
{
anchors = (
{
name = bottom;
position = "{186, 0}";
},
{
name = top;
position = "{261, 526}";
}
);
layerId = UUID0;
name = "Regular Italic";
paths = (
{
closed = 1;
nodes = (
"216 538 OFFCURVE",
"175 478 OFFCURVE",
"160 448 CURVE",
"160 526 LINE",
"96 526 LINE",
"22 0 LINE",
"104 0 LINE",
"145 294 LINE SMOOTH",
"159 395 OFFCURVE",
"203 465 OFFCURVE",
"270 465 CURVE SMOOTH",
"309 465 OFFCURVE",
"330 446 OFFCURVE",
"330 401 CURVE SMOOTH",
"330 369 OFFCURVE",
"276 0 OFFCURVE",
"276 0 CURVE",
"358 0 LINE",
"358 0 OFFCURVE",
"414 388 OFFCURVE",
"414 420 CURVE SMOOTH",
"414 480 OFFCURVE",
"387 538 OFFCURVE",
"300 538 CURVE SMOOTH"
);
}
);
width = 456;
}
);
unicode = 006E;
},
{
glyphname = nacute;
lastChange = "2015-02-05 02:37:04 +0000";
layers = (
{
layerId = UUID0;
name = "Regular Italic";
paths = (
{
closed = 1;
nodes = (
"216 538 OFFCURVE",
"175 478 OFFCURVE",
"160 448 CURVE",
"160 526 LINE",
"96 526 LINE",
"22 0 LINE",
"104 0 LINE",
"145 294 LINE SMOOTH",
"159 395 OFFCURVE",
"203 465 OFFCURVE",
"270 465 CURVE SMOOTH",
"309 465 OFFCURVE",
"330 446 OFFCURVE",
"330 401 CURVE SMOOTH",
"330 369 OFFCURVE",
"276 0 OFFCURVE",
"276 0 CURVE",
"358 0 LINE",
"358 0 OFFCURVE",
"414 388 OFFCURVE",
"414 420 CURVE SMOOTH",
"414 480 OFFCURVE",
"387 538 OFFCURVE",
"300 538 CURVE SMOOTH"
);
},
{
closed = 1;
nodes = (
"394 723 LINE",
"303 723 LINE",
"217 591 LINE",
"287 591 LINE",
"395 720 LINE"
);
}
);
width = 456;
}
);
unicode = 0144;
},
{
glyphname = napostrophe;
lastChange = "2015-02-05 02:37:04 +0000";
layers = (
{
layerId = UUID0;
name = "Regular Italic";
paths = (
{
closed = 1;
nodes = (
"190 685 LINE",
"105 685 LINE",
"92 594 LINE",
"126 594 LINE",
"95 524 LINE",
"143 524 LINE",
"178 601 LINE"
);
},
{
closed = 1;
nodes = (
"333 538 OFFCURVE",
"292 478 OFFCURVE",
"277 448 CURVE",
"277 526 LINE",
"213 526 LINE",
"139 0 LINE",
"221 0 LINE",
"262 294 LINE SMOOTH",
"276 395 OFFCURVE",
"320 465 OFFCURVE",
"387 465 CURVE SMOOTH",
"426 465 OFFCURVE",
"447 446 OFFCURVE",
"447 401 CURVE SMOOTH",
"447 369 OFFCURVE",
"393 0 OFFCURVE",
"393 0 CURVE",
"475 0 LINE",
"475 0 OFFCURVE",
"531 388 OFFCURVE",
"531 420 CURVE SMOOTH",
"531 480 OFFCURVE",
"504 538 OFFCURVE",
"417 538 CURVE SMOOTH"
);
}
);
width = 573;
}
);
unicode = 0149;
},
{
glyphname = ncaron;
lastChange = "2015-02-05 02:37:04 +0000";
layers = (
{
layerId = UUID0;
name = "Regular Italic";
paths = (
{
closed = 1;
nodes = (
"216 538 OFFCURVE",
"175 478 OFFCURVE",
"160 448 CURVE",
"160 526 LINE",
"96 526 LINE",
"22 0 LINE",
"104 0 LINE",
"145 294 LINE SMOOTH",
"159 395 OFFCURVE",
"203 465 OFFCURVE",
"270 465 CURVE SMOOTH",
"309 465 OFFCURVE",
"330 446 OFFCURVE",
"330 401 CURVE SMOOTH",
"330 369 OFFCURVE",
"276 0 OFFCURVE",
"276 0 CURVE",
"358 0 LINE",
"358 0 OFFCURVE",
"414 388 OFFCURVE",
"414 420 CURVE SMOOTH",
"414 480 OFFCURVE",
"387 538 OFFCURVE",
"300 538 CURVE SMOOTH"
);
},
{
closed = 1;
nodes = (
"411 723 LINE",
"328 723 LINE",
"275 644 LINE",
"242 723 LINE",
"163 723 LINE",
"229 588 LINE",
"306 588 LINE"
);
}
);
width = 456;
}
);
unicode = 0148;
},
{
glyphname = ncommaaccent;
lastChange = "2015-02-05 02:37:04 +0000";
layers = (
{
layerId = UUID0;
name = "Regular Italic";
paths = (
{
closed = 1;
nodes = (
"216 538 OFFCURVE",
"175 478 OFFCURVE",
"160 448 CURVE",
"160 526 LINE",
"96 526 LINE",
"22 0 LINE",
"104 0 LINE",
"145 294 LINE SMOOTH",
"159 395 OFFCURVE",
"203 465 OFFCURVE",
"270 465 CURVE SMOOTH",
"309 465 OFFCURVE",
"330 446 OFFCURVE",
"330 401 CURVE SMOOTH",
"330 369 OFFCURVE",
"276 0 OFFCURVE",
"276 0 CURVE",
"358 0 LINE",
"358 0 OFFCURVE",
"414 388 OFFCURVE",
"414 420 CURVE SMOOTH",
"414 480 OFFCURVE",
"387 538 OFFCURVE",
"300 538 CURVE SMOOTH"
);
},
{
closed = 1;
nodes = (
"220 -60 LINE",
"135 -60 LINE",
"122 -151 LINE",
"156 -151 LINE",
"125 -220 LINE",
"173 -220 LINE",
"208 -144 LINE"
);
}
);
width = 456;
}
);
unicode = 0146;
},
{
glyphname = eng;
lastChange = "2015-02-05 02:37:04 +0000";
layers = (
{
layerId = UUID0;
name = "Regular Italic";
paths = (
{
closed = 1;
nodes = (
"216 538 OFFCURVE",
"175 478 OFFCURVE",
"160 448 CURVE",
"160 526 LINE",
"96 526 LINE",
"22 0 LINE",
"104 0 LINE",
"145 294 LINE SMOOTH",
"159 395 OFFCURVE",
"203 465 OFFCURVE",
"270 465 CURVE SMOOTH",
"309 465 OFFCURVE",
"329 442 OFFCURVE",
"329 397 CURVE SMOOTH",
"329 391 OFFCURVE",
"267 -65 OFFCURVE",
"267 -65 CURVE",
"264 -96 OFFCURVE",
"246 -113 OFFCURVE",
"215 -113 CURVE SMOOTH",
"171 -113 LINE",
"163 -170 LINE",
"179 -176 OFFCURVE",
"206 -182 OFFCURVE",
"230 -182 CURVE SMOOTH",
"309 -182 OFFCURVE",
"339 -125 OFFCURVE",
"350 -61 CURVE",
"350 -61 OFFCURVE",
"414 392 OFFCURVE",
"414 420 CURVE SMOOTH",
"414 480 OFFCURVE",
"387 538 OFFCURVE",
"300 538 CURVE SMOOTH"
);
}
);
width = 456;
}
);
unicode = 014B;
},
